<?xml version="1.0" encoding="UTF-8"?>
<svg width="328px" height="275px" viewBox="0 0 328 275" version="1.1" xmlns="http://www.w3.org/2000/svg" xmlns:xlink="http://www.w3.org/1999/xlink">
    <!-- Generator: Sketch 60.1 (88133) - https://sketch.com -->
    <title>Illustration_328x276_gray</title>
    <desc>Created with Sketch.</desc>
    <g id="Mockups" stroke="none" stroke-width="1" fill="none" fill-rule="evenodd">
        <g id="04-Horizontal-Create-an-Account---Enabled" transform="translate(-5622.000000, -453.000000)">
            <g id="Illustration_328x276_gray" transform="translate(5622.000000, 453.000000)">
                <g id="lrg-dots" transform="translate(131.035425, -0.000000)" fill="#F0F1F7">
                    <path d="M3.39470013,1.68674498 C3.39470013,2.61983794 2.63444128,3.3758825 1.69855301,3.3758825 C0.760258852,3.3758825 5.68434189e-14,2.61983794 5.68434189e-14,1.68674498 C5.68434189e-14,0.753652011 0.760258852,8.52651283e-14 1.69855301,8.52651283e-14 C2.63444128,8.52651283e-14 3.39470013,0.753652011 3.39470013,1.68674498" id="Fill-209"></path>
                    <path d="M14.9366806,1.68674498 C14.9366806,2.61983794 14.1764217,3.3758825 13.2381276,3.3758825 C12.3022393,3.3758825 11.5419804,2.61983794 11.5419804,1.68674498 C11.5419804,0.753652011 12.3022393,8.52651283e-14 13.2381276,8.52651283e-14 C14.1764217,8.52651283e-14 14.9366806,0.753652011 14.9366806,1.68674498" id="Fill-210"></path>
                    <path d="M27.157601,1.68674498 C27.157601,2.61983794 26.3973422,3.3758825 25.459048,3.3758825 C24.5231597,3.3758825 23.7629009,2.61983794 23.7629009,1.68674498 C23.7629009,0.753652011 24.5231597,8.52651283e-14 25.459048,8.52651283e-14 C26.3973422,8.52651283e-14 27.157601,0.753652011 27.157601,1.68674498" id="Fill-211"></path>
                    <path d="M38.6995815,1.68674498 C38.6995815,2.61983794 37.9417285,3.3758825 37.0034343,3.3758825 C36.0651402,3.3758825 35.3048813,2.61983794 35.3048813,1.68674498 C35.3048813,0.753652011 36.0651402,8.52651283e-14 37.0034343,8.52651283e-14 C37.9417285,8.52651283e-14 38.6995815,0.753652011 38.6995815,1.68674498" id="Fill-212"></path>
                    <path d="M3.39470013,11.1416085 C3.39470013,12.0723089 2.63444128,12.8283535 1.69855301,12.8283535 C0.760258852,12.8283535 5.68434189e-14,12.0723089 5.68434189e-14,11.1416085 C5.68434189e-14,10.2085156 0.760258852,9.452471 1.69855301,9.452471 C2.63444128,9.452471 3.39470013,10.2085156 3.39470013,11.1416085" id="Fill-213"></path>
                    <path d="M14.9366806,11.1416085 C14.9366806,12.0723089 14.1764217,12.8283535 13.2381276,12.8283535 C12.3022393,12.8283535 11.5419804,12.0723089 11.5419804,11.1416085 C11.5419804,10.2085156 12.3022393,9.452471 13.2381276,9.452471 C14.1764217,9.452471 14.9366806,10.2085156 14.9366806,11.1416085" id="Fill-214"></path>
                    <path d="M27.157601,11.1416085 C27.157601,12.0723089 26.3973422,12.8283535 25.459048,12.8283535 C24.5231597,12.8283535 23.7629009,12.0723089 23.7629009,11.1416085 C23.7629009,10.2085156 24.5231597,9.452471 25.459048,9.452471 C26.3973422,9.452471 27.157601,10.2085156 27.157601,11.1416085" id="Fill-215"></path>
                    <path d="M38.6995815,11.1416085 C38.6995815,12.0723089 37.9417285,12.8283535 37.0034343,12.8283535 C36.0651402,12.8283535 35.3048813,12.0723089 35.3048813,11.1416085 C35.3048813,10.2085156 36.0651402,9.452471 37.0034343,9.452471 C37.9417285,9.452471 38.6995815,10.2085156 38.6995815,11.1416085" id="Fill-216"></path>
                    <path d="M3.39470013,20.5940795 C3.39470013,21.5271725 2.63444128,22.2808245 1.69855301,22.2808245 C0.760258852,22.2808245 5.68434189e-14,21.5271725 5.68434189e-14,20.5940795 C5.68434189e-14,19.6609866 0.760258852,18.904942 1.69855301,18.904942 C2.63444128,18.904942 3.39470013,19.6609866 3.39470013,20.5940795" id="Fill-217"></path>
                    <path d="M14.9366806,20.5940795 C14.9366806,21.5271725 14.1764217,22.2808245 13.2381276,22.2808245 C12.3022393,22.2808245 11.5419804,21.5271725 11.5419804,20.5940795 C11.5419804,19.6609866 12.3022393,18.904942 13.2381276,18.904942 C14.1764217,18.904942 14.9366806,19.6609866 14.9366806,20.5940795" id="Fill-218"></path>
                    <path d="M27.157601,20.5940795 C27.157601,21.5271725 26.3973422,22.2808245 25.459048,22.2808245 C24.5231597,22.2808245 23.7629009,21.5271725 23.7629009,20.5940795 C23.7629009,19.6609866 24.5231597,18.904942 25.459048,18.904942 C26.3973422,18.904942 27.157601,19.6609866 27.157601,20.5940795" id="Fill-219"></path>
                    <path d="M38.6995815,20.5940795 C38.6995815,21.5271725 37.9417285,22.2808245 37.0034343,22.2808245 C36.0651402,22.2808245 35.3048813,21.5271725 35.3048813,20.5940795 C35.3048813,19.6609866 36.0651402,18.904942 37.0034343,18.904942 C37.9417285,18.904942 38.6995815,19.6609866 38.6995815,20.5940795" id="Fill-220"></path>
                    <path d="M3.39470013,29.371374 C3.39470013,30.304467 2.63444128,31.058119 1.69855301,31.058119 C0.760258852,31.058119 5.68434189e-14,30.304467 5.68434189e-14,29.371374 C5.68434189e-14,28.4382811 0.760258852,27.6822365 1.69855301,27.6822365 C2.63444128,27.6822365 3.39470013,28.4382811 3.39470013,29.371374" id="Fill-221"></path>
                    <path d="M14.9366806,29.371374 C14.9366806,30.304467 14.1764217,31.058119 13.2381276,31.058119 C12.3022393,31.058119 11.5419804,30.304467 11.5419804,29.371374 C11.5419804,28.4382811 12.3022393,27.6822365 13.2381276,27.6822365 C14.1764217,27.6822365 14.9366806,28.4382811 14.9366806,29.371374" id="Fill-222"></path>
                    <path d="M27.157601,29.371374 C27.157601,30.304467 26.3973422,31.058119 25.459048,31.058119 C24.5231597,31.058119 23.7629009,30.304467 23.7629009,29.371374 C23.7629009,28.4382811 24.5231597,27.6822365 25.459048,27.6822365 C26.3973422,27.6822365 27.157601,28.4382811 27.157601,29.371374" id="Fill-223"></path>
                    <path d="M38.6995815,29.371374 C38.6995815,30.304467 37.9417285,31.058119 37.0034343,31.058119 C36.0651402,31.058119 35.3048813,30.304467 35.3048813,29.371374 C35.3048813,28.4382811 36.0651402,27.6822365 37.0034343,27.6822365 C37.9417285,27.6822365 38.6995815,28.4382811 38.6995815,29.371374" id="Fill-224"></path>
                </g>
                <g id="sm-monitor" transform="translate(0.000000, 44.561649)">
                    <polygon id="Fill-225" fill="#FFFFFF" points="0.678940026 100.601298 139.182705 100.601298 139.182705 0.6751765 0.678940026 0.6751765"></polygon>
                    <path d="M1.39870986,99.8874135 L138.4606,99.8874135 L138.4606,1.38674641 L1.39870986,1.38674641 L1.39870986,99.8874135 Z M139.161123,101.276475 L0.69818739,101.276475 C0.312900034,101.276475 9.23705556e-13,100.966251 9.23705556e-13,100.581944 L9.23705556e-13,0.694530757 C9.23705556e-13,0.310223738 0.312900034,-1.84741111e-13 0.69818739,-1.84741111e-13 L139.161123,-1.84741111e-13 C139.548745,-1.84741111e-13 139.861645,0.310223738 139.861645,0.694530757 L139.861645,100.581944 C139.861645,100.966251 139.548745,101.276475 139.161123,101.276475 L139.161123,101.276475 Z" id="Fill-226" fill="#F0F1F7"></path>
                    <polygon id="Fill-227" fill="#F0F1F7" points="0.678940026 9.452471 139.182705 9.452471 139.182705 0.6751765 0.678940026 0.6751765"></polygon>
                    <path d="M8.82622033,4.7274535 C8.82622033,5.84557501 7.91497912,6.751765 6.79062504,6.751765 C5.66382139,6.751765 4.75258018,5.84557501 4.75258018,4.7274535 C4.75258018,3.60933198 5.66382139,2.700706 6.79062504,2.700706 C7.91497912,2.700706 8.82622033,3.60933198 8.82622033,4.7274535" id="Fill-228" fill="#FFFFFF"></path>
                    <path d="M14.9366806,4.7274535 C14.9366806,5.84557501 14.0254393,6.751765 12.9010853,6.751765 C11.7742816,6.751765 10.8630404,5.84557501 10.8630404,4.7274535 C10.8630404,3.60933198 11.7742816,2.700706 12.9010853,2.700706 C14.0254393,2.700706 14.9366806,3.60933198 14.9366806,4.7274535" id="Fill-229" fill="#FFFFFF"></path>
                    <path d="M20.3682008,4.7274535 C20.3682008,5.84557501 19.4569596,6.751765 18.3301559,6.751765 C17.2058018,6.751765 16.2945606,5.84557501 16.2945606,4.7274535 C16.2945606,3.60933198 17.2058018,2.700706 18.3301559,2.700706 C19.4569596,2.700706 20.3682008,3.60933198 20.3682008,4.7274535" id="Fill-230" fill="#FFFFFF"></path>
                </g>
                <g id="code-lines" transform="translate(182.634867, 33.005328)" fill="#D6D7DC">
                    <path d="M128.97901,10.4760386 L33.9642679,10.4760386 C33.5800736,10.4760386 33.2680613,10.2046176 33.2680613,9.86837972 C33.2680613,9.53214183 33.5800736,9.26072087 33.9642679,9.26072087 L128.97901,9.26072087 C129.365533,9.26072087 129.677545,9.53214183 129.677545,9.86837972 C129.677545,10.2046176 129.365533,10.4760386 128.97901,10.4760386" id="Fill-235"></path>
                    <path d="M33.9470013,9.86837972 L128.998605,9.86837972 L33.9470013,9.86837972 Z" id="Fill-234"></path>
                    <path d="M79.4124892,20.6036861 L0.702433859,20.6036861 C0.316095236,20.6036861 1.8189894e-12,20.3322651 1.8189894e-12,19.9960272 C1.8189894e-12,19.6597893 0.316095236,19.3883684 0.702433859,19.3883684 L79.4124892,19.3883684 C79.8011692,19.3883684 80.114923,19.6597893 80.114923,19.9960272 C80.114923,20.3322651 79.8011692,20.6036861 79.4124892,20.6036861" id="Fill-237"></path>
                    <path d="M128.977304,29.3809806 L0.697906401,29.3809806 C0.312774106,29.3809806 0,29.1095596 0,28.7733217 C0,28.4370838 0.312774106,28.1656629 0.697906401,28.1656629 L128.977304,28.1656629 C129.364771,28.1656629 129.677545,28.4370838 129.677545,28.7733217 C129.677545,29.1095596 129.364771,29.3809806 128.977304,29.3809806" id="Fill-241"></path>
                    <path d="M42.7547698,39.5086281 L0.697391852,39.5086281 C0.311501694,39.5086281 1.8189894e-12,39.2372071 1.8189894e-12,38.9009692 C1.8189894e-12,38.5647313 0.311501694,38.2933104 0.697391852,38.2933104 L42.7547698,38.2933104 C43.1406599,38.2933104 43.4521616,38.5647313 43.4521616,38.9009692 C43.4521616,39.2372071 43.1406599,39.5086281 42.7547698,39.5086281" id="Fill-243"></path>
                    <path d="M128.980584,39.5086281 L57.7279233,39.5086281 C57.3422715,39.5086281 57.0309621,39.2372071 57.0309621,38.9009692 C57.0309621,38.5647313 57.3422715,38.2933104 57.7279233,38.2933104 L128.980584,38.2933104 C129.366236,38.2933104 129.677545,38.5647313 129.677545,38.9009692 C129.677545,39.2372071 129.366236,39.5086281 128.980584,39.5086281" id="Fill-245"></path>
                    <path d="M81.45067,47.6107461 L0.698736166,47.6107461 C0.313145974,47.6107461 1.8189894e-12,47.3393251 1.8189894e-12,47.0030872 C1.8189894e-12,46.6668493 0.313145974,46.3954284 0.698736166,46.3954284 L81.45067,46.3954284 C81.8385971,46.3954284 82.1517431,46.6668493 82.1517431,47.0030872 C82.1517431,47.3393251 81.8385971,47.6107461 81.45067,47.6107461" id="Fill-247"></path>
                    <path d="M1.8189894e-12,7.06522533 L7.46834028,3.45420297 L7.46834028,4.99433123 C7.46834028,5.11001096 7.43657051,5.21661778 7.37547479,5.31415167 C7.31193525,5.40941734 7.20685062,5.49107362 7.06266473,5.56138876 L3.64374848,7.18770976 C3.49956259,7.25802489 3.34804522,7.31699887 3.18675253,7.36689994 C3.02790367,7.41453277 2.85683566,7.4621656 2.67354852,7.50072551 C3.02545984,7.57784534 3.35048905,7.68218392 3.64374848,7.8160095 L7.06266473,9.45140342 C7.20685062,9.51491386 7.31193525,9.59657015 7.37547479,9.69637227 C7.43657051,9.79390617 7.46834028,9.90278121 7.46834028,10.0207292 L7.46834028,11.556321 L1.8189894e-12,7.93849393 L1.8189894e-12,7.06522533 Z" id="Fill-231"></path>
                    <path d="M11.6644229,13.4331166 C11.5622795,13.7077534 11.3959997,13.9148947 11.1655833,14.0522131 C10.9375424,14.1895315 10.7047506,14.257027 10.467208,14.257027 L9.50516036,14.257027 L14.8498695,0.858009686 C14.947262,0.606647193 15.0969139,0.413470463 15.2988251,0.280806926 C15.5007363,0.143488528 15.7359035,0.078320474 16.0043267,0.078320474 L16.9735006,0.078320474 L11.6644229,13.4331166 Z" id="Fill-232"></path>
                    <path d="M27.157601,7.93723888 L19.6892607,11.556321 L19.6892607,10.0188914 C19.6892607,9.90097641 19.7210305,9.79213183 19.7821262,9.69462523 C19.8456658,9.59485104 19.9483066,9.51321761 20.0924925,9.44972494 L23.5114087,7.81478873 C23.7900052,7.68780339 24.1125906,7.58349401 24.4816087,7.50186058 C24.3007654,7.46104387 24.1296974,7.41569196 23.9684047,7.36580486 C23.8095558,7.31818536 23.6555946,7.25696029 23.5114087,7.18666483 L20.0924925,5.56079901 C19.9483066,5.49050355 19.8456658,5.40887012 19.7821262,5.31363112 C19.7210305,5.21612452 19.6892607,5.10954754 19.6892607,4.99390018 L19.6892607,3.45420297 L27.157601,7.06421469 L27.157601,7.93723888 Z" id="Fill-233"></path>
                    <path d="M128.977304,54.3625111 L0.697906401,54.3625111 C0.312774106,54.3625111 0,54.0910901 0,53.7548522 C0,53.4186143 0.312774106,53.1471934 0.697906401,53.1471934 L128.977304,53.1471934 C129.364771,53.1471934 129.677545,53.4186143 129.677545,53.7548522 C129.677545,54.0910901 129.364771,54.3625111 128.977304,54.3625111" id="Fill-251"></path>
                    <path d="M128.974532,47.6107461 L93.0388564,47.6107461 C92.6498559,47.6107461 92.3358435,47.3393251 92.3358435,47.0030872 C92.3358435,46.6668493 92.6498559,46.3954284 93.0388564,46.3954284 L128.974532,46.3954284 C129.363532,46.3954284 129.677545,46.6668493 129.677545,47.0030872 C129.677545,47.3393251 129.363532,47.6107461 128.974532,47.6107461" id="Fill-249"></path>
                </g>
                <g id="dots" transform="translate(29.873361, 187.023890)" fill="#D6D7DC">
                    <path d="M18.8562013,1.09203584 C18.9336005,1.00088701 18.9519319,0.887457356 18.9580423,0.776053233 C18.7767653,0.919865828 18.5853043,1.07178054 18.3836591,1.24192502 C18.5588256,1.26623137 18.7339921,1.23584843 18.8562013,1.09203584" id="Fill-252"></path>
                    <path d="M14.2466484,6.03213657 C14.4360726,5.80932833 14.4075571,5.47714149 14.1835069,5.28876725 C14.1570283,5.26648642 14.1183287,5.27458854 14.0877764,5.2583843 C13.8820576,5.50347337 13.6743019,5.75869009 13.4645095,6.02605998 C13.4828408,6.04631528 13.4787672,6.07669822 13.4991354,6.09492799 C13.7231856,6.28330223 14.0572241,6.25494482 14.2466484,6.03213657" id="Fill-253"></path>
                    <path d="M16.9082349,4.04877464 C16.7188106,4.26955736 16.7473261,4.60376972 16.9713763,4.79214397 C17.1954265,4.97849268 17.529465,4.9521608 17.7168525,4.72935255 C17.9062767,4.50654431 17.8797981,4.17435747 17.6557479,3.98598323 C17.4316977,3.79760898 17.0976592,3.8259664 16.9082349,4.04877464" id="Fill-254"></path>
                    <path d="M9.87721949,11.085723 C9.85481447,11.1221825 9.83444627,11.1566165 9.81204125,11.1951015 C9.82222535,11.1849739 9.83851991,11.1869994 9.84870401,11.1748463 C9.87110903,11.1505399 9.86092493,11.1140804 9.87721949,11.085723" id="Fill-255"></path>
                    <path d="M12.8346846,8.77501014 C12.6452604,8.99781839 12.6737758,9.33000522 12.8957892,9.51837947 C13.1198394,9.70472818 13.4559148,9.6783963 13.6433022,9.45558805 C13.8327265,9.23277981 13.8062478,8.90059297 13.5821976,8.71221873 C13.3581474,8.52384448 13.0241089,8.5522019 12.8346846,8.77501014" id="Fill-256"></path>
                    <path d="M9.52860424,14.8485829 C9.71802851,14.6257747 9.68951303,14.2935878 9.46749964,14.1052136 C9.33714315,13.995835 9.17623437,13.9796308 9.02143604,14.0120392 C8.9053373,14.2388985 8.79127537,14.47386 8.67721345,14.7108469 C8.70980257,14.7797149 8.71998667,14.856685 8.78109127,14.9113743 C9.00514148,15.0997486 9.33917997,15.0693656 9.52860424,14.8485829" id="Fill-257"></path>
                    <path d="M20.3650352,2.69842164 C20.1756109,2.92122989 20.2041264,3.25341672 20.4281766,3.44179097 C20.6522268,3.62813968 20.9862653,3.6018078 21.1736528,3.37899955 L21.1756896,3.37899955 C21.1614319,3.1420126 21.1431005,2.90300012 21.1268059,2.66398764 C21.1186586,2.65588552 21.1206955,2.64373234 21.1125482,2.63563023 C20.888498,2.44725598 20.5544595,2.4756134 20.3650352,2.69842164" id="Fill-258"></path>
                    <path d="M16.2292949,7.42465714 C16.0398706,7.64746539 16.0683861,7.97965222 16.2924363,8.16802647 C16.5164865,8.35437518 16.850525,8.3280433 17.0379124,8.10523505 C17.2273367,7.88445234 17.200858,7.55023997 16.9768078,7.36186573 C16.7527576,7.17349148 16.4187191,7.2018489 16.2292949,7.42465714" id="Fill-259"></path>
                    <path d="M18.945055,9.45018664 C18.7556307,9.67299489 18.7841462,10.0051817 19.0081964,10.193556 C19.2322466,10.3799047 19.5662851,10.3535728 19.7536725,10.1307646 C19.9430968,9.90795631 19.9166182,9.57576947 19.6925679,9.38739523 C19.4685177,9.19902098 19.1344792,9.2273784 18.945055,9.45018664" id="Fill-260"></path>
                    <path d="M19.623995,6.07388779 C19.4345707,6.29669604 19.4630862,6.62888288 19.6871364,6.81725712 C19.9111866,7.00563136 20.2452251,6.97727395 20.4326126,6.75446571 C20.6220368,6.53368299 20.5955582,6.19947062 20.371508,6.01109638 C20.1474578,5.82272214 19.8134193,5.85107955 19.623995,6.07388779" id="Fill-261"></path>
                    <path d="M11.4761233,12.8253198 C11.286699,13.048128 11.3152145,13.3803148 11.5392647,13.5686891 C11.7633149,13.7570633 12.0973534,13.7287059 12.2867776,13.5058977 C12.4762019,13.285115 12.4476864,12.9509026 12.2236362,12.7625283 C11.999586,12.5741541 11.6655475,12.604537 11.4761233,12.8253198" id="Fill-262"></path>
                    <path d="M14.1924748,14.8515986 C14.0030505,15.0744069 14.031566,15.4065937 14.2556162,15.594968 C14.4776296,15.7813167 14.8137049,15.7549848 15.0010924,15.5321766 C15.1905166,15.3113938 15.164038,14.9771815 14.9399878,14.7888072 C14.7159376,14.600433 14.3818991,14.6287904 14.1924748,14.8515986" id="Fill-263"></path>
                    <path d="M15.5503548,10.8005396 C15.3609306,11.0213224 15.3894461,11.3555347 15.6134963,11.543909 C15.8355097,11.7302577 16.171585,11.7039258 16.3589724,11.4811176 C16.5483967,11.2583093 16.521918,10.9261225 16.2978678,10.7377482 C16.0738176,10.549374 15.7397791,10.5777314 15.5503548,10.8005396" id="Fill-264"></path>
                    <path d="M17.5871749,13.5008293 C17.3977507,13.7236375 17.4262661,14.0558244 17.6503163,14.2441986 C17.8743666,14.4325729 18.208405,14.4042154 18.3957925,14.1814072 C18.5852168,13.9606245 18.5587381,13.6264121 18.3346879,13.4380379 C18.1106377,13.2496636 17.7765992,13.278021 17.5871749,13.5008293" id="Fill-265"></path>
                    <path d="M7.40307454,17.5523046 C7.21365027,17.7751129 7.24216575,18.1072997 7.46621596,18.295674 C7.69026617,18.4820227 8.02430466,18.4556908 8.21169211,18.2328826 C8.40111638,18.0100743 8.37463772,17.6778875 8.15058751,17.4895132 C7.9265373,17.301139 7.59249881,17.3294964 7.40307454,17.5523046" id="Fill-266"></path>
                    <path d="M10.1182432,19.5770848 C9.92881893,19.799893 9.95733442,20.1320798 10.1813846,20.3204541 C10.4054348,20.5088283 10.7394733,20.4804709 10.9288976,20.2576627 C11.1183219,20.03688 11.0898064,19.7026676 10.8657562,19.5142933 C10.641706,19.3259191 10.3076675,19.356302 10.1182432,19.5770848" id="Fill-267"></path>
                    <path d="M10.7971832,16.2019516 C10.607759,16.4247599 10.6362744,16.7569467 10.8603246,16.945321 C11.0843749,17.1316697 11.4184134,17.1053378 11.6078376,16.8825296 C11.7972619,16.6597213 11.7687464,16.3275345 11.5446962,16.1391602 C11.320646,15.950786 10.9866075,15.9791434 10.7971832,16.2019516" id="Fill-268"></path>
                    <path d="M13.5129433,18.2274811 C13.3235191,18.4482639 13.3520345,18.7824762 13.5760848,18.9708505 C13.800135,19.1571992 14.1341735,19.1308673 14.3235977,18.9080591 C14.513022,18.6852508 14.4845065,18.353064 14.2604563,18.1646897 C14.0364061,17.9763155 13.7023676,18.0046729 13.5129433,18.2274811" id="Fill-269"></path>
                    <path d="M6.04519449,24.9792461 C5.85577022,25.2020544 5.8842857,25.5342412 6.10833591,25.7226155 C6.33238612,25.9089642 6.66642461,25.8826323 6.85381206,25.6598241 C7.04323633,25.4370158 7.01675766,25.104829 6.79270746,24.9164547 C6.56865725,24.7280805 6.23461876,24.7564379 6.04519449,24.9792461" id="Fill-270"></path>
                    <path d="M6.72413451,20.9277708 C6.53471025,21.150579 6.56322573,21.4827659 6.78727594,21.6711401 C7.01132614,21.8595144 7.34536464,21.8311569 7.53275208,21.6083487 C7.72217635,21.387566 7.69569769,21.0533536 7.47164748,20.8649794 C7.24759727,20.6766051 6.91355878,20.7049625 6.72413451,20.9277708" id="Fill-271"></path>
                    <path d="M9.43947681,23.6288931 C9.25005254,23.8517014 9.27856802,24.1838882 9.50261823,24.3722625 C9.72666844,24.5586112 10.0607069,24.5322793 10.2480944,24.3094711 C10.4395555,24.0866628 10.41104,23.754476 10.1869898,23.5661017 C9.96293957,23.3777275 9.62890108,23.4060849 9.43947681,23.6288931" id="Fill-272"></path>
                    <path d="M4.68731444,28.3547123 C4.49789017,28.5775205 4.52640565,28.9097074 4.75045586,29.0980816 C4.97450607,29.2864559 5.30854456,29.2580984 5.49593201,29.0352902 C5.68535627,28.8145075 5.65887761,28.4802951 5.43482741,28.2919209 C5.2107772,28.1035466 4.8767387,28.131904 4.68731444,28.3547123" id="Fill-273"></path>
                    <path d="M21.3566271,12.2287968 C21.425879,12.2855116 21.5134623,12.2875371 21.5949351,12.3037414 C21.6030823,11.9816822 21.6010455,11.6515209 21.6051192,11.3274361 C21.4890204,11.3476914 21.3749585,11.3902276 21.2934857,11.4854274 C21.1040614,11.7082357 21.1325769,12.0404225 21.3566271,12.2287968" id="Fill-274"></path>
                    <path d="M16.9082349,16.8771281 C16.7188106,17.0999364 16.7473261,17.4321232 16.9713763,17.6204975 C17.1933897,17.8068462 17.529465,17.7805143 17.7168525,17.5577061 C17.9062767,17.3348978 17.8797981,17.002711 17.6557479,16.8143367 C17.4316977,16.6259625 17.0976592,16.6543199 16.9082349,16.8771281" id="Fill-275"></path>
                    <path d="M19.623995,18.9019083 C19.4345707,19.1247165 19.4630862,19.4569033 19.6871364,19.6452776 C19.9111866,19.8336518 20.2452251,19.8052944 20.4326126,19.5824862 C20.6220368,19.3617035 20.5955582,19.0274911 20.371508,18.8391168 C20.1474578,18.6507426 19.8134193,18.6811255 19.623995,18.9019083" id="Fill-276"></path>
                    <path d="M20.302935,15.5267751 C20.1135108,15.7495834 20.1420262,16.0817702 20.3660764,16.2701445 C20.5901267,16.4564932 20.9241651,16.4301613 21.1115526,16.2073531 C21.3009769,15.9845448 21.2744982,15.652358 21.050448,15.4639837 C20.8263978,15.2756095 20.4923593,15.3039669 20.302935,15.5267751" id="Fill-277"></path>
                    <path d="M13.6446577,22.2831089 C13.834082,22.0623261 13.8055665,21.7281138 13.5815163,21.5397395 C13.3574661,21.3533908 13.0234276,21.3797227 12.8340033,21.6025309 C12.644579,21.8253392 12.6730945,22.157526 12.8971447,22.3459003 C13.1211949,22.5342745 13.4552334,22.5059171 13.6446577,22.2831089" id="Fill-278"></path>
                    <path d="M15.6810591,24.9838149 C15.8704834,24.7610066 15.8419679,24.4288198 15.6179177,24.2404455 C15.3938675,24.0540968 15.059829,24.0804287 14.8704047,24.3032369 C14.6830173,24.5260452 14.7094959,24.858232 14.9335461,25.0466063 C15.1575963,25.2349805 15.4916348,25.2066231 15.6810591,24.9838149" id="Fill-279"></path>
                    <path d="M16.2292949,20.2525943 C16.0398706,20.4754025 16.0683861,20.8075894 16.2924363,20.9959636 C16.5144497,21.1843379 16.850525,21.1559804 17.0379124,20.9331722 C17.2273367,20.7123895 17.200858,20.3781771 16.9768078,20.1898029 C16.7527576,20.0014286 16.4187191,20.029786 16.2292949,20.2525943" id="Fill-280"></path>
                    <path d="M18.2661149,22.2785401 C18.0766907,22.5013484 18.1052062,22.8335352 18.3292564,23.0219095 C18.5533066,23.2082582 18.8873451,23.1819263 19.0747325,22.9591181 C19.2641568,22.7363098 19.2376781,22.404123 19.0136279,22.2157487 C18.7895777,22.0273745 18.4555392,22.0557319 18.2661149,22.2785401" id="Fill-281"></path>
                    <path d="M8.08184179,27.0043593 C7.89241753,27.2271675 7.92093301,27.5593544 8.14498322,27.7477286 C8.36903342,27.9361029 8.70307192,27.9077454 8.89249618,27.6849372 C9.07988363,27.4641545 9.05340497,27.1299421 8.82935476,26.9415679 C8.60530455,26.7531936 8.27126606,26.781551 8.08184179,27.0043593" id="Fill-282"></path>
                    <path d="M10.7973569,29.0303051 C10.6079326,29.2531134 10.6364481,29.5853002 10.8604983,29.7736745 C11.0845485,29.9600232 11.418587,29.9336913 11.6059744,29.7108831 C11.7974355,29.4880748 11.76892,29.155888 11.5448698,28.9675137 C11.3208196,28.7791395 10.9867811,28.8074969 10.7973569,29.0303051" id="Fill-283"></path>
                    <path d="M11.4761233,25.6544226 C11.286699,25.8752054 11.3152145,26.2094177 11.5392647,26.397792 C11.7633149,26.5841407 12.0973534,26.5578088 12.2867776,26.3350006 C12.4762019,26.1121923 12.4476864,25.7800055 12.2236362,25.5916312 C11.999586,25.403257 11.6655475,25.4316144 11.4761233,25.6544226" id="Fill-284"></path>
                    <path d="M15.0025377,28.3604467 C15.191962,28.1376385 15.1634465,27.8054517 14.9393963,27.6170774 C14.7153461,27.4287032 14.3813076,27.4570606 14.1918834,27.6798688 C14.0024591,27.9006515 14.0309746,28.2348639 14.2550248,28.4232382 C14.479075,28.6116124 14.8131135,28.5812295 15.0025377,28.3604467" id="Fill-285"></path>
                    <path d="M4.00837441,31.7310111 C3.81895014,31.9538194 3.84746563,32.2860062 4.07151583,32.4743805 C4.29556604,32.6607292 4.62960453,32.6343973 4.81699198,32.4115891 C5.00641625,32.1887808 4.97993759,31.856594 4.75588738,31.6682197 C4.53183717,31.4798455 4.19779868,31.5082029 4.00837441,31.7310111" id="Fill-286"></path>
                    <path d="M6.72413451,33.7561243 C6.53471025,33.9789325 6.56322573,34.3111194 6.78727594,34.4994936 C7.01132614,34.6878679 7.34536464,34.6595104 7.53275208,34.4367022 C7.72217635,34.2159195 7.69569769,33.8817071 7.47164748,33.6933329 C7.24759727,33.5049586 6.91355878,33.533316 6.72413451,33.7561243" id="Fill-287"></path>
                    <path d="M8.21254605,31.0604034 C8.40197032,30.8375951 8.37345484,30.5054083 8.14940463,30.317034 C7.92535442,30.1306853 7.59131593,30.1570172 7.40392848,30.3798254 C7.21450421,30.6026337 7.24098287,30.9348205 7.46503308,31.1231948 C7.68908329,31.311569 8.02312178,31.2832116 8.21254605,31.0604034" id="Fill-288"></path>
                    <path d="M10.9282163,33.0863492 C11.1176405,32.863541 11.0891251,32.5313541 10.8671117,32.3429799 C10.6430615,32.1546056 10.3069861,32.182963 10.1195987,32.4057713 C9.93017443,32.626554 9.95665309,32.9607664 10.1807033,33.1491406 C10.4047535,33.3375149 10.738792,33.3091574 10.9282163,33.0863492" id="Fill-289"></path>
                    <path d="M1.97155433,39.1579526 C1.78213007,39.3807609 1.81064555,39.7129477 2.03469576,39.901322 C2.25670915,40.0876707 2.59278446,40.0613388 2.78017191,39.8385306 C2.96959617,39.6157223 2.94311751,39.2835355 2.7190673,39.0951612 C2.49501709,38.906787 2.1609786,38.9351444 1.97155433,39.1579526" id="Fill-290"></path>
                    <path d="M4.1389059,36.4627388 C4.32833016,36.2399305 4.29981468,35.9077437 4.07576447,35.7193694 C3.85171426,35.5309952 3.51767577,35.5593526 3.33028833,35.7821609 C3.14086406,36.0029436 3.16734272,36.3371559 3.39139293,36.5235047 C3.61544314,36.7139044 3.94948163,36.6835215 4.1389059,36.4627388" id="Fill-291"></path>
                    <path d="M6.17572597,38.4873449 C6.36515024,38.2645366 6.33663476,37.9323498 6.11258455,37.7439755 C5.88853434,37.5576268 5.55449585,37.5839587 5.3671084,37.8067669 C5.17768413,38.0295752 5.2041628,38.361762 5.428213,38.5501363 C5.65226321,38.7385105 5.98630171,38.7101531 6.17572597,38.4873449" id="Fill-292"></path>
                    <path d="M1.31224113,43.2759547 C1.53425452,43.464329 1.87032983,43.4359715 2.0597541,43.2131633 C2.24714155,42.9923806 2.22066289,42.6581682 1.99661268,42.4718195 C1.77459929,42.2834453 1.44259762,42.3118027 1.25317335,42.5305599 C1.23891561,42.714883 1.22465787,42.8971807 1.21040013,43.0815039 C1.24095243,43.1483464 1.25113653,43.2253165 1.31224113,43.2759547" id="Fill-293"></path>
                    <path d="M17.5871749,26.3291828 C17.3977507,26.551991 17.4262661,26.8841779 17.6503163,27.0725521 C17.8743666,27.2609264 18.208405,27.2325689 18.3957925,27.0097607 C18.5852168,26.788978 18.5587381,26.4547656 18.3346879,26.2663914 C18.1106377,26.0780171 17.7765992,26.1063745 17.5871749,26.3291828" id="Fill-294"></path>
                    <path d="M20.0255121,28.7152565 C20.0275489,28.7010778 20.0295857,28.6889247 20.0316225,28.674746 C20.0336594,28.6889247 20.0255121,28.7010778 20.0255121,28.7152565" id="Fill-295"></path>
                    <path d="M14.3235977,31.7355799 C14.513022,31.5127716 14.4845065,31.1805848 14.2604563,30.9922105 C14.0364061,30.8058618 13.7023676,30.8321937 13.5129433,31.0550019 C13.3235191,31.2778102 13.3520345,31.609997 13.5760848,31.7983713 C13.800135,31.9867455 14.1341735,31.9583881 14.3235977,31.7355799" id="Fill-296"></path>
                    <path d="M17.0387664,33.7615257 C17.2281906,33.5387175 17.1996752,33.2065306 16.975625,33.0181564 C16.7515748,32.8297821 16.4175363,32.8581395 16.2301488,33.0809478 C16.0407245,33.3017305 16.0672032,33.6359429 16.2912534,33.8243171 C16.5153036,34.0126914 16.8493421,33.9843339 17.0387664,33.7615257" id="Fill-297"></path>
                    <path d="M16.9082349,29.7054816 C16.7188106,29.9282899 16.7473261,30.2604767 16.9713763,30.448851 C17.1954265,30.6351997 17.529465,30.6088678 17.7168525,30.3860596 C17.9062767,30.1632513 17.8797981,29.8310645 17.6557479,29.6426902 C17.4316977,29.454316 17.0976592,29.4826734 16.9082349,29.7054816" id="Fill-298"></path>
                    <path d="M19.3235046,31.7862969 C19.1564854,31.9807477 19.1870377,32.2481176 19.3397992,32.4405429 C19.3907197,32.1954538 19.4396034,31.9503647 19.4884871,31.7012246 C19.4334929,31.7316076 19.3662779,31.7356586 19.3235046,31.7862969" id="Fill-299"></path>
                    <path d="M9.5704261,37.1369919 C9.75985037,36.9141836 9.73133489,36.5819968 9.50728468,36.3936225 C9.28527129,36.2072738 8.94919598,36.2336057 8.76180853,36.4564139 C8.57238426,36.6792222 8.59886292,37.011409 8.82291313,37.1997833 C9.04696334,37.3881575 9.38100183,37.3598001 9.5704261,37.1369919" id="Fill-300"></path>
                    <path d="M12.2860963,39.1625214 C12.4755206,38.9397131 12.4470051,38.6075263 12.2249917,38.419152 C12.0009415,38.2328033 11.6648662,38.2591352 11.4774787,38.4819434 C11.2880545,38.7047517 11.3145331,39.0369385 11.5385834,39.2253128 C11.7626336,39.413687 12.0966721,39.3853296 12.2860963,39.1625214" id="Fill-301"></path>
                    <path d="M13.6446577,35.1128021 C13.834082,34.8899938 13.8055665,34.557807 13.5815163,34.3694328 C13.3574661,34.1810585 13.0234276,34.2094159 12.8340033,34.4322242 C12.644579,34.6530069 12.6730945,34.9872193 12.8971447,35.173568 C13.1211949,35.3619422 13.4552334,35.3335848 13.6446577,35.1128021" id="Fill-302"></path>
                    <path d="M15.6813041,37.8121684 C15.8707284,37.5893601 15.8422129,37.2571733 15.6181627,37.068799 C15.3941125,36.8824503 15.060074,36.9087822 14.8726866,37.1315904 C14.6812255,37.3543987 14.709741,37.6865855 14.9337912,37.8749598 C15.1578414,38.063334 15.4918799,38.0349766 15.6813041,37.8121684" id="Fill-303"></path>
                    <path d="M5.49678595,41.8636437 C5.68621021,41.6408355 5.65769473,41.3086486 5.43364452,41.1202744 C5.20959432,40.9319001 4.87555582,40.9602575 4.68816838,41.1830658 C4.49874411,41.4038485 4.52522277,41.7380609 4.74927298,41.9264351 C4.97332319,42.1148094 5.30736168,42.0864519 5.49678595,41.8636437" id="Fill-304"></path>
                    <path d="M8.21254605,43.8887569 C8.40197032,43.6659486 8.37345484,43.3337618 8.14940463,43.1453875 C7.92535442,42.9590388 7.59131593,42.9853707 7.40392848,43.2081789 C7.21450421,43.4309872 7.24098287,43.763174 7.46503308,43.9515483 C7.68908329,44.1399225 8.02312178,44.1115651 8.21254605,43.8887569" id="Fill-305"></path>
                    <path d="M8.82851742,39.7705989 C8.60446722,39.5822247 8.27042872,39.6105821 8.08100446,39.8313648 C7.89361701,40.0541731 7.92009567,40.3883854 8.14414588,40.5747341 C8.36819609,40.7631084 8.70223458,40.7367765 8.89165885,40.5139683 C9.08108311,40.29116 9.05256763,39.9589732 8.82851742,39.7705989" id="Fill-306"></path>
                    <path d="M11.6071563,42.5384039 C11.7965806,42.3176211 11.7680651,41.9834088 11.5460517,41.7950345 C11.3220015,41.6086858 10.9859262,41.6350177 10.7985387,41.8578259 C10.6091145,42.0806342 10.6355931,42.412821 10.8596433,42.6011953 C11.0836935,42.7895695 11.417732,42.7612121 11.6071563,42.5384039" id="Fill-307"></path>
                    <path d="M0.859388135,46.4548439 C0.845130394,46.7647499 0.830872654,47.0807325 0.816614913,47.3946896 C0.918455917,47.3683577 1.02233374,47.3379748 1.09565926,47.2529025 C1.28304671,47.0300943 1.25656805,46.6979074 1.03251784,46.5095332 C0.981597339,46.4669971 0.918455917,46.4750992 0.859388135,46.4548439" id="Fill-308"></path>
                    <path d="M4.1389059,49.2909182 C4.32833016,49.06811 4.29981468,48.7359232 4.07576447,48.5475489 C3.85171426,48.3591747 3.51767577,48.3875321 3.33028833,48.6103403 C3.14086406,48.831123 3.16734272,49.1653354 3.39139293,49.3537097 C3.61544314,49.5420839 3.94948163,49.511701 4.1389059,49.2909182" id="Fill-309"></path>
                    <path d="M4.81826373,45.2391099 C5.007688,45.0163016 4.97917252,44.6841148 4.75512231,44.4957405 C4.5310721,44.3093918 4.19703361,44.3357237 4.00964616,44.5585319 C3.81818507,44.7813402 3.84670055,45.113527 4.07075076,45.3019013 C4.29480097,45.4902755 4.62883946,45.4619181 4.81826373,45.2391099" id="Fill-310"></path>
                    <path d="M7.53360602,47.9402322 C7.72303029,47.717424 7.69451481,47.3852371 7.4704646,47.1968629 C7.24641439,47.0084886 6.9123759,47.036846 6.72498845,47.2596543 C6.53556419,47.480437 6.56204285,47.8146494 6.78609306,48.0030236 C7.01014326,48.1913979 7.34418176,48.1630404 7.53360602,47.9402322" id="Fill-311"></path>
                    <path d="M2.78161728,52.6660514 C2.97104155,52.4432431 2.94252607,52.1110563 2.71847586,51.922682 C2.49442565,51.7363333 2.16038716,51.7626652 1.97096289,51.9854734 C1.78153863,52.2082817 1.81005411,52.5404685 2.03410432,52.7288428 C2.25815453,52.917217 2.59219302,52.8888596 2.78161728,52.6660514" id="Fill-312"></path>
                    <path d="M18.596057,35.1449624 C18.4066327,35.3677706 18.4351482,35.6999574 18.6591984,35.8883317 C18.6612352,35.8903572 18.6653088,35.8883317 18.6673457,35.8903572 C18.7365976,35.6007065 18.8038126,35.2989026 18.8710277,35.0031753 C18.7712235,35.0295072 18.6673457,35.0598901 18.596057,35.1449624" id="Fill-313"></path>
                    <path d="M15.0025377,41.1884672 C15.191962,40.965659 15.1634465,40.6334721 14.9393963,40.4450979 C14.7153461,40.2567236 14.3813076,40.285081 14.1918834,40.5078893 C14.0024591,40.728672 14.0309746,41.0628844 14.2550248,41.2512586 C14.479075,41.4396329 14.8131135,41.4112754 15.0025377,41.1884672" id="Fill-314"></path>
                    <path d="M16.6403466,42.6539378 C16.5181374,42.7957249 16.5161006,42.9739715 16.5690579,43.1400649 C16.624052,42.9638438 16.6790462,42.7835717 16.7320035,42.6073506 C16.703488,42.6276059 16.6647884,42.6255804 16.6403466,42.6539378" id="Fill-315"></path>
                    <path d="M17.2416702,39.2223532 C17.0685404,39.4269317 17.0970559,39.7145569 17.2742593,39.9069822 C17.3496216,39.6355613 17.4270208,39.3661658 17.5003463,39.0886683 C17.4086894,39.1170257 17.3088852,39.1413321 17.2416702,39.2223532" id="Fill-316"></path>
                    <path d="M10.9283062,45.9142864 C11.1177304,45.6914781 11.0892149,45.3592913 10.8651647,45.170917 C10.6411145,44.9845683 10.307076,45.0109002 10.1196886,45.2337084 C9.93026431,45.4544912 9.95674297,45.7887035 10.1807932,45.9770778 C10.4048434,46.165452 10.7388819,46.1370946 10.9283062,45.9142864" id="Fill-317"></path>
                    <path d="M12.9657177,48.6154087 C13.1551419,48.3926005 13.1266265,48.0604136 12.9025762,47.8720394 C12.678526,47.6836651 12.3444875,47.7120225 12.1550633,47.9348308 C11.965639,48.1556135 11.9941545,48.4898259 12.2182047,48.6782001 C12.4422549,48.8665744 12.7762934,48.8382169 12.9657177,48.6154087" id="Fill-318"></path>
                    <path d="M14.3235977,44.5639334 C14.513022,44.3411251 14.4845065,44.0089383 14.2604563,43.820564 C14.0364061,43.6342153 13.7023676,43.6605472 13.5129433,43.8833554 C13.3235191,44.1061637 13.3520345,44.4383505 13.5760848,44.6267248 C13.800135,44.815099 14.1341735,44.7867416 14.3235977,44.5639334" id="Fill-319"></path>
                    <path d="M6.17572597,51.3156984 C6.36515024,51.0928901 6.33663476,50.7607033 6.11258455,50.572329 C5.88853434,50.3859803 5.55449585,50.4123122 5.3671084,50.6351204 C5.17768413,50.8579287 5.2041628,51.1901155 5.428213,51.3784898 C5.65226321,51.566864 5.98630171,51.5385066 6.17572597,51.3156984" id="Fill-320"></path>
                    <path d="M8.89148607,53.3412279 C9.08091034,53.1184196 9.05239486,52.7862328 8.82834465,52.5978585 C8.60429444,52.4115098 8.27025595,52.4378417 8.0828685,52.6606499 C7.89344424,52.8814327 7.9199229,53.215645 8.14397311,53.4040193 C8.36802331,53.5923935 8.70206181,53.5640361 8.89148607,53.3412279" id="Fill-321"></path>
                    <path d="M9.50745745,49.222565 C9.28340724,49.0341908 8.94936875,49.0625482 8.75994448,49.2853565 C8.57255703,49.5081647 8.5990357,49.8403515 8.8230859,50.0267003 C9.04713611,50.2171 9.38117461,50.1887426 9.57059887,49.9659344 C9.76002314,49.7431261 9.73150766,49.4109393 9.50745745,49.222565" id="Fill-322"></path>
                    <path d="M12.2861862,51.9908749 C12.4756105,51.7680666 12.447095,51.4358798 12.2230448,51.2475055 C12.0010314,51.0611568 11.6649561,51.0874887 11.4775686,51.3102969 C11.2881444,51.5331052 11.314623,51.865292 11.5386732,52.0536663 C11.7627234,52.2420405 12.0967619,52.2136831 12.2861862,51.9908749" id="Fill-323"></path>
                    <path d="M2.10267726,56.0426832 C2.29210153,55.819875 2.26358605,55.4876882 2.03953584,55.2993139 C1.81548563,55.1109397 1.48144714,55.1392971 1.29202287,55.3621053 C1.1025986,55.582888 1.13111408,55.9171004 1.35516429,56.1054747 C1.5792145,56.2938489 1.91325299,56.263466 2.10267726,56.0426832" id="Fill-324"></path>
                    <path d="M4.81784592,58.7426399 C5.00727019,58.5198316 4.97875471,58.1876448 4.7547045,57.9992705 C4.53065429,57.8129218 4.1966158,57.8392537 4.00922835,58.0620619 C3.81980408,58.2848702 3.84628274,58.617057 4.07033295,58.8054313 C4.29438316,58.9938055 4.62842165,58.9654481 4.81784592,58.7426399" id="Fill-325"></path>
                    <path d="M5.49678595,54.6919972 C5.68621021,54.469189 5.65769473,54.1370021 5.43364452,53.9486279 C5.20959432,53.7602536 4.87555582,53.788611 4.68816838,54.0114193 C4.49874411,54.232202 4.52522277,54.5664144 4.74927298,54.7547886 C4.97332319,54.9431629 5.30736168,54.9148054 5.49678595,54.6919972" id="Fill-326"></path>
                    <path d="M8.21254605,56.7171104 C8.40197032,56.4963276 8.37345484,56.1621153 8.14940463,55.973741 C7.92535442,55.7873923 7.59131593,55.8137242 7.40392848,56.0365324 C7.21450421,56.2593407 7.24098287,56.5915275 7.46503308,56.7799018 C7.68908329,56.968276 8.02312178,56.9399186 8.21254605,56.7171104" id="Fill-327"></path>
                    <path d="M1.03820963,60.1096134 C1.2276339,59.8868052 1.19911842,59.5546184 0.975068211,59.3662441 C0.94655273,59.3419378 0.905816328,59.3520654 0.873227207,59.3338356 C0.885448128,59.6113332 0.899705868,59.8928818 0.913963609,60.1724049 C0.95266319,60.146073 1.00562051,60.1480985 1.03820963,60.1096134" id="Fill-328"></path>
                    <path d="M3.39940063,61.487539 C3.17535042,61.2991647 2.84131193,61.3275221 2.65188766,61.5503304 C2.48894206,61.7407301 2.51745754,62.0020234 2.66207176,62.1944487 L3.48698389,62.1498871 C3.61530356,61.9331554 3.599009,61.6556579 3.39940063,61.487539" id="Fill-329"></path>
                    <path d="M10.8607433,55.4299651 C11.0847935,55.6183394 11.418832,55.5899819 11.6082563,55.3671737 C11.7956437,55.1443655 11.7691651,54.8121786 11.5451149,54.6238044 C11.3231015,54.4354301 10.9870262,54.4637875 10.7976019,54.6865958 C10.6081776,54.909404 10.6366931,55.2415909 10.8607433,55.4299651" id="Fill-330"></path>
                    <path d="M6.854666,60.7681694 C7.04409027,60.5453611 7.01557478,60.2131743 6.79152458,60.0248 C6.56747437,59.8384513 6.23343587,59.8647832 6.04604843,60.0875914 C5.85662416,60.3083742 5.88310282,60.6425865 6.10715303,60.8309608 C6.33120324,61.019335 6.66524173,60.9909776 6.854666,60.7681694" id="Fill-331"></path>
                    <path d="M9.67287347,58.1605392 C9.50992787,58.3509389 9.53844335,58.6122323 9.68305757,58.8046576 C9.82359816,58.557543 9.97228602,58.2901731 10.1270844,58.0045734 C9.9600651,57.9883692 9.79100904,58.0228032 9.67287347,58.1605392" id="Fill-332"></path>
                </g>
                <g id="leaf-2" transform="translate(2.036820, 174.870713)">
                    <path d="M3.35363551,1.42108547e-14 C0.853244717,8.15527791 -0.0783188603,16.0620892 0.00510474363,23.5067991 L3.97931254,25.6315369 L0.29940468,29.6789883 C2.61440969,56.350834 17.1950018,75.619768 17.1950018,75.619768 L24.5385963,73.6761553 C36.5492779,13.7631925 3.35363551,1.42108547e-14 3.35363551,1.42108547e-14" id="Fill-333" fill="#EAEBED"></path>
                    <path d="M12.8679146,35.7843545 C12.8420543,35.7843545 12.816194,35.7843545 12.7903337,35.7797444 C12.4347544,35.7359487 12.1826164,35.3901931 12.2257169,35.0121669 L14.3268672,16.1408251 C14.3699677,15.7604939 14.6802914,15.4861944 15.0466458,15.5346002 C15.4000701,15.5783959 15.6522081,15.9241515 15.6112626,16.3021777 L13.5079573,35.1735196 C13.4691668,35.5261903 13.1911685,35.7843545 12.8679146,35.7843545" id="Fill-339" fill="#FFFFFF"></path>
                    <path d="M15.5845129,50.6382375 C15.3269074,50.6382375 15.0905721,50.4967712 14.9653144,50.2751408 C14.4217432,49.5890294 8.57480765,43.866719 4.96833083,40.3725022 C4.68709181,40.1013586 4.68000175,39.6557398 4.95178736,39.3751651 C5.22829967,39.0945903 5.6749734,39.087517 5.95621242,39.3610184 C16.1658978,49.2447948 16.2249816,49.5182962 16.2793387,49.7870821 C16.3596927,50.1690411 16.113904,50.5439267 15.7310408,50.6240909 C15.6837738,50.633522 15.6341433,50.6382375 15.5845129,50.6382375" id="Fill-340" fill="#FFFFFF"></path>
                    <path d="M21.0169434,74.9445915 C20.6888584,74.9445915 20.393818,74.7193576 20.3253686,74.3919557 L6.1256626,7.59035654 C6.0454116,7.21419264 6.29088524,6.84499475 6.67325764,6.76604677 C7.05799037,6.68942079 7.4332818,6.92858673 7.51117247,7.30475062 L21.7108785,74.1063497 C21.7911295,74.4825136 21.5456558,74.8517115 21.1632834,74.9306595 C21.1137166,74.9399475 21.0665101,74.9445915 21.0169434,74.9445915" id="Fill-334" fill="#FFFFFF"></path>
                </g>
                <g id="leaf-1" transform="translate(19.010321, 186.348714)">
                    <path d="M5.38172643,62.7914145 C5.38172643,62.7914145 -10.8405209,29.3275323 13.044461,3.12638804e-13 C13.044461,3.12638804e-13 36.4409347,17.8616165 11.8007711,62.7914145 L5.38172643,62.7914145 Z" id="Fill-335" fill="#D6D7DC"></path>
                    <path d="M8.85508871,63.466591 C8.83152813,63.466591 8.8103236,63.466591 8.78676301,63.4642668 C8.39801335,63.4270792 8.11293027,63.0877426 8.15062721,62.7042457 L13.5247967,6.706728 C13.5624937,6.32323112 13.9041222,6.04664852 14.2952279,6.07918765 C14.6839775,6.114051 14.9690606,6.45571186 14.9337197,6.83920874 L9.55719415,62.8367264 C9.52420934,63.1969811 9.21556567,63.466591 8.85508871,63.466591" id="Fill-336" fill="#FFFFFF"></path>
                </g>
                <g id="pot" transform="translate(11.541980, 248.464952)">
                    <polygon id="Fill-337" fill="#FFFFFF" points="23.5560296 24.9815305 5.64074751 24.9815305 0.678940026 0.6751765 28.5154811 0.6751765"></polygon>
                    <path d="M6.23606083,24.2823633 L22.9595955,24.2823633 L27.6295814,1.37434374 L1.56372346,1.37434374 L6.23606083,24.2823633 Z M23.5380529,25.656707 L5.65760336,25.656707 C5.32134556,25.656707 5.03211682,25.4253591 4.96392468,25.1023884 L0.0141158515,0.822315669 C-0.0282103048,0.620745255 0.0258731171,0.410012548 0.159905945,0.251963018 C0.293938774,0.0916229158 0.493812289,-1.7408297e-13 0.705443071,-1.7408297e-13 L28.4878618,-1.7408297e-13 C28.6994925,-1.7408297e-13 28.8993661,0.0916229158 29.0333989,0.251963018 C29.1674317,0.410012548 29.2215151,0.620745255 29.1815404,0.822315669 L24.2293802,25.1023884 C24.1658909,25.4253591 23.8743107,25.656707 23.5380529,25.656707 L23.5380529,25.656707 Z" id="Fill-338" fill="#AFB0B6"></path>
                    <path d="M2.03682008,5.73900025 L19.0103207,5.73900025 L2.03682008,5.73900025 Z" id="Fill-341" fill="#FFFFFF"></path>
                    <path d="M18.9981191,6.3466591 L2.04902171,6.3466591 C1.6688938,6.3466591 1.35788005,6.07523815 1.35788005,5.73900025 C1.35788005,5.40276235 1.6688938,5.1313414 2.04902171,5.1313414 L18.9981191,5.1313414 C19.3805508,5.1313414 19.6892607,5.40276235 19.6892607,5.73900025 C19.6892607,6.07523815 19.3805508,6.3466591 18.9981191,6.3466591" id="Fill-342" fill="#D6D7DC"></path>
                </g>
                <g id="lg-monitor" transform="translate(27.157601, 84.868336)">
                    <g id="Group" transform="translate(17.652441, 0.203903)">
                        <path d="M249.170989,177.571419 L0.678940026,177.571419 L0.678940026,4.27246828 C0.678940026,2.28583488 2.29520536,0.6751765 4.29163123,0.6751765 L245.558298,0.6751765 C247.552392,0.6751765 249.170989,2.28583488 249.170989,4.27246828 L249.170989,177.571419 Z" id="Fill-343" fill="#FFFFFF"></path>
                        <path d="M1.39914468,176.854425 L248.453117,176.854425 L248.453117,4.29252682 C248.453117,2.69153033 247.144916,1.39217086 245.540564,1.39217086 L4.31169752,1.39217086 C2.70734496,1.39217086 1.39914468,2.69153033 1.39914468,4.29252682 L1.39914468,176.854425 Z M249.849929,178.246596 L4.54747351e-13,178.246596 L4.54747351e-13,4.29252682 C4.54747351e-13,1.92583636 1.93315157,-2.4158453e-13 4.31169752,-2.4158453e-13 L245.540564,-2.4158453e-13 C247.916778,-2.4158453e-13 249.849929,1.92583636 249.849929,4.29252682 L249.849929,178.246596 Z" id="Fill-344" fill="#AFB0B6"></path>
                        <path d="M9.50516036,167.89739 L9.50516036,11.0243825 C9.50516036,10.5285135 9.90936741,10.1276475 10.4117056,10.1276475 L239.44056,10.1276475 C239.940562,10.1276475 240.344769,10.5285135 240.344769,11.0243825 L240.344769,167.89739 C240.344769,168.393259 239.940562,168.794125 239.44056,168.794125 L10.4117056,168.794125 C9.90936741,168.794125 9.50516036,168.393259 9.50516036,167.89739" id="Fill-345" fill="#FFFFFF"></path>
                        <path d="M10.4310622,10.8424109 C10.3189335,10.8424109 10.2278289,10.932757 10.2278289,11.0462687 L10.2278289,167.87782 C10.2278289,167.989015 10.3189335,168.079362 10.4310622,168.079362 L239.418867,168.079362 C239.533332,168.079362 239.624436,167.989015 239.624436,167.87782 L239.624436,11.0462687 C239.624436,10.932757 239.533332,10.8424109 239.418867,10.8424109 L10.4310622,10.8424109 Z M239.418867,169.469301 L10.4310622,169.469301 C9.54571275,169.469301 8.82622033,168.755799 8.82622033,167.87782 L8.82622033,11.0462687 C8.82622033,10.16829 9.54571275,9.452471 10.4310622,9.452471 L239.418867,9.452471 C240.304217,9.452471 241.023709,10.16829 241.023709,11.0462687 L241.023709,167.87782 C241.023709,168.755799 240.304217,169.469301 239.418867,169.469301 L239.418867,169.469301 Z" id="Fill-346" fill="#AFB0B6"></path>
                    </g>
                    <path d="M274.225691,188.578147 L10.9301479,188.578147 C8.81757171,188.578147 6.80992482,187.631827 5.4388489,185.991857 L1.11576258,180.821662 C0.113105023,179.622672 0.947875736,177.775323 2.48917027,177.775323 L282.666669,177.775323 C284.207964,177.775323 285.040403,179.622672 284.040077,180.821662 L279.71699,185.991857 C278.345915,187.631827 276.338268,188.578147 274.225691,188.578147" id="Fill-347" fill="#FFFFFF"></path>
                    <path d="M2.51022539,178.521017 C2.06725907,178.521017 1.68957199,178.767301 1.50539126,179.174617 C1.31887913,179.584301 1.38182697,180.034243 1.66858938,180.375252 L5.9910081,185.50933 C7.2313138,186.987035 9.0381501,187.834821 10.9498995,187.834821 L274.204784,187.834821 C276.114202,187.834821 277.923369,186.987035 279.163675,185.50933 L283.486094,180.375252 C283.775187,180.034243 283.835804,179.584301 283.649292,179.174617 C283.465111,178.767301 283.089755,178.521017 282.644458,178.521017 L2.51022539,178.521017 Z M274.204784,189.253323 L10.9498995,189.253323 C8.62782341,189.253323 6.43397442,188.227929 4.92788893,186.432896 L0.60547021,181.301186 C-0.0379966549,180.536284 -0.180212158,179.494313 0.234777342,178.580219 C0.649766842,177.668494 1.52171107,177.100146 2.51022539,177.100146 L282.644458,177.100146 C283.632972,177.100146 284.504916,177.668494 284.919906,178.580219 C285.334895,179.494313 285.19268,180.536284 284.551544,181.301186 L280.226794,186.435264 C278.72304,188.227929 276.524528,189.253323 274.204784,189.253323 L274.204784,189.253323 Z" id="Fill-348" fill="#88898E" opacity="0.5"></path>
                    <path d="M257.31827,19.1088453 L27.836541,19.1088453 L27.836541,11.1127994 C27.836541,10.6807622 28.1984002,10.3315508 28.6489732,10.3315508 L257.31827,10.3315508 L257.31827,19.1088453 Z" id="Fill-349" fill="#F0F1F7"></path>
                    <path d="M157.074947,183.176735 L127.403245,183.176735 C126.409545,183.176735 125.603905,182.419926 125.603905,181.488638 L125.603905,178.450499 L158.871966,178.450499 L158.871966,181.488638 C158.871966,182.419926 158.068648,183.176735 157.074947,183.176735" id="Fill-350" fill="#FFFFFF"></path>
                    <path d="M126.316496,178.564208 L126.316496,181.231241 C126.316496,181.868108 126.81049,182.387849 127.418125,182.387849 L157.057745,182.387849 C157.665381,182.387849 158.159375,181.868108 158.159375,181.231241 L158.159375,178.564208 L126.316496,178.564208 Z M157.057745,183.851911 L127.418125,183.851911 C126.042828,183.851911 124.924965,182.678222 124.924965,181.231241 L124.924965,177.100146 L159.550906,177.100146 L159.550906,181.231241 C159.550906,182.678222 158.433042,183.851911 157.057745,183.851911 L157.057745,183.851911 Z" id="Fill-351" fill="#AFB0B6"></path>
                    <path d="M243.739469,14.7201981 C243.739469,15.6531856 242.980307,16.4081393 242.042119,16.4081393 C241.103931,16.4081393 240.344769,15.6531856 240.344769,14.7201981 C240.344769,13.7872105 241.103931,13.0322568 242.042119,13.0322568 C242.980307,13.0322568 243.739469,13.7872105 243.739469,14.7201981" id="Fill-352" fill="#FFFFFF"></path>
                    <path d="M249.849929,14.7201981 C249.849929,15.6531856 249.091274,16.4081393 248.153712,16.4081393 C247.216149,16.4081393 246.455229,15.6531856 246.455229,14.7201981 C246.455229,13.7872105 247.216149,13.0322568 248.153712,13.0322568 C249.091274,13.0322568 249.849929,13.7872105 249.849929,14.7201981" id="Fill-353" fill="#FFFFFF"></path>
                </g>
                <g id="boxes" transform="translate(141.898465, 127.608358)">
                    <polygon id="Fill-354" fill="#F0F1F7" points="-6.25277607e-13 47.262355 47.5258018 47.262355 47.5258018 2.84217094e-13 -6.25277607e-13 2.84217094e-13"></polygon>
                    <polygon id="Fill-367" fill="#F0F1F7" points="-6.25277607e-13 102.626828 47.5258018 102.626828 47.5258018 55.364473 -6.25277607e-13 55.364473"></polygon>
                    <polygon id="Fill-355" fill="#F0F1F7" points="50.9205019 47.262355 131.035425 47.262355 131.035425 2.84217094e-13 50.9205019 2.84217094e-13"></polygon>
                    <polygon id="Fill-356" fill="#F0F1F7" points="50.9205019 102.626828 131.035425 102.626828 131.035425 55.364473 50.9205019 55.364473"></polygon>
                    <polygon id="Fill-365" fill="#FFFFFF" points="14.2577405 41.860943 42.7732216 41.860943 42.7732216 36.459531 14.2577405 36.459531"></polygon>
                    <polygon id="Fill-366" fill="#FFFFFF" points="63.8203624 66.8424735 92.3358435 66.8424735 92.3358435 61.4410615 63.8203624 61.4410615"></polygon>
                </g>
                <g id="blue-lines" transform="translate(70.609763, 127.608358)" fill="#F0F1F7" fill-opacity="0.75">
                    <polygon id="Fill-357" points="-7.38964445e-13 4.7262355 56.3520221 4.7262355 56.3520221 2.84217094e-14 -7.38964445e-13 2.84217094e-14"></polygon>
                    <polygon id="Fill-358" points="-7.38964445e-13 18.2297655 56.3520221 18.2297655 56.3520221 13.50353 -7.38964445e-13 13.50353"></polygon>
                    <polygon id="Fill-359" points="-7.38964445e-13 32.408472 56.3520221 32.408472 56.3520221 27.6822365 -7.38964445e-13 27.6822365"></polygon>
                    <polygon id="Fill-360" points="-7.38964445e-13 45.912002 56.3520221 45.912002 56.3520221 41.1857665 -7.38964445e-13 41.1857665"></polygon>
                    <polygon id="Fill-361" points="-7.38964445e-13 59.415532 56.3520221 59.415532 56.3520221 54.6892965 -7.38964445e-13 54.6892965"></polygon>
                    <polygon id="Fill-362" points="-7.38964445e-13 73.5942385 56.3520221 73.5942385 56.3520221 68.868003 -7.38964445e-13 68.868003"></polygon>
                    <polygon id="Fill-363" points="-7.38964445e-13 87.0977685 56.3520221 87.0977685 56.3520221 82.371533 -7.38964445e-13 82.371533"></polygon>
                    <polygon id="Fill-364" points="-7.38964445e-13 100.601298 56.3520221 100.601298 56.3520221 95.875063 -7.38964445e-13 95.875063"></polygon>
                </g>
                <g id="green-code" transform="translate(21.047141, 132.334594)">
                    <path d="M45.6535073,30.3829425 L5.26699466,30.3829425 C2.35591878,30.3829425 -5.68434189e-13,28.0140711 -5.68434189e-13,25.0922288 L-5.68434189e-13,5.29305677 C-5.68434189e-13,2.36887136 2.35591878,-1.42108547e-13 5.26699466,-1.42108547e-13 L45.6535073,-1.42108547e-13 C48.5622505,-1.42108547e-13 50.9205019,2.36887136 50.9205019,5.29305677 L50.9205019,25.0922288 C50.9205019,28.0140711 48.5622505,30.3829425 45.6535073,30.3829425" id="Fill-368" fill="#AFB0B6"></path>
                    <path d="M11.5419804,14.712299 L19.0103207,10.802824 L19.0103207,12.4698203 C19.0103207,12.5934777 18.9795673,12.710001 18.9180606,12.8146341 C18.8541882,12.9192673 18.7500998,13.0072542 18.6057955,13.0833511 L15.1874389,14.8454684 C15.0431346,14.9215653 14.8917333,14.985772 14.7308695,15.0404666 C14.5700056,15.0927832 14.3996792,15.1427217 14.2175246,15.1855262 C14.56764,15.2663791 14.8917333,15.3805243 15.1874389,15.5279619 L18.6057955,17.2972134 C18.7500998,17.3661762 18.8541882,17.4541631 18.9180606,17.5611743 C18.9795673,17.6705635 19.0103207,17.7870868 19.0103207,17.9131222 L19.0103207,19.5801185 L11.5419804,15.6587534 L11.5419804,14.712299 Z" id="Fill-369" fill="#FFFFFF"></path>
                    <path d="M23.2062453,21.417062 C23.1027739,21.7049828 22.9372195,21.9221035 22.7072829,22.0660639 C22.4796457,22.2100243 22.2451104,22.2808245 22.0082757,22.2808245 L21.0471408,22.2808245 L26.3931664,8.24350386 C26.4897398,7.9815431 26.6391985,7.78094252 26.8415427,7.63698211 C27.0415876,7.4977417 27.2784222,7.4269415 27.5451487,7.4269415 L28.5154811,7.4269415 L23.2062453,21.417062 Z" id="Fill-370" fill="#FFFFFF"></path>
                    <path d="M38.6995815,15.6600694 L31.2312412,19.5801185 L31.2312412,17.9126704 C31.2312412,17.7889795 31.2619946,17.6724247 31.325867,17.5630058 C31.3873737,17.4559657 31.4914621,17.3679548 31.6357664,17.2965947 L35.054123,15.5268638 C35.3309034,15.3889009 35.6549967,15.2747247 36.026403,15.1867139 C35.8418827,15.1415192 35.6715563,15.0939458 35.5106924,15.0392363 C35.3521942,14.9869056 35.200793,14.9203028 35.054123,14.8441853 L31.6357664,13.0839691 C31.4914621,13.0078516 31.3873737,12.9198408 31.325867,12.8151793 C31.2619946,12.7105178 31.2312412,12.593963 31.2312412,12.4678934 L31.2312412,10.802824 L38.6995815,14.7133585 L38.6995815,15.6600694 Z" id="Fill-371" fill="#FFFFFF"></path>
                </g>
                <g id="Code-Badge" transform="translate(257.318270, 30.382942)">
                    <path d="M57.1569145,24.9815305 L5.30324284,24.9815305 C2.37611319,24.9815305 1.13686838e-13,22.6097486 1.13686838e-13,19.6804469 L1.13686838e-13,5.29876056 C1.13686838e-13,2.37178191 2.37611319,8.17124146e-14 5.30324284,8.17124146e-14 L57.1569145,8.17124146e-14 C60.0863692,8.17124146e-14 62.4624824,2.37178191 62.4624824,5.29876056 L62.4624824,19.6804469 C62.4624824,22.6097486 60.0863692,24.9815305 57.1569145,24.9815305" id="code-bkgd" fill="#88898E"></path>
                    <path d="M12.2209205,11.1844931 L16.9735006,8.7772945 L16.9735006,9.80237999 C16.9735006,9.88123272 16.9554643,9.95351439 16.9148825,10.0170346 C16.8743007,10.0805549 16.8089189,10.1353137 16.7164825,10.1835015 L14.5408469,11.2655362 C14.4484106,11.313724 14.3514652,11.3531503 14.2500107,11.3860056 C14.1463016,11.4166706 14.040338,11.4495259 13.9231017,11.4758101 C14.1463016,11.5261883 14.3514652,11.5962796 14.5408469,11.6860841 L16.7164825,12.7768802 C16.8089189,12.8184969 16.8743007,12.8732557 16.9148825,12.9389664 C16.9554643,13.004677 16.9735006,13.0747683 16.9735006,13.153621 L16.9735006,14.1787065 L12.2209205,11.7671272 L12.2209205,11.1844931 Z" id="Fill-373" fill="#FFFFFF"></path>
                    <path d="M23.2910051,10.9392524 C23.2438156,10.9993001 23.2013449,11.0473383 23.1565148,11.080965 C23.1140442,11.1145917 23.0479788,11.1314051 22.9653971,11.1314051 C22.8851748,11.1314051 22.8096715,11.107386 22.7341681,11.0593478 C22.6563053,11.0089078 22.5666451,10.9536639 22.4628281,10.8912142 C22.3566515,10.8311665 22.2339586,10.7759226 22.0900304,10.7254825 C21.9461022,10.6774444 21.7667818,10.6534253 21.5544287,10.6534253 C21.2807292,10.6534253 21.0424218,10.7014635 20.8371472,10.8023436 C20.6318725,10.9032238 20.46199,11.0473383 20.3251403,11.2346872 C20.19065,11.422036 20.0891924,11.6478154 20.0207675,11.9144273 C19.9547021,12.1810391 19.9216694,12.4836796 19.9216694,12.8175449 C19.9216694,13.1682236 19.9570616,13.4804717 20.0302054,13.7518873 C20.1033493,14.023303 20.2095258,14.2538862 20.3487351,14.4388332 C20.4879443,14.6237802 20.6531078,14.7654928 20.8513041,14.8615691 C21.0471408,14.9552435 21.2689318,15.0032817 21.5143176,15.0032817 C21.7644223,15.0032817 21.9626186,14.9744588 22.1159847,14.9096073 C22.2669913,14.8495596 22.3967627,14.7823061 22.5005797,14.705445 C22.6043968,14.6309859 22.6964165,14.5637324 22.7742793,14.5012828 C22.8497826,14.4412351 22.9394428,14.4076084 23.0361814,14.4076084 C23.1588743,14.4076084 23.2532535,14.4580485 23.3169594,14.5565267 L23.7629009,15.1305829 C23.5906589,15.3347451 23.4042601,15.5076825 23.2037044,15.6469932 C23.0031487,15.7863039 22.7955146,15.8943898 22.5784425,15.9784566 C22.36373,16.0625234 22.141939,16.1201692 21.9130695,16.1537959 C21.6842001,16.1898245 21.4600496,16.204236 21.2335396,16.204236 C20.8347877,16.204236 20.46199,16.1297768 20.1080682,15.9784566 C19.7588654,15.8271364 19.4497736,15.6061608 19.1878715,15.3155298 C18.9236099,15.0273008 18.7159757,14.6742202 18.5626096,14.2538862 C18.411603,13.8335522 18.3313807,13.3555724 18.3313807,12.8175449 C18.3313807,12.3371632 18.4021651,11.8904082 18.5366553,11.4820837 C18.6735051,11.0689555 18.8740608,10.713473 19.135963,10.4132344 C19.4025841,10.1129959 19.7258327,9.87760882 20.1151467,9.70707331 C20.5044607,9.5365378 20.9527616,9.452471 21.4600496,9.452471 C21.9413833,9.452471 22.3613705,9.52933207 22.7247302,9.68785804 C23.0857305,9.84638401 23.4113386,10.0721634 23.699195,10.3651963 L23.2910051,10.9392524 Z" id="Fill-374" fill="#FFFFFF"></path>
                    <path d="M27.5061236,14.9893025 C28.0198549,14.9893025 28.4000613,14.8068223 28.6467428,14.439461 C28.8934244,14.0745007 29.0178967,13.5390656 29.0178967,12.8331556 C29.0178967,12.1248446 28.8934244,11.5870084 28.6467428,11.217246 C28.4000613,10.8450826 28.0198549,10.6602014 27.5061236,10.6602014 C26.9856029,10.6602014 26.5986071,10.8450826 26.3473993,11.219647 C26.0961915,11.5918105 25.969456,12.1296467 25.969456,12.8331556 C25.969456,13.5342635 26.0961915,14.0696986 26.3473993,14.439461 C26.5986071,14.8068223 26.9856029,14.9893025 27.5061236,14.9893025 M27.5061236,9.452471 C27.9632765,9.452471 28.3796931,9.53170579 28.7553732,9.69017539 C29.1310534,9.84624392 29.4501552,10.069542 29.7194681,10.3600696 C29.9865178,10.6481961 30.1924629,11.0035521 30.3350403,11.4213356 C30.4776177,11.8391191 30.5523012,12.3049236 30.5523012,12.8187493 C30.5523012,13.3397781 30.4776177,13.8079837 30.3350403,14.2233661 C30.1924629,14.6387485 29.9865178,14.9965056 29.7194681,15.2894343 C29.4501552,15.584764 29.1310534,15.8104631 28.7553732,15.9665316 C28.3796931,16.1250012 27.9632765,16.204236 27.5061236,16.204236 C27.0444444,16.204236 26.6235015,16.1250012 26.2478214,15.9665316 C25.8698781,15.8104631 25.5485132,15.584764 25.2814634,15.2894343 C25.0144137,14.9965056 24.8084685,14.6387485 24.6613649,14.2233661 C24.5165243,13.8079837 24.4418409,13.3397781 24.4418409,12.8187493 C24.4418409,12.3049236 24.5165243,11.8391191 24.6613649,11.4213356 C24.8084685,11.0035521 25.0144137,10.6481961 25.2814634,10.3600696 C25.5485132,10.069542 25.8698781,9.84624392 26.2478214,9.69017539 C26.6235015,9.53170579 27.0444444,9.452471 27.5061236,9.452471" id="Fill-375" fill="#FFFFFF"></path>
                    <path d="M34.2353479,14.9705843 C34.5688671,14.9705843 34.8512628,14.9042845 35.0849697,14.7693168 C35.3162421,14.6343492 35.5353422,14.442553 35.7422702,14.1962963 L35.7422702,11.2980436 C35.5621212,11.082569 35.364931,10.9333942 35.1506997,10.8457836 C34.9364685,10.758173 34.7076305,10.7131838 34.4617514,10.7131838 C34.2183068,10.7131838 34.0016411,10.758173 33.8068854,10.8457836 C33.6121297,10.9333942 33.4465873,11.0683619 33.3078239,11.2459509 C33.1714949,11.4235399 33.0668137,11.6508538 32.9913459,11.9255248 C32.9183125,12.2001958 32.8793613,12.5245917 32.8793613,12.8987126 C32.8793613,13.2752013 32.9134436,13.5972293 32.9743047,13.8576932 C33.0376003,14.1228928 33.1276748,14.3336318 33.2445283,14.5017494 C33.3613817,14.6674991 33.5025796,14.7882596 33.6729908,14.8592952 C33.8409676,14.9326987 34.02842,14.9705843 34.2353479,14.9705843 L34.2353479,14.9705843 Z M36.3654884,16.1095219 C36.1536916,16.1095219 36.0197971,16.0148077 35.9638048,15.8253794 L35.8274758,15.2050018 C35.6911468,15.3541766 35.54508,15.4915121 35.3941444,15.6122726 C35.2432087,15.735401 35.0801008,15.8395866 34.9048207,15.9271971 C34.7295405,16.0148077 34.5420882,16.0858433 34.3424636,16.1332004 C34.1404045,16.1805575 33.9237388,16.204236 33.6900319,16.204236 C33.3272994,16.204236 32.9962147,16.1308325 32.6943434,15.9863935 C32.3900376,15.8372187 32.1319863,15.6241119 31.9128861,15.3447052 C31.6962204,15.0652985 31.5282436,14.7219597 31.4089558,14.3099532 C31.2896679,13.8979467 31.2312412,13.4291117 31.2312412,12.8987126 C31.2312412,12.4204062 31.2969712,11.9728819 31.4308658,11.5632432 C31.5647603,11.1536046 31.7546471,10.7936909 32.0078295,10.4906056 C32.2585775,10.1898882 32.5580144,9.95547073 32.9061402,9.78498528 C33.2567005,9.61213198 33.6510808,9.5292571 34.0844122,9.5292571 C34.4568825,9.5292571 34.775795,9.58845344 35.0362808,9.70211041 C35.299201,9.81813523 35.5353422,9.9720457 35.7422702,10.1662097 L35.7422702,6.751765 L37.3417014,6.751765 L37.3417014,16.1095219 L36.3654884,16.1095219 Z" id="Fill-376" fill="#FFFFFF"></path>
                    <path d="M41.9395692,10.5833676 C41.4721691,10.5833676 41.105101,10.7130246 40.840812,10.9723384 C40.5740759,11.2340534 40.4052245,11.6014147 40.3318109,12.0768235 L43.3662405,12.0768235 C43.3662405,11.8727338 43.3344279,11.6806495 43.2781442,11.5005704 C43.2169662,11.3204913 43.1313169,11.1596207 43.0138551,11.0251616 C42.8988405,10.8883015 42.747119,10.7802541 42.5684792,10.7010193 C42.3898394,10.6241856 42.179387,10.5833676 41.9395692,10.5833676 M41.9077566,9.452471 C42.3286614,9.452471 42.7153064,9.51970052 43.072586,9.64935746 C43.4274185,9.78381651 43.7333086,9.97590086 43.9902563,10.2304126 C44.2447568,10.4825233 44.4454207,10.7922594 44.592248,11.1596207 C44.7390752,11.5317841 44.8100417,11.9495676 44.8100417,12.4225753 C44.8100417,12.6602797 44.7831234,12.8235514 44.7341809,12.9051872 C44.6803443,12.9868231 44.5800123,13.0300421 44.4331851,13.0300421 L40.2999984,13.0300421 C40.3269167,13.3661897 40.3856476,13.6567173 40.4810853,13.9016248 C40.576523,14.1441313 40.7037733,14.3482209 40.860389,14.5090916 C41.0145576,14.6675612 41.2005387,14.7876139 41.4158854,14.8644476 C41.631232,14.9436824 41.8686027,14.9845004 42.1279975,14.9845004 C42.3898394,14.9845004 42.6125274,14.9532867 42.8034028,14.8932603 C42.9918311,14.835635 43.1557881,14.7684055 43.2977211,14.6963738 C43.437207,14.6243422 43.5620102,14.5571127 43.6672364,14.4994874 C43.7749097,14.43706 43.8776887,14.4082473 43.9780207,14.4082473 C44.1126123,14.4082473 44.2129443,14.4562684 44.2765694,14.5547116 L44.7390752,15.1309647 C44.5604354,15.3350543 44.3597715,15.5079302 44.1395306,15.6447903 C43.9192898,15.7840515 43.6892604,15.8945 43.4469955,15.9761358 C43.2071777,16.0601727 42.9600185,16.1201991 42.7104122,16.1514128 C42.463253,16.1874286 42.2185409,16.204236 41.9860645,16.204236 C41.5211116,16.204236 41.0879712,16.1298033 40.6890905,15.9761358 C40.2902099,15.8272705 39.9451659,15.6015713 39.6466171,15.3062416 C39.3529627,15.010912 39.1229333,14.6435506 38.9516349,14.2089598 C38.7827836,13.7719679 38.6995815,13.2653454 38.6995815,12.6914934 C38.6995815,12.2424962 38.7729951,11.8247128 38.9198223,11.4309398 C39.0666496,11.0347659 39.279549,10.6938161 39.5536266,10.4008875 C39.8301512,10.1103599 40.1654067,9.87745763 40.5642874,9.70938382 C40.9607209,9.5365079 41.408544,9.452471 41.9077566,9.452471" id="Fill-377" fill="#FFFFFF"></path>
                    <path d="M50.9205019,11.7649368 L46.1679217,14.1787065 L46.1679217,13.153621 C46.1679217,13.0747683 46.1859495,13.0024866 46.2287656,12.936776 C46.2693281,12.8710654 46.3346789,12.8163066 46.424818,12.7746898 L48.6016755,11.6838937 C48.7774466,11.5984699 48.9847663,11.530569 49.2191278,11.4736198 C49.1019471,11.4473355 48.9960337,11.4166706 48.8923738,11.3838153 C48.7909674,11.3531503 48.694068,11.3115336 48.6016755,11.2633458 L46.424818,10.1813112 C46.3346789,10.1353137 46.2693281,10.0783645 46.2287656,10.0148443 C46.1859495,9.95132403 46.1679217,9.88123272 46.1679217,9.80237999 L46.1679217,8.7772945 L50.9205019,11.1823028 L50.9205019,11.7649368 Z" id="Fill-378" fill="#FFFFFF"></path>
                </g>
                <g id="laptop" transform="translate(189.424267, 143.812594)">
                    <path d="M42.2427162,0.6751765 C43.6010706,0.6751765 44.8025116,1.54463642 45.2123599,2.82448142 L51.87594,23.6311765 L63.5364229,23.6311775 C65.5644811,23.6311775 67.2150625,25.1584484 67.2150625,27.032334 C67.2150625,27.3919467 66.9008894,27.6822365 66.5116898,27.6822365 L7.80350899,27.6822365 C7.49871412,27.6822365 7.23143246,27.5024301 7.13530485,27.2381364 L6.14589382,24.4868825 C6.07555654,24.287579 6.11046023,24.0709449 6.24436601,23.8998039 C6.37566226,23.7308292 6.58901867,23.6311775 6.81409795,23.6311775 L6.89294003,23.6311765 L0.826958834,4.69092205 C0.189937459,2.70159775 1.68881128,0.6751765 3.79426061,0.6751765 L42.2427162,0.6751765 Z" id="Fill-423" fill="#FFFFFF"></path>
                    <path d="M8.50729451,26.2931471 L51.9769522,26.2931471 L44.5268828,3.05136637 C44.2086637,2.0558523 43.2844246,1.38677425 42.2314939,1.38677425 L3.81824327,1.38677425 C3.04141442,1.38677425 2.3324411,1.74330719 1.8738313,2.36376712 C1.4152215,2.98422705 1.28652997,3.76211711 1.52051456,4.49370419 L8.50729451,26.2931471 Z M52.9339492,27.6822365 L7.99252841,27.6822365 C7.68600859,27.6822365 7.41692631,27.4854488 7.32333247,27.1983704 L0.18212269,4.91506131 C-0.189912812,3.75285652 0.0136537835,2.5235124 0.741345868,1.54420438 C1.46669811,0.562581205 2.58748431,-2.84217094e-14 3.81824327,-2.84217094e-14 L42.2314939,-2.84217094e-14 C43.8998041,-2.84217094e-14 45.3598679,1.05802309 45.8652746,2.63000925 L53.6031451,26.7770132 C53.6710007,26.9900069 53.6335631,27.2168916 53.5001919,27.3974732 C53.3691605,27.5757396 53.1585744,27.6822365 52.9339492,27.6822365 L52.9339492,27.6822365 Z" id="Fill-387" fill="#D6D7DC"></path>
                    <path d="M47.7615623,24.9815305 L12.2367241,24.9815305 C11.7521886,24.9815305 11.323561,24.6708427 11.1721437,24.2106511 L4.81028575,4.85223341 C4.5703475,4.12573794 5.10846144,3.3758825 5.87253665,3.3758825 L41.3973749,3.3758825 C41.8819104,3.3758825 42.3105379,3.68890627 42.4619553,4.14909793 L48.8261427,23.5075156 C49.0660809,24.2340111 48.5256375,24.9815305 47.7615623,24.9815305" id="Fill-388" fill="#D6D7DC"></path>
                </g>
                <g id="gray-pants" transform="translate(220.655508, 176.896243)">
                    <path d="M44.0674254,91.6797482 L44.8100417,95.1998865 L21.7260808,95.1708866 L21.7260808,94.8808879 C21.7260808,94.1179682 22.2312462,93.4375866 22.9831743,93.1899723 L35.2794108,89.123298 L37.1557392,91.2313656 C37.1557392,91.2313656 40.056366,93.2524336 44.0674254,91.6797482" id="Fill-392" fill="#88898E"></path>
                    <polygon id="Fill-393" fill="#88898E" points="21.7260808 95.6222094 21.7260808 96.8030931 45.4889817 96.7808123 45.186149 95.6485413"></polygon>
                    <path d="M23.0203594,91.6797482 L23.7629009,95.1998865 L0.678940026,95.1708866 L0.678940026,94.8808879 C0.678940026,94.1179682 1.18638214,93.4375866 1.93823445,93.1899723 L14.2332311,89.123298 L16.1093703,91.2313656 C16.1093703,91.2313656 19.0097046,93.2524336 23.0203594,91.6797482" id="Fill-396" fill="#88898E"></path>
                    <polygon id="Fill-397" fill="#88898E" points="5.68434189e-13 95.6222094 5.68434189e-13 96.8030931 23.7629009 96.7808123 23.4600984 95.6485413"></polygon>
                    <path d="M41.6392042,-7.81597009e-14 L41.6392042,2.97397684 L14.1049409,7.8400623 C9.61335446,8.63405143 5.70651296,11.3642597 3.42577484,15.2993813 C1.61562824,18.4265841 0.965652826,22.0877562 1.58767231,25.6421345 L12.4788375,87.772945 L24.2459552,87.772945 L22.0281179,24.7251002 L22.8807739,20.1376075 L50.3358287,20.1376075 L55.6730821,-7.81597009e-14 L41.6392042,-7.81597009e-14 Z" id="Fill-407" fill="#88898E"></path>
                    <polygon id="Fill-420" fill="#88898E" points="23.1910381 46.3235822 32.9127062 87.0977685 45.4889817 87.0977685 38.4265934 24.306354 22.4050208 24.306354"></polygon>
                    <path d="M28.6036322,88.3985174 C28.6138348,88.7047871 28.692905,89.2173201 29.0755029,89.5152559 C29.4581007,89.8152753 30.0830106,89.8361099 30.4630578,89.8465273 C30.4554059,89.5381741 30.373785,89.029808 29.9911871,88.7297887 C29.6111399,88.4318528 28.9913314,88.4089347 28.6036322,88.3985174 L28.6036322,88.3985174 Z M30.4043928,90.473651 C29.8917117,90.473651 29.0959081,90.3944792 28.5475178,89.9673684 C27.7007012,89.3089927 27.8435377,88.1234996 27.8486391,88.0755799 C27.8664936,87.9339041 27.9991275,87.8213969 28.1725719,87.7984787 C28.2312369,87.7922283 29.6723556,87.617217 30.5191722,88.2776762 C31.3659888,88.9381354 31.2257029,90.121545 31.2180509,90.1715482 C31.2001964,90.3111405 31.0675624,90.4257312 30.8966687,90.4465659 C30.8762635,90.4486494 30.6798633,90.473651 30.4043928,90.473651 L30.4043928,90.473651 Z" id="Fill-394" fill="#AFB0B6"></path>
                    <path d="M7.55649139,88.3985174 C7.566694,88.7047871 7.64576422,89.2173201 8.02836209,89.5152559 C8.4084093,89.8152753 9.03842046,89.8361099 9.41591702,89.8465273 C9.40826506,89.5381741 9.32664418,89.029808 8.94404632,88.7297887 C8.56144845,88.4318528 7.93908925,88.4089347 7.55649139,88.3985174 L7.55649139,88.3985174 Z M9.35725201,90.473651 C8.84457087,90.473651 8.04876731,90.3944792 7.50037703,89.9673684 C6.65356042,89.3089927 6.79639696,88.1234996 6.80149826,88.0755799 C6.81935283,87.9339041 6.95198676,87.8213969 7.12543112,87.7984787 C7.18409613,87.7922283 8.62521476,87.617217 9.47203137,88.2776762 C10.318848,88.9381354 10.1785621,90.121545 10.1709101,90.1715482 C10.1530556,90.3111405 10.0204216,90.4257312 9.84952793,90.4465659 C9.82912271,90.4486494 9.63272248,90.473651 9.35725201,90.473651 L9.35725201,90.473651 Z" id="Fill-398" fill="#AFB0B6"></path>
                </g>
                <g id="desk" transform="translate(163.624546, 170.144478)">
                    <path d="M132.507055,7.4269415 L3.28094967,7.4269415 C1.46932523,7.4269415 -2.4158453e-13,5.91456531 -2.4158453e-13,4.0498606 C-2.4158453e-13,2.18515589 1.46932523,0.6751765 3.28094967,0.6751765 L132.507055,0.6751765 C134.31868,0.6751765 135.788005,2.18515589 135.788005,4.0498606 C135.788005,5.91456531 134.31868,7.4269415 132.507055,7.4269415" id="Fill-399" fill="#FFFFFF"></path>
                    <path d="M3.97612024,1.42267217 C2.55374936,1.42267217 1.39443561,2.60349007 1.39443561,4.05224456 C1.39443561,5.50337017 2.55374936,6.68181695 3.97612024,6.68181695 L133.169765,6.68181695 C134.592136,6.68181695 135.749122,5.50337017 135.749122,4.05224456 C135.749122,2.60349007 134.592136,1.42267217 133.169765,1.42267217 L3.97612024,1.42267217 Z M133.169765,8.102118 L3.97612024,8.102118 C1.78320147,8.102118 1.56319402e-13,6.28821098 1.56319402e-13,4.05224456 C1.56319402e-13,1.81864926 1.78320147,1.11022302e-13 3.97612024,1.11022302e-13 L133.169765,1.11022302e-13 C135.362684,1.11022302e-13 137.145885,1.81864926 137.145885,4.05224456 C137.145885,6.28821098 135.362684,8.102118 133.169765,8.102118 L133.169765,8.102118 Z" id="Fill-400" fill="#D6D7DC"></path>
                </g>
                <g id="Skin" transform="translate(211.166643, 98.575769)">
                    <polygon id="Fill-391" fill="#FFCEC8" points="53.6199675 170.298714 52.7993043 165.418242 44.7937471 165.418242 44.7937471 167.506392 44.7937471 170.298714 47.9033824 172.170007 50.6599688 172.170007"></polygon>
                    <polygon id="Fill-395" fill="#FFCEC8" points="32.5728267 170.298714 31.7521635 165.418242 23.7466063 165.418242 23.7466063 167.506392 23.7466063 170.298714 26.8562416 172.170007 29.612828 172.170007"></polygon>
                    <path d="M58.491778,0.938504261 L57.0146676,14.8176282 C57.0146676,14.8176282 56.9296467,18.4502467 63.3105158,18.4082241 L63.984052,22.956001 L76.0249883,22.4353879 L74.6542831,14.6075153 L73.4915469,0 L58.491778,0.938504261 Z" id="Fill-401" fill="#FFCEC8"></path>
                    <path d="M9.46891391,40.51059 L8.55634863,39.1583301 L5.96844254,36.4167621 L4.15483427,36.2176279 C3.92438849,36.1944728 3.70776946,36.0972212 3.53493513,35.9420818 L1.56692818,34.1938691 C1.34339578,34.0618849 1.30191554,33.7724457 1.43326963,33.6149907 C1.54157915,33.4830065 1.76972047,33.4482738 1.94716372,33.5686805 L2.6085431,33.9762109 L1.0691653,32.0589657 C0.997727112,31.9663451 0.990813739,31.8366764 1.05533856,31.7394248 C1.11525446,31.6514353 1.22356397,31.605125 1.33187349,31.6282801 C1.12447229,31.3550496 0.919375548,31.081819 0.711974348,30.8109039 C0.62670941,30.6557645 0.654362903,30.4658924 0.776499165,30.3478012 C0.889417597,30.238972 1.06225193,30.2158169 1.20512831,30.2852823 C2.06699552,30.9776209 2.92886273,31.6676439 3.78842548,32.3576669 L5.23562497,32.6656302 L3.62711344,31.595863 L1.53466578,29.715666 C1.46092313,29.629992 1.44018301,29.5142163 1.48166325,29.4169647 C1.53236132,29.2942425 1.67293324,29.2201461 1.81811408,29.2502478 C3.74464079,30.139405 5.66886303,31.0331932 7.59538974,31.9246659 L9.53343873,32.9272832 L9.71318644,32.6308975 L9.10250513,31.3666271 C8.9020173,30.9544657 8.80523007,30.4983096 8.82366573,30.0398379 C8.84440585,29.4956922 9.27533946,29.0580601 9.81688704,29.0325895 L10.284692,30.8641607 C10.284692,30.8641607 11.2963489,32.8555023 11.3355247,32.9272832 C11.3747005,32.9967486 12.8887293,36.0740661 12.8887293,36.0740661 L14.241446,38.0376216 L9.46891391,40.51059 Z" id="Fill-383" fill="#FFCEC8"></path>
                    <path d="M5.18571267,35.109178 C5.15575506,35.109178 5.12810189,35.1045157 5.09814428,35.0928599 L2.8305837,34.1510706 C2.80293052,34.1394148 2.77988621,34.1230966 2.75914632,34.1021162 L0.733551049,32.136947 C0.64137379,32.0483628 0.639069358,31.8991685 0.726637755,31.805922 C0.811901719,31.7126756 0.959385334,31.7080132 1.05386703,31.7989285 L3.04720026,33.7361238 L5.27328107,34.661595 C5.39080708,34.7105494 5.44611343,34.8480879 5.39772037,34.964646 C5.3631539,35.0555613 5.27788993,35.109178 5.18571267,35.109178" id="Fill-384" fill="#FFABA1"></path>
                    <path d="M5.15938162,35.6028509 C5.1259871,35.6028509 5.0951614,35.5987998 5.06176688,35.5886722 L3.22506834,34.9931665 C3.20194906,34.9850644 3.18139858,34.9749367 3.16341692,34.9648091 L2.11534279,34.2984099 C2.004884,34.2275163 1.98947114,34.1019335 2.07681065,34.0148357 C2.16671897,33.9297635 2.32855395,33.9155848 2.43901274,33.9824273 L3.45369235,34.6305967 L5.25699637,35.2139492 C5.38800564,35.2564853 5.44965706,35.3759916 5.39571206,35.477268 C5.35717993,35.5582892 5.25956518,35.6028509 5.15938162,35.6028509" id="Fill-385" fill="#FFABA1"></path>
                </g>
                <g id="black-hair" transform="translate(268.860250, 91.824004)" fill="#000000">
                    <path d="M8.55902249,14.4008685 C8.55902249,14.4008685 11.6502034,13.2376485 12.1135348,16.0289141 C12.5768662,18.8201797 9.48568523,18.8201797 8.09569112,18.8201797 C8.09569112,18.8201797 6.21009379,22.8509799 10.1288168,23.8592582 C14.0452348,24.8652238 17.3231313,23.8592582 17.3231313,23.8592582 C17.3231313,23.8592582 21.6106754,9.22997389 21.6175908,9.20684824 C22.1247196,7.47704985 20.7485563,5.01648101 19.67206,3.83707301 C16.9612257,0.863114813 12.0489911,-0.0249100307 8.19250663,0.000528180923 C4.8592869,0.0236538279 1.84648042,1.20074926 0.375806707,4.38052572 C-0.719130616,6.74396684 0.682389157,9.41960419 3.2341694,9.88905482 C4.10089874,10.0486218 5.14973344,10.1249364 6.41986073,10.0671223 C7.41337228,10.020871 8.38844278,10.5596986 8.8033664,11.4685365 C9.13991555,12.2108698 9.24595159,13.2052726 8.55902249,14.4008685" id="Fill-402"></path>
                </g>
                <g id="green-shirt" transform="translate(218.618688, 120.181417)">
                    <path d="M49.203355,1.61539592 L71.5179126,0.0470610935 C72.4285683,-0.0182861911 73.343882,-0.0159523595 74.2522087,0.0563964199 L75.7707445,0.170754168 C78.9242682,0.415806485 81.9380494,1.36800977 84.6117904,2.91534012 C88.2008451,4.99245024 90.9491154,8.26448213 92.726175,12.0172833 L98.4463037,24.106531 L68.9280172,56.714826 L43.8628602,56.714826 L43.8628602,38.2028738 L37.5954064,46.417961 C35.4643324,49.2115574 32.164079,50.8592425 28.6565407,50.8849147 C25.0022728,50.9105868 21.5599478,49.1742161 19.4055833,46.2195853 L6.53699317e-13,19.6139052 L7.58569191,14.5728289 L25.065157,33.8246057 L35.604075,11.0090681 C36.8012029,8.42084885 38.6574499,6.18970585 40.9888216,4.54435457 C43.4086969,2.83598985 46.2477999,1.82310694 49.203355,1.61539592" id="Fill-403" fill="#4B4D53"></path>
                    <path d="M43.7916317,39.160237 C43.4535195,39.160237 43.1805856,38.8406086 43.1805856,38.4446509 L43.1805856,28.3954373 C43.1805856,27.9994797 43.4535195,27.6822365 43.7916317,27.6822365 C44.1297438,27.6822365 44.4026777,27.9994797 44.4026777,28.3954373 L44.4026777,38.4446509 C44.4026777,38.8406086 44.1297438,39.160237 43.7916317,39.160237" id="Fill-404" fill="#FAFAFC"></path>
                </g>
                <g id="chiar" transform="translate(230.839609, 142.462241)">
                    <g id="chair-leg" transform="translate(35.304881, 53.338943)" fill="#D6D7DC">
                        <path d="M3.73417014,72.3483692 C2.48050361,72.3483692 1.46098492,73.3619055 1.46098492,74.6082156 C1.46098492,75.852101 2.48050361,76.8656373 3.73417014,76.8656373 C4.98783667,76.8656373 6.00735536,75.852101 6.00735536,74.6082156 C6.00735536,73.3619055 4.98783667,72.3483692 3.73417014,72.3483692 M3.73417014,78.320474 C1.67562044,78.320474 -5.12478948e-13,76.6546859 -5.12478948e-13,74.6082156 C-5.12478948e-13,72.5593205 1.67562044,70.8935325 3.73417014,70.8935325 C5.79271985,70.8935325 7.46834028,72.5593205 7.46834028,74.6082156 C7.46834028,76.6546859 5.79271985,78.320474 3.73417014,78.320474" id="Fill-379"></path>
                        <path d="M35.2825819,72.5139561 L2.73805952,72.5139561 C2.35004036,72.5139561 2.03682008,72.2425351 2.03682008,71.9062972 C2.03682008,71.5700593 2.35004036,71.2986384 2.73805952,71.2986384 L35.2825819,71.2986384 C35.6706011,71.2986384 35.9838214,71.5700593 35.9838214,71.9062972 C35.9838214,72.2425351 35.6706011,72.5139561 35.2825819,72.5139561" id="Fill-380"></path>
                        <path d="M18.6708507,72.2438855 C18.3327386,72.2438855 18.0598047,71.9330094 18.0598047,71.5478943 L18.0598047,0.69599119 C18.0598047,0.310876065 18.3327386,-8.52651283e-14 18.6708507,-8.52651283e-14 C19.0089628,-8.52651283e-14 19.2818967,0.310876065 19.2818967,0.69599119 L19.2818967,71.5478943 C19.2818967,71.9330094 19.0089628,72.2438855 18.6708507,72.2438855" id="Fill-381"></path>
                        <path d="M35.6443513,72.3483692 C34.3906848,72.3483692 33.3711661,73.3619055 33.3711661,74.6082156 C33.3711661,75.852101 34.3906848,76.8656373 35.6443513,76.8656373 C36.8980179,76.8656373 37.9175366,75.852101 37.9175366,74.6082156 C37.9175366,73.3619055 36.8980179,72.3483692 35.6443513,72.3483692 M35.6443513,78.320474 C33.5833626,78.320474 31.9101812,76.6546859 31.9101812,74.6082156 C31.9101812,72.5593205 33.5833626,70.8935325 35.6443513,70.8935325 C37.7053401,70.8935325 39.3785215,72.5593205 39.3785215,74.6082156 C39.3785215,76.6546859 37.7053401,78.320474 35.6443513,78.320474" id="Fill-382"></path>
                    </g>
                    <polygon id="Fill-405" fill="#FFFFFF" points="1.35788005 58.7403555 80.5568054 58.7403555 81.4728031 54.01412 1.35788005 54.01412"></polygon>
                    <path d="M1.4058648,58.0001775 L79.946845,58.0001775 L80.5911997,54.754298 L1.4058648,54.754298 L1.4058648,58.0001775 Z M80.5232496,59.415532 L0.7029324,59.415532 C0.31631958,59.415532 -4.61852778e-13,59.0994362 -4.61852778e-13,58.7078548 L-4.61852778e-13,54.0466207 C-4.61852778e-13,53.6550393 0.31631958,53.3389435 0.7029324,53.3389435 L81.4487772,53.3389435 C81.6596569,53.3389435 81.8588211,53.4333005 81.9947214,53.5984251 C82.1259354,53.7611909 82.1798269,53.9782119 82.137651,54.1857972 L81.2121233,58.8446724 C81.1441732,59.1772807 80.8559709,59.415532 80.5232496,59.415532 L80.5232496,59.415532 Z" id="Fill-406" fill="#AFB0B6" opacity="0.5"></path>
                    <polygon id="Fill-421" fill="#FFFFFF" points="31.9101812 54.6892965 46.2064074 0.6751765 95.7305436 0.6751765 81.6040401 54.6892965"></polygon>
                    <path d="M32.8344789,53.9732311 L81.0572041,53.9732311 L94.8085695,1.3889232 L46.7554709,1.3889232 L32.8344789,53.9732311 Z M81.5962911,55.364473 L31.9282551,55.364473 C31.7121556,55.364473 31.509998,55.2647673 31.3775499,55.0908621 C31.2451018,54.9215943 31.1986288,54.6989956 31.2543964,54.492628 L45.5425252,0.517078254 C45.623853,0.211005028 45.9026911,-5.68434189e-14 46.2163839,-5.68434189e-14 L95.7124697,-5.68434189e-14 C95.9285692,-5.68434189e-14 96.1330505,0.0997056724 96.2631749,0.268973442 C96.395623,0.438241211 96.442096,0.663158658 96.3863284,0.871844949 L82.2701498,54.845076 C82.1911457,55.1511492 81.9146312,55.364473 81.5962911,55.364473 L81.5962911,55.364473 Z" id="Fill-422" fill="#88898E" opacity="0.5"></path>
                </g>
            </g>
        </g>
    </g>
</svg>