<?xml version="1.0" encoding="UTF-8"?>
<svg width="441px" height="372px" viewBox="0 0 441 372" version="1.1" xmlns="http://www.w3.org/2000/svg" xmlns:xlink="http://www.w3.org/1999/xlink">
    <!-- Generator: Sketch 60.1 (88133) - https://sketch.com -->
    <title>Illustration_441x372_gray</title>
    <desc>Created with Sketch.</desc>
    <g id="Mockups" stroke="none" stroke-width="1" fill="none" fill-rule="evenodd">
        <g id="04-Horizontal-Create-an-Account---Enabled" transform="translate(-1136.000000, -735.000000)">
            <g id="Illustration_441x372_gray" transform="translate(1136.000000, 735.000000)">
                <g id="lrg-dots" transform="translate(176.578225, -0.000000)" fill="#F0F1F7">
                    <path d="M4.57456542,2.28566167 C4.57456542,3.55007026 3.55007026,4.57456542 2.28890374,4.57456542 C1.02449516,4.57456542 5.68434189e-14,3.55007026 5.68434189e-14,2.28566167 C5.68434189e-14,1.02125309 1.02449516,8.52651283e-14 2.28890374,8.52651283e-14 C3.55007026,8.52651283e-14 4.57456542,1.02125309 4.57456542,2.28566167" id="Fill-209"></path>
                    <path d="M20.1280878,2.28566167 C20.1280878,3.55007026 19.1035927,4.57456542 17.8391841,4.57456542 C16.5780176,4.57456542 15.5535224,3.55007026 15.5535224,2.28566167 C15.5535224,1.02125309 16.5780176,8.52651283e-14 17.8391841,8.52651283e-14 C19.1035927,8.52651283e-14 20.1280878,1.02125309 20.1280878,2.28566167" id="Fill-210"></path>
                    <path d="M36.5965233,2.28566167 C36.5965233,3.55007026 35.5720282,4.57456542 34.3076196,4.57456542 C33.0464531,4.57456542 32.0219579,3.55007026 32.0219579,2.28566167 C32.0219579,1.02125309 33.0464531,8.52651283e-14 34.3076196,8.52651283e-14 C35.5720282,8.52651283e-14 36.5965233,1.02125309 36.5965233,2.28566167" id="Fill-211"></path>
                    <path d="M52.1500457,2.28566167 C52.1500457,3.55007026 51.1287927,4.57456542 49.8643841,4.57456542 C48.5999755,4.57456542 47.5754803,3.55007026 47.5754803,2.28566167 C47.5754803,1.02125309 48.5999755,8.52651283e-14 49.8643841,8.52651283e-14 C51.1287927,8.52651283e-14 52.1500457,1.02125309 52.1500457,2.28566167" id="Fill-212"></path>
                    <path d="M4.57456542,15.0976869 C4.57456542,16.3588534 3.55007026,17.3833486 2.28890374,17.3833486 C1.02449516,17.3833486 5.68434189e-14,16.3588534 5.68434189e-14,15.0976869 C5.68434189e-14,13.8332783 1.02449516,12.8087832 2.28890374,12.8087832 C3.55007026,12.8087832 4.57456542,13.8332783 4.57456542,15.0976869" id="Fill-213"></path>
                    <path d="M20.1280878,15.0976869 C20.1280878,16.3588534 19.1035927,17.3833486 17.8391841,17.3833486 C16.5780176,17.3833486 15.5535224,16.3588534 15.5535224,15.0976869 C15.5535224,13.8332783 16.5780176,12.8087832 17.8391841,12.8087832 C19.1035927,12.8087832 20.1280878,13.8332783 20.1280878,15.0976869" id="Fill-214"></path>
                    <path d="M36.5965233,15.0976869 C36.5965233,16.3588534 35.5720282,17.3833486 34.3076196,17.3833486 C33.0464531,17.3833486 32.0219579,16.3588534 32.0219579,15.0976869 C32.0219579,13.8332783 33.0464531,12.8087832 34.3076196,12.8087832 C35.5720282,12.8087832 36.5965233,13.8332783 36.5965233,15.0976869" id="Fill-215"></path>
                    <path d="M52.1500457,15.0976869 C52.1500457,16.3588534 51.1287927,17.3833486 49.8643841,17.3833486 C48.5999755,17.3833486 47.5754803,16.3588534 47.5754803,15.0976869 C47.5754803,13.8332783 48.5999755,12.8087832 49.8643841,12.8087832 C51.1287927,12.8087832 52.1500457,13.8332783 52.1500457,15.0976869" id="Fill-216"></path>
                    <path d="M4.57456542,27.9064701 C4.57456542,29.1708787 3.55007026,30.1921317 2.28890374,30.1921317 C1.02449516,30.1921317 5.68434189e-14,29.1708787 5.68434189e-14,27.9064701 C5.68434189e-14,26.6420615 1.02449516,25.6175663 2.28890374,25.6175663 C3.55007026,25.6175663 4.57456542,26.6420615 4.57456542,27.9064701" id="Fill-217"></path>
                    <path d="M20.1280878,27.9064701 C20.1280878,29.1708787 19.1035927,30.1921317 17.8391841,30.1921317 C16.5780176,30.1921317 15.5535224,29.1708787 15.5535224,27.9064701 C15.5535224,26.6420615 16.5780176,25.6175663 17.8391841,25.6175663 C19.1035927,25.6175663 20.1280878,26.6420615 20.1280878,27.9064701" id="Fill-218"></path>
                    <path d="M36.5965233,27.9064701 C36.5965233,29.1708787 35.5720282,30.1921317 34.3076196,30.1921317 C33.0464531,30.1921317 32.0219579,29.1708787 32.0219579,27.9064701 C32.0219579,26.6420615 33.0464531,25.6175663 34.3076196,25.6175663 C35.5720282,25.6175663 36.5965233,26.6420615 36.5965233,27.9064701" id="Fill-219"></path>
                    <path d="M52.1500457,27.9064701 C52.1500457,29.1708787 51.1287927,30.1921317 49.8643841,30.1921317 C48.5999755,30.1921317 47.5754803,29.1708787 47.5754803,27.9064701 C47.5754803,26.6420615 48.5999755,25.6175663 49.8643841,25.6175663 C51.1287927,25.6175663 52.1500457,26.6420615 52.1500457,27.9064701" id="Fill-220"></path>
                    <path d="M4.57456542,39.8003402 C4.57456542,41.0647487 3.55007026,42.0860018 2.28890374,42.0860018 C1.02449516,42.0860018 5.68434189e-14,41.0647487 5.68434189e-14,39.8003402 C5.68434189e-14,38.5359316 1.02449516,37.5114364 2.28890374,37.5114364 C3.55007026,37.5114364 4.57456542,38.5359316 4.57456542,39.8003402" id="Fill-221"></path>
                    <path d="M20.1280878,39.8003402 C20.1280878,41.0647487 19.1035927,42.0860018 17.8391841,42.0860018 C16.5780176,42.0860018 15.5535224,41.0647487 15.5535224,39.8003402 C15.5535224,38.5359316 16.5780176,37.5114364 17.8391841,37.5114364 C19.1035927,37.5114364 20.1280878,38.5359316 20.1280878,39.8003402" id="Fill-222"></path>
                    <path d="M36.5965233,39.8003402 C36.5965233,41.0647487 35.5720282,42.0860018 34.3076196,42.0860018 C33.0464531,42.0860018 32.0219579,41.0647487 32.0219579,39.8003402 C32.0219579,38.5359316 33.0464531,37.5114364 34.3076196,37.5114364 C35.5720282,37.5114364 36.5965233,38.5359316 36.5965233,39.8003402" id="Fill-223"></path>
                    <path d="M52.1500457,39.8003402 C52.1500457,41.0647487 51.1287927,42.0860018 49.8643841,42.0860018 C48.5999755,42.0860018 47.5754803,41.0647487 47.5754803,39.8003402 C47.5754803,38.5359316 48.5999755,37.5114364 49.8643841,37.5114364 C51.1287927,37.5114364 52.1500457,38.5359316 52.1500457,39.8003402" id="Fill-224"></path>
                </g>
                <g id="sm-monitor" transform="translate(0.000000, 60.384263)">
                    <polygon id="Fill-225" fill="#FFFFFF" points="0.914913083 136.322049 187.557182 136.322049 187.557182 0.914913083 0.914913083 0.914913083"></polygon>
                    <path d="M1.88484682,135.354683 L186.584102,135.354683 L186.584102,1.87914188 L1.88484682,1.87914188 L1.88484682,135.354683 Z M187.528098,137.236962 L0.940850081,137.236962 C0.421651876,137.236962 9.23705556e-13,136.816587 9.23705556e-13,136.295823 L9.23705556e-13,0.941139504 C9.23705556e-13,0.420375645 0.421651876,-1.84741111e-13 0.940850081,-1.84741111e-13 L187.528098,-1.84741111e-13 C188.050443,-1.84741111e-13 188.472095,0.420375645 188.472095,0.941139504 L188.472095,136.295823 C188.472095,136.816587 188.050443,137.236962 187.528098,137.236962 L187.528098,137.236962 Z" id="Fill-226" fill="#F0F1F7"></path>
                    <polygon id="Fill-227" fill="#F0F1F7" points="0.914913083 12.8087832 187.557182 12.8087832 187.557182 0.914913083 0.914913083 0.914913083"></polygon>
                    <path d="M11.8938701,6.40604206 C11.8938701,7.92117773 10.665917,9.14913083 9.15078131,9.14913083 C7.63234468,9.14913083 6.40439158,7.92117773 6.40439158,6.40604206 C6.40439158,4.89090638 7.63234468,3.65965233 9.15078131,3.65965233 C10.665917,3.65965233 11.8938701,4.89090638 11.8938701,6.40604206" id="Fill-228" fill="#FFFFFF"></path>
                    <path d="M20.1280878,6.40604206 C20.1280878,7.92117773 18.9001347,9.14913083 17.3849991,9.14913083 C15.8665624,9.14913083 14.6386093,7.92117773 14.6386093,6.40604206 C14.6386093,4.89090638 15.8665624,3.65965233 17.3849991,3.65965233 C18.9001347,3.65965233 20.1280878,4.89090638 20.1280878,6.40604206" id="Fill-229" fill="#FFFFFF"></path>
                    <path d="M27.4473925,6.40604206 C27.4473925,7.92117773 26.2194394,9.14913083 24.7010028,9.14913083 C23.1858671,9.14913083 21.957914,7.92117773 21.957914,6.40604206 C21.957914,4.89090638 23.1858671,3.65965233 24.7010028,3.65965233 C26.2194394,3.65965233 27.4473925,4.89090638 27.4473925,6.40604206" id="Fill-230" fill="#FFFFFF"></path>
                </g>
                <g id="code-lines" transform="translate(246.111619, 44.724611)" fill="#D6D7DC">
                    <path d="M173.80708,14.1957914 L45.768922,14.1957914 C45.2511967,14.1957914 44.8307411,13.8279963 44.8307411,13.3723696 C44.8307411,12.9167429 45.2511967,12.5489478 45.768922,12.5489478 L173.80708,12.5489478 C174.327943,12.5489478 174.748399,12.9167429 174.748399,13.3723696 C174.748399,13.8279963 174.327943,14.1957914 173.80708,14.1957914" id="Fill-235"></path>
                    <path d="M45.7456542,13.3723696 L173.833486,13.3723696 L45.7456542,13.3723696 Z" id="Fill-234"></path>
                    <path d="M107.013171,27.9194876 L0.946572456,27.9194876 C0.425957605,27.9194876 1.8189894e-12,27.5516926 1.8189894e-12,27.0960659 C1.8189894e-12,26.6404392 0.425957605,26.2726441 0.946572456,26.2726441 L107.013171,26.2726441 C107.536941,26.2726441 107.959744,26.6404392 107.959744,27.0960659 C107.959744,27.5516926 107.536941,27.9194876 107.013171,27.9194876" id="Fill-237"></path>
                    <path d="M173.804782,39.8133577 L0.940471431,39.8133577 C0.42148218,39.8133577 0,39.4455627 0,38.989936 C0,38.5343092 0.42148218,38.1665142 0.940471431,38.1665142 L173.804782,38.1665142 C174.326917,38.1665142 174.748399,38.5343092 174.748399,38.989936 C174.748399,39.4455627 174.326917,39.8133577 173.804782,39.8133577" id="Fill-241"></path>
                    <path d="M57.6146593,53.537054 L0.939778044,53.537054 C0.419767526,53.537054 1.8189894e-12,53.1692589 1.8189894e-12,52.7136322 C1.8189894e-12,52.2580055 0.419767526,51.8902104 0.939778044,51.8902104 L57.6146593,51.8902104 C58.1346698,51.8902104 58.5544373,52.2580055 58.5544373,52.7136322 C58.5544373,53.1692589 58.1346698,53.537054 57.6146593,53.537054" id="Fill-243"></path>
                    <path d="M173.809201,53.537054 L77.7918966,53.537054 C77.2722073,53.537054 76.852699,53.1692589 76.852699,52.7136322 C76.852699,52.2580055 77.2722073,51.8902104 77.7918966,51.8902104 L173.809201,51.8902104 C174.328891,51.8902104 174.748399,52.2580055 174.748399,52.7136322 C174.748399,53.1692589 174.328891,53.537054 173.809201,53.537054" id="Fill-245"></path>
                    <path d="M109.759744,64.516011 L0.94158959,64.516011 C0.421983294,64.516011 1.8189894e-12,64.1482159 1.8189894e-12,63.6925892 C1.8189894e-12,63.2369625 0.421983294,62.8691674 0.94158959,62.8691674 L109.759744,62.8691674 C110.2825,62.8691674 110.704483,63.2369625 110.704483,63.6925892 C110.704483,64.1482159 110.2825,64.516011 109.759744,64.516011" id="Fill-247"></path>
                    <path d="M1.8189894e-12,9.57389229 L10.0640439,4.68069533 L10.0640439,6.76768072 C10.0640439,6.92443515 10.0212322,7.06889511 9.93890201,7.2010606 C9.8532786,7.33015248 9.71167065,7.44080266 9.51737137,7.53608477 L4.91017326,9.73986757 C4.71587398,9.83514967 4.51169508,9.91506369 4.29434335,9.98268325 C4.08028482,10.0472292 3.84976025,10.1117751 3.60276965,10.1640266 C4.07699161,10.2685296 4.51498829,10.4099159 4.91017326,10.5912593 L9.51737137,12.8073365 C9.71167065,12.8933978 9.8532786,13.004048 9.93890201,13.1392871 C10.0212322,13.2714526 10.0640439,13.4189861 10.0640439,13.5788142 L10.0640439,15.6596523 L1.8189894e-12,10.7572345 L1.8189894e-12,9.57389229 Z" id="Fill-231"></path>
                    <path d="M15.7185211,18.2028464 C15.5808767,18.5749991 15.3568045,18.8556906 15.0463044,19.041767 C14.7390053,19.2278434 14.4253042,19.3193047 14.105201,19.3193047 L12.8087832,19.3193047 L20.0111047,1.1626653 C20.142347,0.822050907 20.344012,0.56028244 20.6160997,0.380513733 C20.8881874,0.194437352 21.2050895,0.106129918 21.5668061,0.106129918 L22.8728271,0.106129918 L15.7185211,18.2028464 Z" id="Fill-232"></path>
                    <path d="M36.5965233,10.7555338 L26.5324794,15.6596523 L26.5324794,13.5763238 C26.5324794,13.4165405 26.5752911,13.2690482 26.6576213,13.1369197 C26.7432447,13.0017184 26.8815595,12.8910992 27.0758587,12.8050621 L31.6830569,10.589605 C32.0584826,10.4175307 32.4931861,10.2761839 32.9904605,10.1655647 C32.7467631,10.1102551 32.5162385,10.0488 32.2988868,9.98119934 C32.0848283,9.91667147 31.8773561,9.83370706 31.6830569,9.73845162 L27.0758587,7.53528561 C26.8815595,7.44003017 26.7432447,7.32941096 26.6576213,7.20035521 C26.5752911,7.0682267 26.5324794,6.92380718 26.5324794,6.76709662 L26.5324794,4.68069533 L36.5965233,9.5725228 L36.5965233,10.7555338 Z" id="Fill-233"></path>
                    <path d="M173.804782,73.6651418 L0.940471431,73.6651418 C0.42148218,73.6651418 0,73.2973468 0,72.84172 C0,72.3860933 0.42148218,72.0182983 0.940471431,72.0182983 L173.804782,72.0182983 C174.326917,72.0182983 174.748399,72.3860933 174.748399,72.84172 C174.748399,73.2973468 174.326917,73.6651418 173.804782,73.6651418" id="Fill-251"></path>
                    <path d="M173.801046,64.516011 L125.375532,64.516011 C124.85133,64.516011 124.428179,64.1482159 124.428179,63.6925892 C124.428179,63.2369625 124.85133,62.8691674 125.375532,62.8691674 L173.801046,62.8691674 C174.325248,62.8691674 174.748399,63.2369625 174.748399,63.6925892 C174.748399,64.1482159 174.325248,64.516011 173.801046,64.516011" id="Fill-249"></path>
                </g>
                <g id="dots" transform="translate(40.256176, 253.430924)" fill="#D6D7DC">
                    <path d="M25.4098811,1.47978769 C25.5141812,1.35627442 25.5388838,1.20256903 25.547118,1.05160837 C25.3028362,1.24648485 25.0448307,1.4523403 24.7731016,1.68289839 C25.0091491,1.71583527 25.2451967,1.67466418 25.4098811,1.47978769" id="Fill-252"></path>
                    <path d="M19.1982274,8.17398217 C19.4534881,7.87206085 19.4150618,7.42192361 19.1131404,7.16666286 C19.0774588,7.13647073 19.0253088,7.14744969 18.9841377,7.12549177 C18.706919,7.45760522 18.4269556,7.80344237 18.1442475,8.16574795 C18.1689501,8.19319534 18.1634607,8.23436643 18.1909081,8.25906908 C18.4928294,8.51432983 18.9429666,8.47590349 19.1982274,8.17398217" id="Fill-253"></path>
                    <path d="M22.7848775,5.48638303 C22.5296168,5.78555961 22.5680431,6.23844158 22.8699644,6.49370233 C23.1718857,6.74621834 23.622023,6.71053673 23.874539,6.40861542 C24.1297997,6.1066941 24.0941181,5.65655686 23.7921968,5.40129611 C23.4902755,5.14603536 23.0401383,5.18446171 22.7848775,5.48638303" id="Fill-254"></path>
                    <path d="M13.3101555,15.0219579 C13.2799634,15.0713632 13.252516,15.1180238 13.2223239,15.1701738 C13.2360476,15.1564501 13.2580055,15.1591949 13.2717292,15.1427264 C13.3019213,15.1097896 13.2881976,15.0603843 13.3101555,15.0219579" id="Fill-255"></path>
                    <path d="M17.2955201,11.8907746 C17.0402594,12.1926959 17.0786857,12.6428332 17.3778623,12.8980939 C17.6797836,13.1506099 18.1326656,13.1149283 18.3851816,12.813007 C18.6404424,12.5110857 18.6047608,12.0609484 18.3028394,11.8056877 C18.0009181,11.5504269 17.5507809,11.5888533 17.2955201,11.8907746" id="Fill-256"></path>
                    <path d="M12.8403752,20.1209058 C13.095636,19.8189845 13.0572096,19.3688473 12.758033,19.1135865 C12.5823697,18.9653706 12.3655353,18.9434127 12.1569352,18.9873285 C12.000485,19.2947393 11.8467796,19.6131291 11.6930742,19.9342636 C11.73699,20.0275847 11.7507137,20.1318848 11.8330559,20.2059928 C12.1349772,20.4612535 12.5851145,20.4200824 12.8403752,20.1209058" id="Fill-257"></path>
                    <path d="M27.4431267,3.65655686 C27.187866,3.95847818 27.2262923,4.40861542 27.5282136,4.66387617 C27.8301349,4.91639218 28.2802722,4.88071057 28.5327882,4.57878925 L28.5355329,4.57878925 C28.5163198,4.25765476 28.4916171,3.93377553 28.4696592,3.60989629 C28.4586802,3.59891734 28.461425,3.5824489 28.450446,3.57146994 C28.1485247,3.31620919 27.6983875,3.35463554 27.4431267,3.65655686" id="Fill-258"></path>
                    <path d="M21.8699644,10.0609484 C21.6147037,10.3628698 21.65313,10.813007 21.9550513,11.0682677 C22.2569727,11.3207838 22.7071099,11.2851021 22.9596259,10.9831808 C23.2148867,10.6840043 23.1792051,10.2311223 22.8772837,9.97586153 C22.5753624,9.72060078 22.1252252,9.75902713 21.8699644,10.0609484" id="Fill-259"></path>
                    <path d="M25.5296168,12.8056877 C25.274356,13.107609 25.3127824,13.5577462 25.6147037,13.813007 C25.916625,14.065523 26.3667622,14.0298414 26.6192782,13.7279201 C26.874539,13.4259988 26.8388574,12.9758615 26.5369361,12.7206008 C26.2350148,12.46534 25.7848775,12.5037664 25.5296168,12.8056877" id="Fill-260"></path>
                    <path d="M26.4445298,8.2305581 C26.1892691,8.53247941 26.2276954,8.98261665 26.5296168,9.2378774 C26.8315381,9.49313815 27.2816753,9.4547118 27.5341913,9.15279048 C27.7894521,8.85361391 27.7537705,8.40073193 27.4518492,8.14547118 C27.1499278,7.89021043 26.6997906,7.92863678 26.4445298,8.2305581" id="Fill-261"></path>
                    <path d="M15.4647758,17.3792376 C15.2095151,17.681159 15.2479414,18.1312962 15.5498628,18.3865569 C15.8517841,18.6418177 16.3019213,18.6033913 16.5571821,18.30147 C16.8124428,18.0022934 16.7740165,17.5494115 16.4720952,17.2941507 C16.1701738,17.03889 15.7200366,17.0800611 15.4647758,17.3792376" id="Fill-262"></path>
                    <path d="M19.1252252,20.1249924 C18.8699644,20.4269137 18.9083908,20.8770509 19.2103121,21.1323117 C19.5094887,21.3848277 19.9623707,21.3491461 20.2148867,21.0472247 C20.4701474,20.7480482 20.4344658,20.2951662 20.1325445,20.0399054 C19.8306232,19.7846447 19.3804859,19.823071 19.1252252,20.1249924" id="Fill-263"></path>
                    <path d="M20.9550513,14.6355139 C20.6997906,14.9346904 20.7382169,15.3875724 21.0401383,15.6428332 C21.3393148,15.8953492 21.7921968,15.8596676 22.0447128,15.5577462 C22.2999736,15.2558249 22.264292,14.8056877 21.9623707,14.5504269 C21.6604493,14.2951662 21.2103121,14.3335925 20.9550513,14.6355139" id="Fill-264"></path>
                    <path d="M23.6997906,18.294602 C23.4445298,18.5965233 23.4829562,19.0466606 23.7848775,19.3019213 C24.0867988,19.5571821 24.5369361,19.5187557 24.7894521,19.2168344 C25.0447128,18.9176578 25.0090312,18.4647758 24.7071099,18.2095151 C24.4051886,17.9542543 23.9550513,17.9926807 23.6997906,18.294602" id="Fill-265"></path>
                    <path d="M9.97609435,23.7846447 C9.7208336,24.086566 9.75925995,24.5367032 10.0611813,24.791964 C10.3631026,25.04448 10.8132398,25.0087984 11.0657558,24.7068771 C11.3210166,24.4049558 11.285335,23.9548185 10.9834137,23.6995578 C10.6814923,23.444297 10.2313551,23.4827234 9.97609435,23.7846447" id="Fill-266"></path>
                    <path d="M13.6349497,26.5283685 C13.3796889,26.8302898 13.4181153,27.280427 13.7200366,27.5356878 C14.0219579,27.7909485 14.4720952,27.7525222 14.7273559,27.4506009 C14.9826167,27.1514243 14.9441903,26.6985423 14.642269,26.4432816 C14.3403477,26.1880208 13.8902104,26.2291919 13.6349497,26.5283685" id="Fill-267"></path>
                    <path d="M14.5498628,21.9548185 C14.294602,22.2567398 14.3330284,22.7068771 14.6349497,22.9621378 C14.936871,23.2146538 15.3870082,23.1789722 15.642269,22.8770509 C15.8975297,22.5751296 15.8591034,22.1249924 15.5571821,21.8697316 C15.2552608,21.6144709 14.8051235,21.6528972 14.5498628,21.9548185" id="Fill-268"></path>
                    <path d="M18.2095151,24.6995578 C17.9542543,24.9987344 17.9926807,25.4516163 18.294602,25.7068771 C18.5965233,25.9593931 19.0466606,25.9237115 19.3019213,25.6217902 C19.5571821,25.3198688 19.5187557,24.8697316 19.2168344,24.6144709 C18.9149131,24.3592101 18.4647758,24.3976365 18.2095151,24.6995578" id="Fill-269"></path>
                    <path d="M8.14626818,33.8486886 C7.89100743,34.1506099 7.92943378,34.6007472 8.2313551,34.8560079 C8.53327642,35.1085239 8.98341365,35.0728423 9.23592966,34.770921 C9.49119041,34.4689997 9.4555088,34.0188624 9.15358749,33.7636017 C8.85166617,33.5083409 8.40152893,33.5467673 8.14626818,33.8486886" id="Fill-270"></path>
                    <path d="M9.06118127,28.3586459 C8.80592052,28.6605672 8.84434686,29.1107045 9.14626818,29.3659652 C9.4481895,29.621226 9.89832674,29.5827996 10.1508427,29.2808783 C10.4061035,28.9817017 10.3704219,28.5288198 10.0685006,28.273559 C9.76657925,28.0182983 9.31644202,28.0567246 9.06118127,28.3586459" id="Fill-271"></path>
                    <path d="M12.7202706,32.0188624 C12.4650098,32.3207838 12.5034362,32.770921 12.8053575,33.0261817 C13.1072788,33.2786978 13.557416,33.2430161 13.8099321,32.9410948 C14.0679375,32.6391735 14.0295112,32.1890363 13.7275899,31.9337755 C13.4256686,31.6785148 12.9755313,31.7169411 12.7202706,32.0188624" id="Fill-272"></path>
                    <path d="M6.31644202,38.4226898 C6.06118127,38.7246112 6.09960761,39.1747484 6.40152893,39.4300091 C6.70345025,39.6852699 7.15358749,39.6468435 7.4061035,39.3449222 C7.66136425,39.0457457 7.62568264,38.5928637 7.32376132,38.3376029 C7.02184,38.0823422 6.57170277,38.1207685 6.31644202,38.4226898" id="Fill-273"></path>
                    <path d="M28.7793573,16.5709058 C28.8726784,16.6477585 28.9907022,16.6505032 29.1004918,16.6724611 C29.1114707,16.2360476 29.108726,15.7886551 29.1142155,15.3494968 C28.9577653,15.3769442 28.8040599,15.4345837 28.6942703,15.5635865 C28.4390096,15.8655078 28.4774359,16.315645 28.7793573,16.5709058" id="Fill-274"></path>
                    <path d="M22.7848775,22.8697316 C22.5296168,23.1716529 22.5680431,23.6217902 22.8699644,23.8770509 C23.169141,24.1295669 23.622023,24.0938853 23.874539,23.791964 C24.1297997,23.4900427 24.0941181,23.0399054 23.7921968,22.7846447 C23.4902755,22.5293839 23.0401383,22.5678103 22.7848775,22.8697316" id="Fill-275"></path>
                    <path d="M26.4445298,25.6134554 C26.1892691,25.9153767 26.2276954,26.3655139 26.5296168,26.6207747 C26.8315381,26.8760354 27.2816753,26.8376091 27.5341913,26.5356878 C27.7894521,26.2365112 27.7537705,25.7836292 27.4518492,25.5283685 C27.1499278,25.2731077 26.6997906,25.3142788 26.4445298,25.6134554" id="Fill-276"></path>
                    <path d="M27.3594429,21.0399054 C27.1041822,21.3418268 27.1426085,21.791964 27.4445298,22.0472247 C27.7464512,22.2997408 28.1965884,22.2640591 28.4491044,21.9621378 C28.7043652,21.6602165 28.6686836,21.2100793 28.3667622,20.9548185 C28.0648409,20.6995578 27.6147037,20.7379841 27.3594429,21.0399054" id="Fill-277"></path>
                    <path d="M18.3870082,30.1952272 C18.642269,29.8960506 18.6038426,29.4431687 18.3019213,29.1879079 C18,28.9353919 17.5498628,28.9710735 17.294602,29.2729948 C17.0393413,29.5749161 17.0777676,30.0250534 17.3796889,30.2803141 C17.6816102,30.5355749 18.1317475,30.4971485 18.3870082,30.1952272" id="Fill-278"></path>
                    <path d="M21.1311833,33.8548796 C21.3864441,33.5529582 21.3480177,33.102821 21.0460964,32.8475602 C20.7441751,32.5950442 20.2940378,32.6307258 20.0387771,32.9326472 C19.7862611,33.2345685 19.8219427,33.6847057 20.123864,33.9399665 C20.4257853,34.1952272 20.8759226,34.1568009 21.1311833,33.8548796" id="Fill-279"></path>
                    <path d="M21.8699644,27.4437328 C21.6147037,27.7456542 21.65313,28.1957914 21.9550513,28.4510522 C22.2542279,28.7063129 22.7071099,28.6678866 22.9596259,28.3659652 C23.2148867,28.0667887 23.1792051,27.6139067 22.8772837,27.3586459 C22.5753624,27.1033852 22.1252252,27.1418115 21.8699644,27.4437328" id="Fill-280"></path>
                    <path d="M24.6147037,30.1890363 C24.3594429,30.4909576 24.3978693,30.9410948 24.6997906,31.1963556 C25.0017119,31.4488716 25.4518492,31.41319 25.7043652,31.1112687 C25.9596259,30.8093473 25.9239443,30.3592101 25.622023,30.1039494 C25.3201017,29.8486886 24.8699644,29.887115 24.6147037,30.1890363" id="Fill-281"></path>
                    <path d="M10.8907746,36.5928637 C10.6355139,36.894785 10.6739402,37.3449222 10.9758615,37.600183 C11.2777828,37.8554437 11.7279201,37.8170174 11.9831808,37.5150961 C12.2356968,37.2159195 12.2000152,36.7630375 11.8980939,36.5077768 C11.5961726,36.252516 11.1460354,36.2909424 10.8907746,36.5928637" id="Fill-282"></path>
                    <path d="M14.5500967,39.3381671 C14.294836,39.6400884 14.3332623,40.0902257 14.6351837,40.3454864 C14.937105,40.5980024 15.3872422,40.5623208 15.6397582,40.2603995 C15.8977637,39.9584782 15.8593374,39.5083409 15.557416,39.2530802 C15.2554947,38.9978194 14.8053575,39.0362458 14.5500967,39.3381671" id="Fill-283"></path>
                    <path d="M15.4647758,34.7636017 C15.2095151,35.0627783 15.2479414,35.5156602 15.5498628,35.770921 C15.8517841,36.023437 16.3019213,35.9877554 16.5571821,35.6858341 C16.8124428,35.3839128 16.7740165,34.9337755 16.4720952,34.6785148 C16.1701738,34.423254 15.7200366,34.4616804 15.4647758,34.7636017" id="Fill-284"></path>
                    <path d="M20.2168344,38.4304604 C20.4720952,38.1285391 20.4336688,37.6784019 20.1317475,37.4231411 C19.8298262,37.1678804 19.3796889,37.2063067 19.1244282,37.5082281 C18.8691674,37.8074046 18.9075938,38.2602866 19.2095151,38.5155474 C19.5114364,38.7708081 19.9615737,38.729637 20.2168344,38.4304604" id="Fill-285"></path>
                    <path d="M5.40152893,42.9978194 C5.14626818,43.2997408 5.18469453,43.749878 5.48661585,44.0051387 C5.78853717,44.2576548 6.2386744,44.2219731 6.49119041,43.9200518 C6.74645116,43.6181305 6.71076955,43.1679933 6.40884824,42.9127325 C6.10692692,42.6574718 5.65678968,42.6958981 5.40152893,42.9978194" id="Fill-286"></path>
                    <path d="M9.06118127,45.7419945 C8.80592052,46.0439158 8.84434686,46.4940531 9.14626818,46.7493138 C9.4481895,47.0045746 9.89832674,46.9661482 10.1508427,46.6642269 C10.4061035,46.3650503 10.3704219,45.9121683 10.0685006,45.6569076 C9.76657925,45.4016468 9.31644202,45.4400732 9.06118127,45.7419945" id="Fill-287"></path>
                    <path d="M11.0669066,42.0890973 C11.3221673,41.787176 11.283741,41.3370387 10.9818196,41.081778 C10.6798983,40.829262 10.2297611,40.8649436 9.97724508,41.1668649 C9.72198433,41.4687862 9.75766594,41.9189235 10.0595873,42.1741842 C10.3615086,42.429445 10.8116458,42.3910186 11.0669066,42.0890973" id="Fill-288"></path>
                    <path d="M14.7264378,44.8344007 C14.9816985,44.5324794 14.9432722,44.0823422 14.6440956,43.8270814 C14.3421743,43.5718207 13.8892923,43.610247 13.6367763,43.9121683 C13.3815155,44.2113449 13.4171972,44.6642269 13.7191185,44.9194876 C14.0210398,45.1747484 14.471177,45.136322 14.7264378,44.8344007" id="Fill-289"></path>
                    <path d="M2.65678968,53.0618634 C2.40152893,53.3637847 2.43995528,53.8139219 2.7418766,54.0691827 C3.04105318,54.3216987 3.49393515,54.2860171 3.74645116,53.9840957 C4.00171192,53.6821744 3.9660303,53.2320372 3.66410899,52.9767764 C3.36218767,52.7215157 2.91205043,52.759942 2.65678968,53.0618634" id="Fill-290"></path>
                    <path d="M5.57742807,49.4096533 C5.83268882,49.1077319 5.79426247,48.6575947 5.49234115,48.402334 C5.19041983,48.1470732 4.7402826,48.1854996 4.48776658,48.4874209 C4.23250583,48.7865974 4.26818744,49.2394794 4.57010876,49.4919954 C4.87203008,49.7500009 5.32216732,49.7088298 5.57742807,49.4096533" id="Fill-291"></path>
                    <path d="M8.32216732,52.1531412 C8.57742807,51.8512199 8.53900172,51.4010827 8.2370804,51.1458219 C7.93515908,50.8933059 7.48502185,50.9289875 7.23250583,51.2309088 C6.97724508,51.5328301 7.01292669,51.9829674 7.31484801,52.2382281 C7.61676933,52.4934889 8.06690657,52.4550625 8.32216732,52.1531412" id="Fill-292"></path>
                    <path d="M1.76832494,58.6420546 C2.06750152,58.8973153 2.52038349,58.858889 2.77564424,58.5569677 C3.02816026,58.2577911 2.99247865,57.8049091 2.69055733,57.5523931 C2.39138075,57.2971323 1.94398825,57.3355587 1.6887275,57.6319905 C1.66951433,57.8817618 1.65030115,58.1287883 1.63108798,58.3785596 C1.67225907,58.469136 1.68598276,58.5734361 1.76832494,58.6420546" id="Fill-293"></path>
                    <path d="M23.6997906,35.6779506 C23.4445298,35.9798719 23.4829562,36.4300091 23.7848775,36.6852699 C24.0867988,36.9405306 24.5369361,36.9021043 24.7894521,36.600183 C25.0447128,36.3010064 25.0090312,35.8481244 24.7071099,35.5928637 C24.4051886,35.3376029 23.9550513,35.3760293 23.6997906,35.6779506" id="Fill-294"></path>
                    <path d="M26.9855986,38.9112534 C26.9883433,38.8920403 26.9910881,38.8755718 26.9938328,38.8563586 C26.9965775,38.8755718 26.9855986,38.8920403 26.9855986,38.9112534" id="Fill-295"></path>
                    <path d="M19.3019213,43.0040104 C19.5571821,42.7020891 19.5187557,42.2519518 19.2168344,41.9966911 C18.9149131,41.7441751 18.4647758,41.7798567 18.2095151,42.081778 C17.9542543,42.3836993 17.9926807,42.8338366 18.294602,43.0890973 C18.5965233,43.3443581 19.0466606,43.3059317 19.3019213,43.0040104" id="Fill-296"></path>
                    <path d="M22.9607766,45.7493138 C23.2160374,45.4473925 23.177611,44.9972553 22.8756897,44.7419945 C22.5737684,44.4867338 22.1236312,44.5251601 21.8711152,44.8270814 C21.6158544,45.126258 21.651536,45.57914 21.9534573,45.8344007 C22.2553787,46.0896615 22.7055159,46.0512351 22.9607766,45.7493138" id="Fill-297"></path>
                    <path d="M22.7848775,40.2530802 C22.5296168,40.5550015 22.5680431,41.0051387 22.8699644,41.2603995 C23.1718857,41.5129155 23.622023,41.4772339 23.874539,41.1753126 C24.1297997,40.8733913 24.0941181,40.423254 23.7921968,40.1679933 C23.4902755,39.9127325 23.0401383,39.9511589 22.7848775,40.2530802" id="Fill-298"></path>
                    <path d="M26.0396008,43.0727356 C25.8145321,43.3362306 25.8557032,43.6985361 26.0615587,43.9592864 C26.1301772,43.6271729 26.1960509,43.2950595 26.2619246,42.9574565 C26.1878167,42.9986276 26.0972403,43.0041171 26.0396008,43.0727356" id="Fill-299"></path>
                    <path d="M12.8967327,50.3233151 C13.1519935,50.0213937 13.1135671,49.5712565 12.8116458,49.3159957 C12.5124692,49.0634797 12.0595873,49.0991613 11.8070713,49.4010827 C11.5518105,49.703004 11.5874921,50.1531412 11.8894134,50.408402 C12.1913347,50.6636627 12.641472,50.6252364 12.8967327,50.3233151" id="Fill-300"></path>
                    <path d="M16.5562639,53.0680543 C16.8115247,52.766133 16.7730983,52.3159957 16.4739218,52.060735 C16.1720004,51.808219 15.7191185,51.8439006 15.4666025,52.1458219 C15.2113417,52.4477432 15.2470233,52.8978805 15.5489446,53.1531412 C15.850866,53.408402 16.3010032,53.3699756 16.5562639,53.0680543" id="Fill-301"></path>
                    <path d="M18.3870082,47.5803912 C18.642269,47.2784699 18.6038426,46.8283327 18.3019213,46.5730719 C18,46.3178112 17.5498628,46.3562375 17.294602,46.6581588 C17.0393413,46.9573354 17.0777676,47.4102174 17.3796889,47.6627334 C17.6816102,47.9179942 18.1317475,47.8795678 18.3870082,47.5803912" id="Fill-302"></path>
                    <path d="M21.1315135,51.2382281 C21.3867743,50.9363068 21.3483479,50.4861696 21.0464266,50.2309088 C20.7445053,49.9783928 20.294368,50.0140744 20.041852,50.3159957 C19.7838465,50.6179171 19.8222729,51.0680543 20.1241942,51.3233151 C20.4261155,51.5785758 20.8762528,51.5401495 21.1315135,51.2382281" id="Fill-303"></path>
                    <path d="M7.40725423,56.7282708 C7.66251498,56.4263495 7.62408863,55.9762123 7.32216732,55.7209515 C7.020246,55.4656908 6.57010876,55.5041171 6.31759275,55.8060384 C6.062332,56.105215 6.09801361,56.558097 6.39993493,56.8133577 C6.70185625,57.0686185 7.15199348,57.0301921 7.40725423,56.7282708" id="Fill-304"></path>
                    <path d="M11.0669066,59.4724459 C11.3221673,59.1705246 11.283741,58.7203873 10.9818196,58.4651266 C10.6798983,58.2126106 10.2297611,58.2482922 9.97724508,58.5502135 C9.72198433,58.8521348 9.75766594,59.302272 10.0595873,59.5575328 C10.3615086,59.8127936 10.8116458,59.7743672 11.0669066,59.4724459" id="Fill-305"></path>
                    <path d="M11.8969656,53.8920435 C11.5950442,53.6367827 11.144907,53.6752091 10.8896462,53.9743856 C10.6371302,54.276307 10.6728118,54.7291889 10.9747332,54.981705 C11.2766545,55.2369657 11.7267917,55.2012841 11.9820525,54.8993628 C12.2373132,54.5974415 12.1988869,54.1473042 11.8969656,53.8920435" id="Fill-306"></path>
                    <path d="M15.6413509,57.6426197 C15.8966116,57.3434431 15.8581853,56.8905612 15.5590087,56.6353004 C15.2570874,56.3827844 14.8042054,56.418466 14.5516894,56.7203873 C14.2964286,57.0223086 14.3321102,57.4724459 14.6340316,57.7277066 C14.9359529,57.9829674 15.3860901,57.944541 15.6413509,57.6426197" id="Fill-307"></path>
                    <path d="M1.15807791,62.9496798 C1.13886474,63.3696249 1.11965156,63.7978042 1.10043839,64.2232388 C1.23767535,64.1875572 1.37765705,64.1463861 1.47646767,64.031107 C1.72898368,63.7291857 1.69330207,63.2790485 1.39138075,63.0237877 C1.32276227,62.9661482 1.23767535,62.9771272 1.15807791,62.9496798" id="Fill-308"></path>
                    <path d="M5.57742807,66.792766 C5.83268882,66.4908447 5.79426247,66.0407075 5.49234115,65.7854467 C5.19041983,65.530186 4.7402826,65.5686123 4.48776658,65.8705336 C4.23250583,66.1697102 4.26818744,66.6225922 4.57010876,66.8778529 C4.87203008,67.1331137 5.32216732,67.0919426 5.57742807,66.792766" id="Fill-309"></path>
                    <path d="M6.49290417,61.302272 C6.74816492,61.0003507 6.70973857,60.5502135 6.40781725,60.2949527 C6.10589594,60.0424367 5.6557587,60.0781183 5.40324269,60.3800397 C5.1452372,60.681961 5.18366355,61.1320982 5.48558487,61.387359 C5.78750618,61.6426197 6.23764342,61.6041934 6.49290417,61.302272" id="Fill-310"></path>
                    <path d="M10.1519935,64.9624886 C10.4072542,64.6605672 10.3688279,64.21043 10.0669066,63.9551693 C9.76498525,63.6999085 9.31484801,63.7383349 9.062332,64.0402562 C8.80707125,64.3394328 8.84275286,64.7923147 9.14467418,65.0475755 C9.4465955,65.3028362 9.89673273,65.2644099 10.1519935,64.9624886" id="Fill-311"></path>
                    <path d="M3.7483989,71.366316 C4.00365965,71.0643946 3.9652333,70.6142574 3.66331199,70.3589967 C3.36139067,70.1064806 2.91125343,70.1421623 2.65599268,70.4440836 C2.40073193,70.7460049 2.43915828,71.1961421 2.7410796,71.4514029 C3.04300091,71.7066636 3.49313815,71.6682373 3.7483989,71.366316" id="Fill-312"></path>
                    <path d="M25.0593207,47.6239707 C24.8040599,47.925892 24.8424863,48.3760293 25.1444076,48.63129 C25.1471523,48.6340348 25.1526418,48.63129 25.1553865,48.6340348 C25.2487077,48.2415371 25.3392841,47.8325709 25.4298605,47.431839 C25.2953682,47.4675206 25.1553865,47.5086917 25.0593207,47.6239707" id="Fill-313"></path>
                    <path d="M20.2168344,55.8133577 C20.4720952,55.5114364 20.4336688,55.0612992 20.1317475,54.8060384 C19.8298262,54.5507777 19.3796889,54.589204 19.1244282,54.8911253 C18.8691674,55.1903019 18.9075938,55.6431839 19.2095151,55.8984446 C19.5114364,56.1537054 19.9615737,56.115279 20.2168344,55.8133577" id="Fill-314"></path>
                    <path d="M22.4238817,57.7991766 C22.2591973,57.9913083 22.2564526,58.2328454 22.3278158,58.457914 C22.4019238,58.2191217 22.4760317,57.9748399 22.547395,57.7360476 C22.5089686,57.763495 22.4568186,57.7607502 22.4238817,57.7991766" id="Fill-315"></path>
                    <path d="M23.2342019,53.1491308 C23.000899,53.4263495 23.0393254,53.8161025 23.2781177,54.0768527 C23.379673,53.7090576 23.4839731,53.3440073 23.5827837,52.967978 C23.4592705,53.0064044 23.3247782,53.0393413 23.2342019,53.1491308" id="Fill-316"></path>
                    <path d="M14.7265589,62.2171851 C14.9818196,61.9152638 14.9433933,61.4651266 14.641472,61.2098658 C14.3395507,60.9573498 13.8894134,60.9930314 13.6368974,61.2949527 C13.3816367,61.5941293 13.4173183,62.0470113 13.7192396,62.302272 C14.0211609,62.5575328 14.4712981,62.5191065 14.7265589,62.2171851" id="Fill-317"></path>
                    <path d="M17.4720952,65.8774016 C17.7273559,65.5754803 17.6889296,65.1253431 17.3870082,64.8700823 C17.0850869,64.6148216 16.6349497,64.6532479 16.3796889,64.9551693 C16.1244282,65.2543458 16.1628545,65.7072278 16.4647758,65.9624886 C16.7666972,66.2177493 17.2168344,66.179323 17.4720952,65.8774016" id="Fill-318"></path>
                    <path d="M19.3019213,60.387359 C19.5571821,60.0854376 19.5187557,59.6353004 19.2168344,59.3800397 C18.9149131,59.1275237 18.4647758,59.1632053 18.2095151,59.4651266 C17.9542543,59.7670479 17.9926807,60.2171851 18.294602,60.4724459 C18.5965233,60.7277066 19.0466606,60.6892803 19.3019213,60.387359" id="Fill-319"></path>
                    <path d="M8.32216732,69.5364898 C8.57742807,69.2345685 8.53900172,68.7844312 8.2370804,68.5291705 C7.93515908,68.2766545 7.48502185,68.3123361 7.23250583,68.6142574 C6.97724508,68.9161787 7.01292669,69.366316 7.31484801,69.6215767 C7.61676933,69.8768375 8.06690657,69.8384111 8.32216732,69.5364898" id="Fill-320"></path>
                    <path d="M11.9818196,72.281229 C12.2370804,71.9793077 12.1986541,71.5291705 11.8967327,71.2739097 C11.5948114,71.0213937 11.1446742,71.0570753 10.8921582,71.3589967 C10.6368974,71.6581732 10.672579,72.1110552 10.9745003,72.366316 C11.2764217,72.6215767 11.7265589,72.5831504 11.9818196,72.281229" id="Fill-321"></path>
                    <path d="M12.8118786,66.7001425 C12.5099573,66.4448817 12.0598201,66.4833081 11.8045593,66.7852294 C11.5520433,67.0871507 11.5877249,67.537288 11.8896462,67.789804 C12.1915676,68.0478095 12.6417048,68.0093831 12.8969656,67.7074618 C13.1522263,67.4055405 13.1138,66.9554032 12.8118786,66.7001425" id="Fill-322"></path>
                    <path d="M16.5563851,70.4514029 C16.8116458,70.1494816 16.7732195,69.6993443 16.4712981,69.4440836 C16.1721216,69.1915676 15.7192396,69.2272492 15.4667236,69.5291705 C15.2114628,69.8310918 15.2471444,70.281229 15.5490658,70.5364898 C15.8509871,70.7917505 16.3011243,70.7533242 16.5563851,70.4514029" id="Fill-323"></path>
                    <path d="M2.83348582,75.9418969 C3.08874657,75.6399755 3.05032022,75.1898383 2.7483989,74.9345775 C2.44647758,74.6793168 1.99634035,74.7177431 1.7410796,75.0196645 C1.48581885,75.318841 1.5242452,75.771723 1.82616651,76.0269838 C2.12808783,76.2822445 2.57822507,76.2410734 2.83348582,75.9418969" id="Fill-324"></path>
                    <path d="M6.49234115,79.6005337 C6.7476019,79.2986124 6.70917555,78.8484752 6.40725423,78.5932144 C6.10533292,78.3406984 5.65519568,78.37638 5.40267967,78.6783013 C5.14741892,78.9802226 5.18310053,79.4303599 5.48502185,79.6856206 C5.78694316,79.9408814 6.2370804,79.902455 6.49234115,79.6005337" id="Fill-325"></path>
                    <path d="M7.40725423,74.1116194 C7.66251498,73.8096981 7.62408863,73.3595608 7.32216732,73.1043001 C7.020246,72.8490393 6.57010876,72.8874657 6.31759275,73.189387 C6.062332,73.4885636 6.09801361,73.9414456 6.39993493,74.1967063 C6.70185625,74.4519671 7.15199348,74.4135407 7.40725423,74.1116194" id="Fill-326"></path>
                    <path d="M11.0669066,76.8557945 C11.3221673,76.5566179 11.283741,76.1037359 10.9818196,75.8484752 C10.6798983,75.5959591 10.2297611,75.6316408 9.97724508,75.9335621 C9.72198433,76.2354834 9.75766594,76.6856206 10.0595873,76.9408814 C10.3615086,77.1961421 10.8116458,77.1577158 11.0669066,76.8557945" id="Fill-327"></path>
                    <path d="M1.39905079,81.452882 C1.65431154,81.1509607 1.61588519,80.7008234 1.31396387,80.4455627 C1.27553752,80.4126258 1.22064274,80.4263495 1.17672691,80.4016468 C1.19319534,80.7776761 1.21240852,81.1591949 1.23162169,81.5379689 C1.28377174,81.5022873 1.35513496,81.505032 1.39905079,81.452882" id="Fill-328"></path>
                    <path d="M4.58089963,83.3200709 C4.27897831,83.0648101 3.82884108,83.1032365 3.57358033,83.4051578 C3.35400119,83.6631633 3.39242753,84.0172347 3.58730402,84.2779849 L4.69892342,84.2176006 C4.87184199,83.9239135 4.84988408,83.5478843 4.58089963,83.3200709" id="Fill-329"></path>
                    <path d="M14.6355139,75.1116194 C14.9374352,75.3668801 15.3875724,75.3284538 15.6428332,75.0265325 C15.8953492,74.7246112 15.8596676,74.2744739 15.5577462,74.0192132 C15.2585697,73.7639524 14.8056877,73.8023788 14.5504269,74.1043001 C14.2951662,74.4062214 14.3335925,74.8563586 14.6355139,75.1116194" id="Fill-330"></path>
                    <path d="M9.2370804,82.345273 C9.49234115,82.0433516 9.4539148,81.5932144 9.15199348,81.3379537 C8.85007217,81.0854376 8.39993493,81.1211193 8.14741892,81.4230406 C7.89215817,81.7222172 7.92783978,82.1750991 8.22976109,82.4303599 C8.53168241,82.6856206 8.98181965,82.6471943 9.2370804,82.345273" id="Fill-331"></path>
                    <path d="M13.0347868,78.8117451 C12.8152077,79.0697506 12.853634,79.423822 13.0485105,79.6845722 C13.2378975,79.349714 13.4382635,78.9874084 13.6468637,78.6004002 C13.421795,78.5784423 13.1939817,78.6251028 13.0347868,78.8117451" id="Fill-332"></path>
                </g>
                <g id="leaf-2" transform="translate(2.744739, 236.962489)">
                    <path d="M4.51922834,1.42108547e-14 C1.14979928,11.0509925 -0.10553944,21.7652948 0.0068789533,31.8534161 L5.36236629,34.7325899 L0.403466062,40.2171798 C3.52307647,76.3594635 23.1713134,102.470265 23.1713134,102.470265 L33.0672547,99.8365293 C49.2523806,18.6501232 4.51922834,1.42108547e-14 4.51922834,1.42108547e-14" id="Fill-333" fill="#EAEBED"></path>
                    <path d="M17.3402996,48.4903934 C17.3054512,48.4903934 17.2706029,48.4903934 17.2357545,48.4841464 C16.7565898,48.4248001 16.4168184,47.9562761 16.474899,47.4440233 L19.3063271,21.8719876 C19.3644077,21.3566113 19.7825878,20.9849156 20.2762727,21.050509 C20.7525335,21.1098553 21.0923048,21.5783792 21.0371283,22.0906321 L18.2027961,47.6626678 C18.1505236,48.1405622 17.7759039,48.4903934 17.3402996,48.4903934" id="Fill-339" fill="#FFFFFF"></path>
                    <path d="M21.0010814,68.6184812 C20.6539423,68.6184812 20.3354661,68.4267842 20.1666737,68.1264588 C19.4341783,67.1967282 11.5550762,59.4425829 6.69512874,54.7076661 C6.31614201,54.3402467 6.30658773,53.7364011 6.6728354,53.3562019 C7.0454526,52.9760028 7.6473727,52.966418 8.02635942,53.3370322 C21.784533,66.7302654 21.8641521,67.1008797 21.9374016,67.4651041 C22.0456835,67.9826861 21.7144682,68.4906832 21.1985367,68.5993115 C21.1348415,68.6120913 21.0679615,68.6184812 21.0010814,68.6184812" id="Fill-340" fill="#FFFFFF"></path>
                    <path d="M28.3216127,101.555352 C27.8794982,101.555352 27.4819132,101.250144 27.3896735,100.806491 L8.25470387,10.2854831 C8.14656075,9.7757538 8.47735145,9.2754639 8.99262158,9.16848367 C9.51107238,9.06464991 10.0168005,9.38873708 10.1217629,9.89846642 L29.2567325,100.419474 C29.3648757,100.929203 29.034085,101.429493 28.5188148,101.536473 C28.4520206,101.549059 28.388407,101.555352 28.3216127,101.555352" id="Fill-334" fill="#FFFFFF"></path>
                </g>
                <g id="leaf-1" transform="translate(25.617566, 252.516011)">
                    <path d="M7.25220452,85.0869167 C7.25220452,85.0869167 -14.608263,39.7409314 17.5782065,3.12638804e-13 C17.5782065,3.12638804e-13 49.1063815,24.2037847 15.9022586,85.0869167 L7.25220452,85.0869167 Z" id="Fill-335" fill="#D6D7DC"></path>
                    <path d="M11.932772,86.0018298 C11.9010227,86.0018298 11.8724483,86.0018298 11.8406989,85.9986803 C11.3168351,85.9482885 10.9326682,85.4884627 10.9834672,84.9687967 L18.2254883,9.08810244 C18.2762872,8.56843637 18.7366524,8.1936469 19.2636912,8.23773978 C19.7875551,8.28498215 20.1717219,8.74795738 20.1240979,9.26762344 L12.8789019,85.1483177 C12.8344528,85.6364888 12.4185367,86.0018298 11.932772,86.0018298" id="Fill-336" fill="#FFFFFF"></path>
                </g>
                <g id="pot" transform="translate(15.553522, 336.688015)">
                    <polygon id="Fill-337" fill="#FFFFFF" points="31.7431863 33.8517841 7.60125122 33.8517841 0.914913083 0.914913083 38.4263495 0.914913083"></polygon>
                    <path d="M8.40347221,32.9043618 L30.9394549,32.9043618 L37.2325456,1.86233535 L2.10721271,1.86233535 L8.40347221,32.9043618 Z M31.7189616,34.7666972 L7.6239655,34.7666972 C7.17083761,34.7666972 6.78108426,34.453204 6.68919119,34.0155552 L0.0190219706,1.11429732 C-0.0380151059,0.841154801 0.0348656029,0.555596714 0.215483012,0.341428148 C0.39610042,0.12415569 0.66544217,-1.7408297e-13 0.950627553,-1.7408297e-13 L38.3891308,-1.7408297e-13 C38.6743162,-1.7408297e-13 38.9436579,0.12415569 39.1242753,0.341428148 C39.3048927,0.555596714 39.3777735,0.841154801 39.3239051,1.11429732 L32.6505672,34.0155552 C32.5650115,34.453204 32.1720895,34.7666972 31.7189616,34.7666972 L31.7189616,34.7666972 Z" id="Fill-338" fill="#AFB0B6"></path>
                    <path d="M2.74473925,7.77676121 L25.6175663,7.77676121 L2.74473925,7.77676121 Z" id="Fill-341" fill="#FFFFFF"></path>
                    <path d="M25.6011239,8.60018298 L2.7611817,8.60018298 C2.24893616,8.60018298 1.82982617,8.23238792 1.82982617,7.77676121 C1.82982617,7.32113449 2.24893616,6.95333943 2.7611817,6.95333943 L25.6011239,6.95333943 C26.1164739,6.95333943 26.5324794,7.32113449 26.5324794,7.77676121 C26.5324794,8.23238792 26.1164739,8.60018298 25.6011239,8.60018298" id="Fill-342" fill="#D6D7DC"></path>
                </g>
                <g id="lg-monitor" transform="translate(36.596523, 115.002745)">
                    <g id="Group" transform="translate(23.787740, 0.276304)">
                        <path d="M335.773102,240.622141 L0.914913083,240.622141 L0.914913083,5.78950412 C0.914913083,3.09747191 3.09292918,0.914913083 5.78323477,0.914913083 L330.90478,0.914913083 C333.591943,0.914913083 335.773102,3.09747191 335.773102,5.78950412 L335.773102,240.622141 Z" id="Fill-343" fill="#FFFFFF"></path>
                        <path d="M1.88543277,239.650562 L334.805724,239.650562 L334.805724,5.81668489 C334.805724,3.64721863 333.042845,1.8864924 330.880882,1.8864924 L5.81027532,1.8864924 C3.64831241,1.8864924 1.88543277,3.64721863 1.88543277,5.81668489 L1.88543277,239.650562 Z M336.688015,241.537054 L4.54747351e-13,241.537054 L4.54747351e-13,5.81668489 C4.54747351e-13,2.60964782 2.60503961,-2.4158453e-13 5.81027532,-2.4158453e-13 L330.880882,-2.4158453e-13 C334.082975,-2.4158453e-13 336.688015,2.60964782 336.688015,5.81668489 L336.688015,241.537054 Z" id="Fill-344" fill="#AFB0B6"></path>
                        <path d="M12.8087832,227.51313 L12.8087832,14.9388371 C12.8087832,14.2668988 13.3534768,13.7236962 14.0304082,13.7236962 L322.660755,13.7236962 C323.334538,13.7236962 323.879231,14.2668988 323.879231,14.9388371 L323.879231,227.51313 C323.879231,228.185068 323.334538,228.728271 322.660755,228.728271 L14.0304082,228.728271 C13.3534768,228.728271 12.8087832,228.185068 12.8087832,227.51313" id="Fill-345" fill="#FFFFFF"></path>
                        <path d="M14.0564923,14.6922524 C13.9053921,14.6922524 13.7826231,14.8146779 13.7826231,14.9684946 L13.7826231,227.486612 C13.7826231,227.637289 13.9053921,227.759715 14.0564923,227.759715 L322.631522,227.759715 C322.78577,227.759715 322.908539,227.637289 322.908539,227.486612 L322.908539,14.9684946 C322.908539,14.8146779 322.78577,14.6922524 322.631522,14.6922524 L14.0564923,14.6922524 Z M322.631522,229.643184 L14.0564923,229.643184 C12.86343,229.643184 11.8938701,228.676336 11.8938701,227.486612 L11.8938701,14.9684946 C11.8938701,13.7787698 12.86343,12.8087832 14.0564923,12.8087832 L322.631522,12.8087832 C323.824585,12.8087832 324.794145,13.7787698 324.794145,14.9684946 L324.794145,227.486612 C324.794145,228.676336 323.824585,229.643184 322.631522,229.643184 L322.631522,229.643184 Z" id="Fill-346" fill="#AFB0B6"></path>
                    </g>
                    <path d="M369.53584,255.537054 L14.7290407,255.537054 C11.8822155,255.537054 9.17678894,254.254722 7.32918053,252.032444 L1.50355812,245.026455 C0.152415915,243.401737 1.27732035,240.898445 3.35430871,240.898445 L380.910572,240.898445 C382.987561,240.898445 384.109323,243.401737 382.761323,245.026455 L376.935701,252.032444 C375.088092,254.254722 372.382666,255.537054 369.53584,255.537054" id="Fill-347" fill="#FFFFFF"></path>
                    <path d="M3.38268177,241.908914 C2.78575764,241.908914 2.27680128,242.242647 2.02860652,242.79459 C1.77727004,243.349741 1.8620961,243.959446 2.24852593,244.421537 L8.07324872,251.378585 C9.74463628,253.380983 12.1794584,254.529794 14.7556572,254.529794 L369.507666,254.529794 C372.080723,254.529794 374.518687,253.380983 376.190074,251.378585 L382.014797,244.421537 C382.404368,243.959446 382.486053,243.349741 382.234716,242.79459 C381.986522,242.242647 381.480707,241.908914 380.880641,241.908914 L3.38268177,241.908914 Z M369.507666,256.451967 L14.7556572,256.451967 C11.6265181,256.451967 8.67017285,255.062483 6.64063082,252.630083 L0.815908027,245.676245 C-0.0512028093,244.639747 -0.242846871,243.227801 0.316376784,241.989138 C0.87560044,240.753684 2.05059846,239.983532 3.38268177,239.983532 L380.880641,239.983532 C382.212724,239.983532 383.387722,240.753684 383.946946,241.989138 C384.50617,243.227801 384.314526,244.639747 383.450557,245.676245 L377.622692,252.633292 C375.596292,255.062483 372.633663,256.451967 369.507666,256.451967 L369.507666,256.451967 Z" id="Fill-348" fill="#88898E" opacity="0.5"></path>
                    <path d="M346.752059,25.8938701 L37.5114364,25.8938701 L37.5114364,15.0586485 C37.5114364,14.4732068 37.9990637,14 38.6062383,14 L346.752059,14 L346.752059,25.8938701 Z" id="Fill-349" fill="#F0F1F7"></path>
                    <path d="M211.668069,248.217749 L171.683641,248.217749 C170.34457,248.217749 169.25892,247.192219 169.25892,245.930256 L169.25892,241.813358 L214.089661,241.813358 L214.089661,245.930256 C214.089661,247.192219 213.007141,248.217749 211.668069,248.217749" id="Fill-350" fill="#FFFFFF"></path>
                    <path d="M170.219181,241.967441 L170.219181,245.581464 C170.219181,246.444465 170.884867,247.148753 171.703693,247.148753 L211.644889,247.148753 C212.463714,247.148753 213.129401,246.444465 213.129401,245.581464 L213.129401,241.967441 L170.219181,241.967441 Z M211.644889,249.132662 L171.703693,249.132662 C169.850397,249.132662 168.344007,247.542228 168.344007,245.581464 L168.344007,239.983532 L215.004575,239.983532 L215.004575,245.581464 C215.004575,247.542228 213.498185,249.132662 211.644889,249.132662 L211.644889,249.132662 Z" id="Fill-351" fill="#AFB0B6"></path>
                    <path d="M328.453797,19.946935 C328.453797,21.2112008 327.43078,22.2342177 326.166514,22.2342177 C324.902248,22.2342177 323.879231,21.2112008 323.879231,19.946935 C323.879231,18.6826693 324.902248,17.6596523 326.166514,17.6596523 C327.43078,17.6596523 328.453797,18.6826693 328.453797,19.946935" id="Fill-352" fill="#FFFFFF"></path>
                    <path d="M336.688015,19.946935 C336.688015,21.2112008 335.66568,22.2342177 334.402258,22.2342177 C333.138835,22.2342177 332.113449,21.2112008 332.113449,19.946935 C332.113449,18.6826693 333.138835,17.6596523 334.402258,17.6596523 C335.66568,17.6596523 336.688015,18.6826693 336.688015,19.946935" id="Fill-353" fill="#FFFFFF"></path>
                </g>
                <g id="boxes" transform="translate(191.216834, 172.918573)">
                    <polygon id="Fill-354" fill="#F0F1F7" points="-6.25277607e-13 64.0439158 64.0439158 64.0439158 64.0439158 2.84217094e-13 -6.25277607e-13 2.84217094e-13"></polygon>
                    <polygon id="Fill-367" fill="#F0F1F7" points="-6.25277607e-13 139.066789 64.0439158 139.066789 64.0439158 75.0228728 -6.25277607e-13 75.0228728"></polygon>
                    <polygon id="Fill-355" fill="#F0F1F7" points="68.6184812 64.0439158 176.578225 64.0439158 176.578225 2.84217094e-13 68.6184812 2.84217094e-13"></polygon>
                    <polygon id="Fill-356" fill="#F0F1F7" points="68.6184812 139.066789 176.578225 139.066789 176.578225 75.0228728 68.6184812 75.0228728"></polygon>
                    <polygon id="Fill-365" fill="#FFFFFF" points="19.2131747 56.7246112 57.6395242 56.7246112 57.6395242 49.4053065 19.2131747 49.4053065"></polygon>
                    <polygon id="Fill-366" fill="#FFFFFF" points="86.0018298 90.5763952 124.428179 90.5763952 124.428179 83.2570906 86.0018298 83.2570906"></polygon>
                </g>
                <g id="blue-lines" transform="translate(95.150961, 172.918573)" fill="#F0F1F7" fill-opacity="0.75">
                    <polygon id="Fill-357" points="-7.38964445e-13 6.40439158 75.9377859 6.40439158 75.9377859 2.84217094e-14 -7.38964445e-13 2.84217094e-14"></polygon>
                    <polygon id="Fill-358" points="-7.38964445e-13 24.7026532 75.9377859 24.7026532 75.9377859 18.2982617 -7.38964445e-13 18.2982617"></polygon>
                    <polygon id="Fill-359" points="-7.38964445e-13 43.915828 75.9377859 43.915828 75.9377859 37.5114364 -7.38964445e-13 37.5114364"></polygon>
                    <polygon id="Fill-360" points="-7.38964445e-13 62.2140897 75.9377859 62.2140897 75.9377859 55.8096981 -7.38964445e-13 55.8096981"></polygon>
                    <polygon id="Fill-361" points="-7.38964445e-13 80.5123513 75.9377859 80.5123513 75.9377859 74.1079597 -7.38964445e-13 74.1079597"></polygon>
                    <polygon id="Fill-362" points="-7.38964445e-13 99.7255261 75.9377859 99.7255261 75.9377859 93.3211345 -7.38964445e-13 93.3211345"></polygon>
                    <polygon id="Fill-363" points="-7.38964445e-13 118.023788 75.9377859 118.023788 75.9377859 111.619396 -7.38964445e-13 111.619396"></polygon>
                    <polygon id="Fill-364" points="-7.38964445e-13 136.322049 75.9377859 136.322049 75.9377859 129.917658 -7.38964445e-13 129.917658"></polygon>
                </g>
                <g id="green-code" transform="translate(28.362306, 179.322964)">
                    <path d="M61.5208848,41.1710887 L7.09759646,41.1710887 C3.17474421,41.1710887 -5.68434189e-13,37.9610964 -5.68434189e-13,34.0017883 L-5.68434189e-13,7.17247547 C-5.68434189e-13,3.20999234 3.17474421,-1.42108547e-13 7.09759646,-1.42108547e-13 L61.5208848,-1.42108547e-13 C65.4405937,-1.42108547e-13 68.6184812,3.20999234 68.6184812,7.17247547 L68.6184812,34.0017883 C68.6184812,37.9610964 65.4405937,41.1710887 61.5208848,41.1710887" id="Fill-368" fill="#AFB0B6"></path>
                    <path d="M15.5535224,19.9362312 L25.6175663,14.6386093 L25.6175663,16.8975102 C25.6175663,17.0650748 25.5761243,17.2229723 25.4932402,17.3647578 C25.4071682,17.5065433 25.2669028,17.625772 25.0724439,17.7288888 L20.466,20.1166855 C20.2715411,20.2198022 20.0675187,20.306807 19.8507448,20.3809221 C19.633971,20.4518149 19.4044458,20.5194852 19.1589813,20.5774884 C19.6307832,20.6870499 20.0675187,20.841725 20.466,21.0415137 L25.0724439,23.4389776 C25.2669028,23.5324271 25.4071682,23.6516558 25.4932402,23.7966637 C25.5761243,23.944894 25.6175663,24.1027915 25.6175663,24.2735786 L25.6175663,26.5324794 L15.5535224,21.2187455 L15.5535224,19.9362312 Z" id="Fill-369" fill="#FFFFFF"></path>
                    <path d="M31.2718306,29.021671 C31.1323965,29.4118246 30.9093019,29.7060387 30.5994483,29.9011155 C30.2926933,30.0961923 29.9766427,30.1921317 29.6574935,30.1921317 L28.3623056,30.1921317 L35.5664011,11.1705451 C35.6965396,10.8155693 35.8979444,10.543741 36.1706155,10.3486642 C36.4401881,10.1599833 36.7593373,10.0640439 37.1187674,10.0640439 L38.4263495,10.0640439 L31.2718306,29.021671 Z" id="Fill-370" fill="#FFFFFF"></path>
                    <path d="M52.1500457,21.2205288 L42.0860018,26.5324794 L42.0860018,24.2729664 C42.0860018,24.1053563 42.1274439,23.9474161 42.2135158,23.7991456 C42.2964,23.6540984 42.4366654,23.5348374 42.6311243,23.4381392 L47.2375682,21.0400256 C47.6105467,20.8530759 48.0472822,20.6983589 48.5477747,20.5790978 C48.2991224,20.5178557 48.0695972,20.4533903 47.8528233,20.379255 C47.6392373,20.3083431 47.4352149,20.2180915 47.2375682,20.1149468 L42.6311243,17.7297262 C42.4366654,17.6265816 42.2964,17.5073205 42.2135158,17.3654966 C42.1274439,17.2236727 42.0860018,17.0657324 42.0860018,16.894899 L42.0860018,14.6386093 L52.1500457,19.9376669 L52.1500457,21.2205288 Z" id="Fill-371" fill="#FFFFFF"></path>
                </g>
                <g id="Code-Badge" transform="translate(346.752059, 41.171089)">
                    <path d="M77.0224275,33.8517841 L7.1464431,33.8517841 C3.20195741,33.8517841 1.13686838e-13,30.6378477 1.13686838e-13,26.6684317 L1.13686838e-13,7.18020453 C1.13686838e-13,3.21393635 3.20195741,8.17124146e-14 7.1464431,8.17124146e-14 L77.0224275,8.17124146e-14 C80.9700463,8.17124146e-14 84.1720037,3.21393635 84.1720037,7.18020453 L84.1720037,26.6684317 C84.1720037,30.6378477 80.9700463,33.8517841 77.0224275,33.8517841" id="code-bkgd" fill="#88898E"></path>
                    <path d="M16.4684355,15.1557986 L22.8728271,11.8938701 L22.8728271,13.2829352 C22.8728271,13.3897864 22.848522,13.4877333 22.7938355,13.5738078 C22.7391491,13.6598824 22.6510431,13.7340846 22.5264795,13.7993825 L19.5946779,15.2656179 C19.4701143,15.3309158 19.3394744,15.3843414 19.2027583,15.4288627 C19.063004,15.470416 18.9202116,15.5149373 18.7622285,15.5505543 C19.063004,15.6188203 19.3394744,15.7137992 19.5946779,15.8354908 L22.5264795,17.3135985 C22.6510431,17.3699922 22.7391491,17.4441944 22.7938355,17.533237 C22.848522,17.6222797 22.8728271,17.7172585 22.8728271,17.8241096 L22.8728271,19.2131747 L16.4684355,15.94531 L16.4684355,15.1557986 Z" id="Fill-373" fill="#FFFFFF"></path>
                    <path d="M31.3860496,14.8234797 C31.3224588,14.9048487 31.265227,14.9699439 31.2048157,15.0155106 C31.147584,15.0610772 31.0585568,15.0838605 30.9472729,15.0838605 C30.8391685,15.0838605 30.7374231,15.0513129 30.6356778,14.9862177 C30.5307529,14.9178678 30.4099303,14.8430083 30.2700305,14.7583845 C30.1269511,14.6770155 29.961615,14.602156 29.7676629,14.5338061 C29.5737109,14.4687109 29.3320658,14.4361632 29.045907,14.4361632 C28.6770802,14.4361632 28.3559465,14.5012585 28.0793264,14.6379584 C27.8027063,14.7746583 27.5737793,14.9699439 27.3893659,15.2238152 C27.208132,15.4776865 27.0714117,15.783634 26.979205,16.1449123 C26.8901778,16.5061907 26.8456643,16.9162905 26.8456643,17.3687022 C26.8456643,17.8438971 26.8933574,18.267016 26.9919232,18.6348039 C27.090489,19.0025918 27.2335683,19.3150487 27.4211613,19.5656653 C27.6087542,19.8162818 27.8313221,20.0083127 28.0984036,20.1385031 C28.3623056,20.2654387 28.6611825,20.3305339 28.9918548,20.3305339 C29.3288862,20.3305339 29.5959677,20.2914768 29.8026379,20.2035983 C30.0061286,20.1222293 30.1810034,20.031096 30.3209032,19.9269437 C30.460803,19.8260461 30.5848051,19.7349128 30.68973,19.650289 C30.7914753,19.56892 30.9122979,19.5233534 31.0426591,19.5233534 C31.2079953,19.5233534 31.3351769,19.5917034 31.4210246,19.7251485 L32.0219579,20.5030362 C31.7898514,20.7796908 31.5386676,21.0140335 31.2684066,21.2028096 C30.9981455,21.3915857 30.7183459,21.5380499 30.4258281,21.6519665 C30.1364898,21.7658831 29.8376129,21.8439974 29.5291973,21.889564 C29.2207818,21.9383854 28.9187254,21.957914 28.6134894,21.957914 C28.0761468,21.957914 27.5737793,21.8570164 27.096848,21.6519665 C26.6262759,21.4469167 26.2097559,21.1474787 25.8568268,20.7536527 C25.5007182,20.3630815 25.2209185,19.8846318 25.0142483,19.3150487 C24.8107577,18.7454657 24.7026532,18.0977684 24.7026532,17.3687022 C24.7026532,16.7177501 24.7980395,16.1123647 24.9792734,15.5590555 C25.1636868,14.9992368 25.4339478,14.5175323 25.7868769,14.1106872 C26.1461651,13.7038422 26.5817623,13.3848757 27.1063867,13.1537877 C27.631011,12.9226998 28.2351239,12.8087832 28.9187254,12.8087832 C29.5673518,12.8087832 30.1333102,12.9129355 30.6229596,13.1277497 C31.1094295,13.3425638 31.5482062,13.6485113 31.9361103,14.045592 L31.3860496,14.8234797 Z" id="Fill-374" fill="#FFFFFF"></path>
                    <path d="M37.0661787,20.311591 C37.7584629,20.311591 38.2708143,20.0643172 38.6032327,19.566516 C38.9356511,19.0719684 39.1033852,18.346415 39.1033852,17.3898558 C39.1033852,16.430043 38.9356511,15.701236 38.6032327,15.2001812 C38.2708143,14.6958727 37.7584629,14.4453453 37.0661787,14.4453453 C36.3647453,14.4453453 35.8432449,14.6958727 35.5047271,15.2034348 C35.1662092,15.7077432 34.9954254,16.4365502 34.9954254,17.3898558 C34.9954254,18.3399078 35.1662092,19.0654612 35.5047271,19.566516 C35.8432449,20.0643172 36.3647453,20.311591 37.0661787,20.311591 M37.0661787,12.8087832 C37.6822202,12.8087832 38.2433669,12.9161521 38.7496188,13.1308898 C39.2558707,13.342374 39.6858798,13.6449591 40.0487954,14.038645 C40.4086612,14.4290773 40.6861848,14.9106105 40.8783166,15.4767374 C41.0704483,16.0428643 41.1710887,16.6740632 41.1710887,17.3703342 C41.1710887,18.076366 41.0704483,18.7108185 40.8783166,19.2736918 C40.6861848,19.836565 40.4086612,20.3213518 40.0487954,20.7182914 C39.6858798,21.1184845 39.2558707,21.4243232 38.7496188,21.6358073 C38.2433669,21.8505451 37.6822202,21.957914 37.0661787,21.957914 C36.4440378,21.957914 35.8767917,21.8505451 35.3705398,21.6358073 C34.8612382,21.4243232 34.4281793,21.1184845 34.0683135,20.7182914 C33.7084477,20.3213518 33.4309241,19.836565 33.2326929,19.2736918 C33.0375114,18.7108185 32.936871,18.076366 32.936871,17.3703342 C32.936871,16.6740632 33.0375114,16.0428643 33.2326929,15.4767374 C33.4309241,14.9106105 33.7084477,14.4290773 34.0683135,14.038645 C34.4281793,13.6449591 34.8612382,13.342374 35.3705398,13.1308898 C35.8767917,12.9161521 36.4440378,12.8087832 37.0661787,12.8087832" id="Fill-375" fill="#FFFFFF"></path>
                    <path d="M46.1342188,20.2862266 C46.5836562,20.2862266 46.9642017,20.1963855 47.279136,20.0134945 C47.5907896,19.8306036 47.8860405,19.5707059 48.1648885,19.2370102 L48.1648885,15.3096678 C47.9221267,15.017684 47.6564009,14.8155414 47.3677112,14.6968227 C47.0790215,14.5781041 46.7706484,14.5171404 46.4393114,14.5171404 C46.1112549,14.5171404 45.8192846,14.5781041 45.5568394,14.6968227 C45.2943942,14.8155414 45.0713158,14.9984324 44.8843236,15.2390783 C44.700612,15.4797243 44.5595477,15.7877512 44.4578502,16.1599503 C44.3594333,16.5321494 44.3069442,16.9717294 44.3069442,17.4786902 C44.3069442,17.9888597 44.3528721,18.4252311 44.4348863,18.7781785 C44.5201809,19.1375432 44.6415618,19.4231097 44.799029,19.6509212 C44.9564961,19.8755241 45.1467688,20.0391634 45.3764084,20.1354218 C45.6027673,20.2348888 45.8553708,20.2862266 46.1342188,20.2862266 L46.1342188,20.2862266 Z M49.0047131,21.8295695 C48.7193039,21.8295695 48.5388729,21.701225 48.4634199,21.4445359 L48.2797082,20.6038793 C48.0959966,20.8060219 47.8991627,20.9921215 47.6957677,21.1557607 C47.4923727,21.3226086 47.2725748,21.4637876 47.0363742,21.5825063 C46.8001735,21.701225 46.54757,21.7974833 46.2785637,21.8616556 C46.0062768,21.9258279 45.7143065,21.957914 45.3993723,21.957914 C44.9105682,21.957914 44.4644113,21.858447 44.0576213,21.6627216 C43.6475507,21.460579 43.2998108,21.1718038 43.00456,20.7931875 C42.7125897,20.4145711 42.4862307,19.9493222 42.3254831,19.3910236 C42.1647354,18.8327249 42.0860018,18.1974195 42.0860018,17.4786902 C42.0860018,16.8305504 42.1745771,16.2241225 42.3550081,15.6690325 C42.5354392,15.1139424 42.7913233,14.6262333 43.132502,14.2155308 C43.4704002,13.8080369 43.8739097,13.4903842 44.3430304,13.2593641 C44.8154318,13.0251354 45.3468833,12.9128339 45.9308238,12.9128339 C46.4327502,12.9128339 46.8625042,12.9930492 47.2135247,13.1470627 C47.5678257,13.3042847 47.8860405,13.5128445 48.1648885,13.7759508 L48.1648885,9.14913083 L50.3202196,9.14913083 L50.3202196,21.8295695 L49.0047131,21.8295695 Z" id="Fill-376" fill="#FFFFFF"></path>
                    <path d="M56.5161268,14.34123 C55.8862767,14.34123 55.3916301,14.5169246 55.0354845,14.8683137 C54.6760413,15.2229564 54.4485038,15.7207576 54.3495745,16.3649709 L58.4386534,16.3649709 C58.4386534,16.0884147 58.395784,15.8281265 58.3199382,15.5841063 C58.2374971,15.3400861 58.1220795,15.1220947 57.9637926,14.9398929 C57.8088033,14.7544376 57.6043494,14.6080255 57.3636213,14.5006566 C57.1228933,14.3965413 56.8392959,14.34123 56.5161268,14.34123 M56.4732574,12.8087832 C57.0404522,12.8087832 57.56148,12.899884 58.0429361,13.0755786 C58.5210945,13.2577803 58.9333,13.5180686 59.2795527,13.8629504 C59.6225077,14.2045787 59.8929145,14.6242935 60.0907732,15.1220947 C60.2886318,15.6264031 60.3842635,16.19253 60.3842635,16.8334897 C60.3842635,17.1555964 60.3479894,17.3768414 60.2820365,17.4874639 C60.2094883,17.5980864 60.0742849,17.6566512 59.8764263,17.6566512 L54.3067051,17.6566512 C54.3429792,18.1121556 54.4221226,18.5058415 54.5507308,18.837709 C54.6793389,19.1663229 54.8508164,19.4428791 55.0618656,19.6608705 C55.2696172,19.8756083 55.5202382,20.0382884 55.8104309,20.1424037 C56.1006236,20.2497726 56.4204951,20.3050838 56.7700454,20.3050838 C57.1228933,20.3050838 57.4229789,20.262787 57.6801952,20.1814469 C57.9341138,20.1033605 58.155056,20.0122596 58.3463193,19.9146515 C58.5342851,19.8170434 58.7024649,19.7259425 58.8442636,19.6478561 C58.98936,19.5632624 59.127861,19.5242192 59.2630644,19.5242192 C59.4444349,19.5242192 59.5796383,19.5892912 59.665377,19.7226889 L60.2886318,20.5035536 C60.0479038,20.7801098 59.7774969,21.0143692 59.480709,21.1998246 C59.183921,21.3885335 58.8739424,21.5381992 58.5474756,21.6488217 C58.2243065,21.7626978 57.8912444,21.8440379 57.5548847,21.8863347 C57.2218226,21.9351388 56.8920582,21.957914 56.578782,21.957914 C55.9522296,21.957914 55.3685466,21.8570523 54.8310305,21.6488217 C54.2935145,21.4470984 53.8285467,21.1412597 53.4262341,20.7410666 C53.0305168,20.3408734 52.7205382,19.8430722 52.4897031,19.2541701 C52.2621657,18.6620144 52.1500457,17.9755043 52.1500457,17.1978932 C52.1500457,16.5894695 52.2489751,16.0233426 52.4468337,15.4897518 C52.6446924,14.9529074 52.9315874,14.4908958 53.3009236,14.0939562 C53.6735574,13.7002703 54.1253347,13.3846708 54.6628507,13.1569187 C55.1970691,12.9226593 55.800538,12.8087832 56.4732574,12.8087832" id="Fill-377" fill="#FFFFFF"></path>
                    <path d="M68.6184812,15.9423419 L62.2140897,19.2131747 L62.2140897,17.8241096 C62.2140897,17.7172585 62.2383832,17.6193116 62.2960804,17.5302689 C62.350741,17.4412263 62.4388052,17.3670241 62.560273,17.3106304 L65.4937212,15.8325227 C65.7305835,15.7167672 66.0099595,15.6247565 66.3257759,15.5475862 C66.1678677,15.5119692 66.025143,15.470416 65.885455,15.4258946 C65.7488037,15.3843414 65.6182257,15.3279477 65.4937212,15.2626498 L62.560273,13.7964144 C62.4388052,13.7340846 62.350741,13.6569143 62.2960804,13.5708397 C62.2383832,13.4847652 62.2140897,13.3897864 62.2140897,13.2829352 L62.2140897,11.8938701 L68.6184812,15.1528306 L68.6184812,15.9423419 Z" id="Fill-378" fill="#FFFFFF"></path>
                </g>
                <g id="laptop" transform="translate(255.260750, 194.876487)">
                    <path d="M56.9246358,0.914913083 C58.7551012,0.914913083 60.3741162,2.09309428 60.9264118,3.827377 L69.9059131,32.0219131 L85.6192041,32.0219579 C88.3521361,32.0219579 90.5763952,34.0915207 90.5763952,36.6307714 C90.5763952,37.1180727 90.1530277,37.5114364 89.6285575,37.5114364 L10.5157042,37.5114364 C10.1049745,37.5114364 9.74479619,37.2677858 9.61525837,36.9096487 L8.28196667,33.1815002 C8.1871829,32.9114296 8.23421775,32.6178746 8.41466395,32.3859661 C8.59159365,32.1569932 8.87910442,32.0219579 9.18241248,32.0219579 L9.28891308,32.0219131 L1.11437745,6.3565393 C0.255952308,3.66086072 2.27577618,0.914913083 5.11299752,0.914913083 L56.9246358,0.914913083 Z" id="Fill-423" fill="#FFFFFF"></path>
                    <path d="M11.4640981,35.6291196 L70.0421124,35.6291196 L60.0026896,4.13482255 C59.57387,2.78582885 58.3284014,1.87917959 56.9095131,1.87917959 L5.14531562,1.87917959 C4.09849138,1.87917959 3.14310661,2.36230757 2.52510193,3.20307574 C1.90709726,4.0438439 1.73367758,5.0979413 2.04898609,6.08929481 L11.4640981,35.6291196 Z M71.3317242,37.5114364 L10.7704194,37.5114364 C10.3573652,37.5114364 9.99476045,37.2447749 9.86863705,36.8557627 L0.24542143,6.66026424 C-0.255919095,5.08539253 0.0183993058,3.41954217 0.999008761,2.09250883 C1.97646513,0.7623383 3.48679288,-2.84217094e-14 5.14531562,-2.84217094e-14 L56.9095131,-2.84217094e-14 C59.1576628,-2.84217094e-14 61.1251879,1.43369795 61.8062542,3.56385312 L72.2335066,36.2847933 C72.324946,36.5734152 72.2744967,36.8808603 72.0947708,37.1255615 C71.918198,37.3671255 71.6344204,37.5114364 71.3317242,37.5114364 L71.3317242,37.5114364 Z" id="Fill-387" fill="#D6D7DC"></path>
                    <path d="M64.3616174,33.8517841 L16.4897318,33.8517841 C15.8367907,33.8517841 15.2591889,33.4307796 15.0551448,32.8071866 L6.48215336,6.57512788 C6.15882194,5.59067388 6.88396329,4.57456542 7.91360122,4.57456542 L55.7854868,4.57456542 C56.438428,4.57456542 57.0160297,4.99873531 57.2200738,5.62232835 L65.7962044,31.8543871 C66.1195359,32.8388411 65.3912554,33.8517841 64.3616174,33.8517841" id="Fill-388" fill="#D6D7DC"></path>
                </g>
                <g id="gray-pants" transform="translate(297.346752, 239.707228)">
                    <path d="M59.3835427,124.232702 L60.3842635,129.002745 L29.2772187,128.963448 L29.2772187,128.570479 C29.2772187,127.536667 29.9579598,126.614701 30.9712288,126.279165 L47.5411572,120.768527 L50.0696242,123.625111 C50.0696242,123.625111 53.9783957,126.363805 59.3835427,124.232702" id="Fill-392" fill="#88898E"></path>
                    <polygon id="Fill-393" fill="#88898E" points="29.2772187 129.575023 29.2772187 131.175206 61.2991766 131.145014 60.8910911 129.610704"></polygon>
                    <path d="M31.021338,124.232702 L32.0219579,129.002745 L0.914913083,128.963448 L0.914913083,128.570479 C0.914913083,127.536667 1.59872228,126.614701 2.61188911,126.279165 L19.1801467,120.768527 L21.7083587,123.625111 C21.7083587,123.625111 25.616736,126.363805 31.021338,124.232702" id="Fill-396" fill="#88898E"></path>
                    <polygon id="Fill-397" fill="#88898E" points="5.68434189e-13 129.575023 5.68434189e-13 131.175206 32.0219579 131.145014 31.6139131 129.610704"></polygon>
                    <path d="M56.1113667,-7.81597009e-14 L56.1113667,4.02995413 L19.0072679,10.6238525 C12.9545813,11.6997653 7.68987417,15.3993954 4.61644049,20.7317703 C2.17715757,24.9693567 1.30127606,29.9305102 2.13948525,34.7469503 L16.8159944,118.938701 L32.672903,118.938701 L29.6842321,33.5043025 L30.8332379,27.2879173 L67.8305985,27.2879173 L75.0228728,-7.81597009e-14 L56.1113667,-7.81597009e-14 Z" id="Fill-407" fill="#88898E"></path>
                    <polygon id="Fill-420" fill="#88898E" points="31.2513379 62.7718107 44.3518784 118.023788 61.2991766 118.023788 51.7821777 32.936871 30.1921317 32.936871"></polygon>
                    <path d="M38.5451385,119.786397 C38.5588871,120.201414 38.6654391,120.895934 39.181013,121.299658 C39.696587,121.706206 40.5386911,121.734439 41.0508279,121.748555 C41.0405164,121.330714 40.9305273,120.641841 40.4149534,120.235293 C39.9028166,119.831569 39.0675868,119.800513 38.5451385,119.786397 L38.5451385,119.786397 Z M40.9717732,122.598353 C40.2809041,122.598353 39.2085103,122.49107 38.469521,121.912304 C37.328384,121.020157 37.5208649,119.413728 37.5277392,119.348793 C37.5517993,119.156812 37.7305316,119.004357 37.9642585,118.973301 C38.0433132,118.964831 39.9853084,118.727678 41.1264454,119.622648 C42.2675824,120.517618 42.0785387,122.121224 42.0682272,122.188982 C42.0441671,122.37814 41.8654348,122.533418 41.6351451,122.561651 C41.6076478,122.564474 41.3429865,122.598353 40.9717732,122.598353 L40.9717732,122.598353 Z" id="Fill-394" fill="#AFB0B6"></path>
                    <path d="M10.1828329,119.786397 C10.1965815,120.201414 10.3031335,120.895934 10.8187074,121.299658 C11.3308442,121.706206 12.1798227,121.734439 12.6885223,121.748555 C12.6782108,121.330714 12.5682217,120.641841 12.0526478,120.235293 C11.5370738,119.831569 10.6984069,119.800513 10.1828329,119.786397 L10.1828329,119.786397 Z M12.6094676,122.598353 C11.9185986,122.598353 10.8462047,122.49107 10.1072154,121.912304 C8.96607837,121.020157 9.15855931,119.413728 9.16543363,119.348793 C9.18949375,119.156812 9.36822606,119.004357 9.60195291,118.973301 C9.68100759,118.964831 11.6230028,118.727678 12.7641398,119.622648 C13.9052769,120.517618 13.7162331,122.121224 13.7059216,122.188982 C13.6818615,122.37814 13.5031292,122.533418 13.2728395,122.561651 C13.2453422,122.564474 12.9806809,122.598353 12.6094676,122.598353 L12.6094676,122.598353 Z" id="Fill-398" fill="#AFB0B6"></path>
                </g>
                <g id="desk" transform="translate(220.494053, 230.558097)">
                    <path d="M178.561337,10.0640439 L4.42127974,10.0640439 C1.98000534,10.0640439 -2.4158453e-13,8.01466459 -2.4158453e-13,5.48785459 C-2.4158453e-13,2.96104458 1.98000534,0.914913083 4.42127974,0.914913083 L178.561337,0.914913083 C181.002611,0.914913083 182.982617,2.96104458 182.982617,5.48785459 C182.982617,8.01466459 181.002611,10.0640439 178.561337,10.0640439" id="Fill-399" fill="#FFFFFF"></path>
                    <path d="M5.35806447,1.92782388 C3.44133298,1.92782388 1.87908701,3.5279177 1.87908701,5.49108502 C1.87908701,7.45746538 3.44133298,9.05434616 5.35806447,9.05434616 L179.454378,9.05434616 C181.37111,9.05434616 182.930219,7.45746538 182.930219,5.49108502 C182.930219,3.5279177 181.37111,1.92782388 179.454378,1.92782388 L5.35806447,1.92782388 Z M179.454378,10.978957 L5.35806447,10.978957 C2.40297271,10.978957 1.56319402e-13,8.52098155 1.56319402e-13,5.49108502 C1.56319402e-13,2.46440153 2.40297271,1.11022302e-13 5.35806447,1.11022302e-13 L179.454378,1.11022302e-13 C182.40947,1.11022302e-13 184.812443,2.46440153 184.812443,5.49108502 C184.812443,8.52098155 182.40947,10.978957 179.454378,10.978957 L179.454378,10.978957 Z" id="Fill-400" fill="#D6D7DC"></path>
                </g>
                <g id="Skin" transform="translate(284.559927, 133.577310)">
                    <polygon id="Fill-391" fill="#FFCEC8" points="72.2561757 230.767097 71.150282 224.153705 60.3623056 224.153705 60.3623056 226.983299 60.3623056 230.767097 64.5527287 233.302836 68.267397 233.302836"></polygon>
                    <polygon id="Fill-395" fill="#FFCEC8" points="43.8938701 230.767097 42.7879765 224.153705 32 224.153705 32 226.983299 32 230.767097 36.1904231 233.302836 39.9050914 233.302836"></polygon>
                    <path d="M78.8212374,1.27174128 L76.8307411,20.07896 C76.8307411,20.07896 76.7161703,25.0014213 85.3147805,24.9444776 L86.2224115,31.1070448 L102.448307,30.4015764 L100.601199,19.7942418 L99.0343407,0 L78.8212374,1.27174128 Z" id="Fill-401" fill="#FFCEC8"></path>
                    <path d="M12.7599389,54.894785 L11.5302015,53.0623749 L8.04284026,49.3473515 L5.59889252,49.0775103 C5.28835279,49.0461334 4.99644543,48.9143505 4.76354063,48.7041254 L2.11153127,46.3351705 C1.81030773,46.1563222 1.75441057,45.7641112 1.93141822,45.5507483 C2.0773719,45.3719001 2.38480624,45.3248347 2.62392184,45.4879946 L3.51517089,46.0402278 L1.44076544,43.4422216 C1.34449812,43.316714 1.33518193,43.1410035 1.42213306,43.0092206 C1.50287339,42.8899884 1.64882706,42.8272346 1.79478074,42.8586115 C1.51529498,42.4883643 1.23891461,42.118117 0.959428846,41.7510074 C0.844529144,41.5407823 0.881793912,41.2834918 1.04637997,41.1234697 C1.19854444,40.9759983 1.43144925,40.9446215 1.62398388,41.0387521 C2.7854025,41.976921 3.94682112,42.9119522 5.10513434,43.8469834 L7.05532389,44.264296 L4.88775653,42.8146839 L2.06805571,40.2668807 C1.96868299,40.1507862 1.94073442,39.9939018 1.99663157,39.8621189 C2.06495031,39.6958214 2.25437955,39.5954154 2.45001959,39.6362053 C5.04613179,40.8410777 7.6391386,42.0522255 10.2352508,43.2602356 L12.84689,44.6188548 L13.089111,44.2172307 L12.2661807,42.5040527 C11.9960111,41.9455441 11.8655844,41.3274195 11.8904276,40.7061571 C11.9183762,39.9688003 12.4990855,39.3757772 13.2288539,39.3412626 L13.8592495,41.8231743 C13.8592495,41.8231743 15.222519,44.5215865 15.2753107,44.6188548 C15.3281025,44.7129855 17.3683486,48.8829736 17.3683486,48.8829736 L19.1912168,51.5437336 L12.7599389,54.894785 Z" id="Fill-383" fill="#FFCEC8"></path>
                    <path d="M6.98806403,47.5754803 C6.94769433,47.5754803 6.91042998,47.5691625 6.87006028,47.5533681 L3.81438413,46.2771754 C3.77711979,46.2613809 3.74606617,46.2392686 3.71811791,46.2108386 L0.988504767,43.5478919 C0.86429029,43.427854 0.861184928,43.2256848 0.979188682,43.0993291 C1.09408707,42.9729734 1.29283024,42.9666556 1.42015008,43.0898525 L4.10628815,45.7148924 L7.10606778,46.9689729 C7.26444124,47.0353096 7.33896993,47.2216843 7.27375733,47.379629 C7.2271769,47.5028258 7.11227851,47.5754803 6.98806403,47.5754803" id="Fill-384" fill="#FFABA1"></path>
                    <path d="M6.95258133,48.2444428 C6.90758018,48.2444428 6.86604066,48.2389534 6.82103951,48.2252297 L4.34597624,47.4182763 C4.3148216,47.4072974 4.28712858,47.3935737 4.26289719,47.37985 L2.8505534,46.4768308 C2.70170344,46.3807649 2.68093367,46.2105911 2.79862899,46.0925673 C2.91978593,45.9772882 3.13786843,45.958075 3.28671839,46.0486514 L4.65406104,46.926968 L7.08412316,47.7174529 C7.26066613,47.7750924 7.34374518,47.937032 7.27105101,48.074269 C7.21912661,48.1840586 7.08758479,48.2444428 6.95258133,48.2444428" id="Fill-385" fill="#FFABA1"></path>
                </g>
                <g id="black-hair" transform="translate(362.305581, 124.428179)" fill="#000000">
                    <path d="M11.5338047,19.5142204 C11.5338047,19.5142204 15.6993595,17.937973 16.3237268,21.7203401 C16.9480941,25.5027073 12.7825392,25.5027073 10.9094374,25.5027073 C10.9094374,25.5027073 8.36848005,30.9647337 13.6491983,32.3310237 C18.9268103,33.6941801 23.3439758,32.3310237 23.3439758,32.3310237 C23.3439758,32.3310237 29.1217028,12.5072835 29.1310217,12.4759465 C29.8144088,10.1319444 27.9599448,6.79769528 26.5093004,5.19951198 C22.8562859,1.16958312 16.2367502,-0.0337548967 11.0399022,0.000715723424 C6.5481854,0.0320526508 2.48824495,1.62710226 0.506422453,5.93592978 C-0.969072354,9.13856376 0.919560999,12.7642463 4.35824048,13.4003859 C5.5262111,13.6166107 6.93957981,13.7200225 8.65115379,13.6416802 C9.98997118,13.5790064 11.3039381,14.3091568 11.863073,15.540698 C12.3165935,16.5466134 12.4594835,17.8941013 11.5338047,19.5142204" id="Fill-402"></path>
                </g>
                <g id="green-shirt" transform="translate(294.602013, 162.854529)">
                    <path d="M66.3045211,2.18897853 L96.3747481,0.0637711919 C97.6019121,-0.024779114 98.8353532,-0.0216166031 100.059379,0.0764212356 L102.105698,0.231384271 C106.355264,0.563447918 110.416518,1.85375238 114.019547,3.95049712 C118.856017,6.76513184 122.559479,11.1989722 124.954175,16.2842897 L132.662397,32.6660963 L92.8847061,76.852699 L59.1078787,76.852699 L59.1078787,51.7676623 L50.6621026,62.8997008 C47.7903504,66.6852264 43.3430576,68.9179591 38.616436,68.9527467 C33.6920872,68.9875343 29.0533443,66.6346262 26.1502068,62.6308874 L6.53699317e-13,26.5782628 L10.2221824,19.7472392 L33.7768274,45.8347918 L47.978662,14.918085 C49.5918649,11.4108604 52.0932709,8.38749995 55.2349364,6.15792975 C58.4958659,3.84297175 62.3217303,2.47044201 66.3045211,2.18897853" id="Fill-403" fill="#4B4D53"></path>
                    <path d="M59.0118939,53.0649588 C58.5562672,53.0649588 58.1884721,52.6318391 58.1884721,52.0952879 L58.1884721,38.4778752 C58.1884721,37.9413239 58.5562672,37.5114364 59.0118939,37.5114364 C59.4675206,37.5114364 59.8353156,37.9413239 59.8353156,38.4778752 L59.8353156,52.0952879 C59.8353156,52.6318391 59.4675206,53.0649588 59.0118939,53.0649588" id="Fill-404" fill="#FAFAFC"></path>
                </g>
                <g id="chiar" transform="translate(311.070448, 193.046661)">
                    <g id="chair-leg" transform="translate(47.575480, 72.278134)" fill="#D6D7DC">
                        <path d="M5.03202196,98.0372829 C3.34262987,98.0372829 1.96876627,99.410698 1.96876627,101.099539 C1.96876627,102.785093 3.34262987,104.158508 5.03202196,104.158508 C6.72141405,104.158508 8.09527765,102.785093 8.09527765,101.099539 C8.09527765,99.410698 6.72141405,98.0372829 5.03202196,98.0372829 M5.03202196,106.129918 C2.25800071,106.129918 -5.12478948e-13,103.872654 -5.12478948e-13,101.099539 C-5.12478948e-13,98.3231373 2.25800071,96.0658737 5.03202196,96.0658737 C7.80604321,96.0658737 10.0640439,98.3231373 10.0640439,101.099539 C10.0640439,103.872654 7.80604321,106.129918 5.03202196,106.129918" id="Fill-379"></path>
                        <path d="M47.5454305,98.2616651 L3.68970215,98.2616651 C3.16682268,98.2616651 2.74473925,97.8938701 2.74473925,97.4382434 C2.74473925,96.9826167 3.16682268,96.6148216 3.68970215,96.6148216 L47.5454305,96.6148216 C48.06831,96.6148216 48.4903934,96.9826167 48.4903934,97.4382434 C48.4903934,97.8938701 48.06831,98.2616651 47.5454305,98.2616651" id="Fill-380"></path>
                        <path d="M25.1601098,97.8956999 C24.7044831,97.8956999 24.336688,97.4744403 24.336688,96.9525814 L24.336688,0.943118496 C24.336688,0.421259595 24.7044831,-8.52651283e-14 25.1601098,-8.52651283e-14 C25.6157365,-8.52651283e-14 25.9835316,0.421259595 25.9835316,0.943118496 L25.9835316,96.9525814 C25.9835316,97.4744403 25.6157365,97.8956999 25.1601098,97.8956999" id="Fill-381"></path>
                        <path d="M48.0329369,98.0372829 C46.3435448,98.0372829 44.9696812,99.410698 44.9696812,101.099539 C44.9696812,102.785093 46.3435448,104.158508 48.0329369,104.158508 C49.722329,104.158508 51.0961926,102.785093 51.0961926,101.099539 C51.0961926,99.410698 49.722329,98.0372829 48.0329369,98.0372829 M48.0329369,106.129918 C45.2556289,106.129918 43.0009149,103.872654 43.0009149,101.099539 C43.0009149,98.3231373 45.2556289,96.0658737 48.0329369,96.0658737 C50.8102449,96.0658737 53.0649588,98.3231373 53.0649588,101.099539 C53.0649588,103.872654 50.8102449,106.129918 48.0329369,106.129918" id="Fill-382"></path>
                    </g>
                    <polygon id="Fill-405" fill="#FFFFFF" points="1.82982617 79.5974382 108.555207 79.5974382 109.78957 73.1930467 1.82982617 73.1930467"></polygon>
                    <path d="M1.89448854,78.5944435 L107.733248,78.5944435 L108.601556,74.1960414 L1.89448854,74.1960414 L1.89448854,78.5944435 Z M108.509989,80.5123513 L0.947244271,80.5123513 C0.426259922,80.5123513 -4.61852778e-13,80.0840186 -4.61852778e-13,79.5533974 L-4.61852778e-13,73.2370875 C-4.61852778e-13,72.7064663 0.426259922,72.2781336 0.947244271,72.2781336 L109.757194,72.2781336 C110.041367,72.2781336 110.309753,72.4059941 110.492887,72.62975 C110.669706,72.8503094 110.742328,73.1443886 110.685493,73.4256818 L109.438288,79.7387952 C109.346721,80.1895035 108.958351,80.5123513 108.509989,80.5123513 L108.509989,80.5123513 Z" id="Fill-406" fill="#AFB0B6" opacity="0.5"></path>
                    <polygon id="Fill-421" fill="#FFFFFF" points="43.0009149 74.1079597 62.2659514 0.914913083 129.002745 0.914913083 109.96642 74.1079597"></polygon>
                    <path d="M44.2464625,73.1376392 L109.229525,73.1376392 L127.760328,1.88209159 L63.005848,1.88209159 L44.2464625,73.1376392 Z M109.955978,75.0228728 L43.0252706,75.0228728 C42.7340633,75.0228728 42.4616436,74.8877644 42.2831617,74.6521102 C42.1046798,74.4227401 42.0420546,74.1211027 42.1172049,73.8414597 L61.3713297,0.700678504 C61.4809238,0.285927103 61.8566751,-5.68434189e-14 62.2793954,-5.68434189e-14 L128.978389,-5.68434189e-14 C129.269596,-5.68434189e-14 129.545147,0.135108411 129.720498,0.364478504 C129.89898,0.593848598 129.961605,0.898628037 129.886455,1.18141308 L110.864043,74.3190523 C110.75758,74.7338037 110.38496,75.0228728 109.955978,75.0228728 L109.955978,75.0228728 Z" id="Fill-422" fill="#88898E" opacity="0.5"></path>
                </g>
            </g>
        </g>
    </g>
</svg>