<?xml version="1.0" encoding="UTF-8"?>
<svg width="244px" height="93px" viewBox="0 0 244 93" version="1.1" xmlns="http://www.w3.org/2000/svg" xmlns:xlink="http://www.w3.org/1999/xlink">
    <!-- Generator: Sketch 60.1 (88133) - https://sketch.com -->
    <title>SenchaLogoLg</title>
    <desc>Created with Sketch.</desc>
    <defs>
        <polygon id="path-1" points="0 0.194257461 61.1962678 0.194257461 61.1962678 92.7909426 0 92.7909426"></polygon>
        <polygon id="path-3" points="0 0.194257461 44.7143471 0.194257461 44.7143471 81.2985958 0 81.2985958"></polygon>
        <path d="M5.73534647,2.38238859 C5.43070108,2.38238859 5.12454379,2.37559901 4.81687462,2.36126545 L4.81687462,2.36126545 C3.21276163,2.28922045 1.62376753,2.02216359 0.0846657183,1.56688445 L0.0846657183,1.56688445 C1.76664093,11.2488272 7.92040236,19.3993422 16.349555,23.8193595 L16.349555,23.8193595 L16.3503109,23.8201139 L16.3612721,23.8265263 L16.3639179,23.8269035 L16.3737452,23.8329387 C16.3786588,23.8363335 16.3839504,23.8389739 16.389242,23.8408599 L16.389242,23.8408599 L16.4213696,23.8578338 L16.4255273,23.860097 L16.4334647,23.863869 L16.4391343,23.8672638 C16.4421581,23.8691498 16.4444259,23.8702814 16.4466938,23.871413 L16.4466938,23.871413 C16.4485836,23.8721674 16.4508515,23.8736762 16.4523633,23.8744306 L16.4523633,23.8744306 L16.4595448,23.8785798 L16.4678602,23.882729 L16.4731518,23.8853694 C16.4780654,23.8876325 16.4826011,23.8898957 16.4867588,23.8925361 L16.4867588,23.8925361 L18.424621,24.8619374 L18.424999,24.8619374 C15.3093761,17.1625524 13.9445194,8.75403332 14.5953871,0.278750027 L14.5953871,0.278750027 C11.8486649,1.66457898 8.81317212,2.38502898 5.73534647,2.38238859" id="path-5"></path>
        <linearGradient x1="53.2216095%" y1="34.4243905%" x2="43.4074875%" y2="89.8525336%" id="linearGradient-7">
            <stop stop-color="#A9CF37" offset="0%"></stop>
            <stop stop-color="#2FA148" offset="100%"></stop>
        </linearGradient>
        <path d="M0.232452754,16.1226149 C3.82432026,14.3097967 6.77703719,11.4479882 8.69864662,7.91891484 L8.69864662,7.91891484 L10.2732778,5.11293182 L9.23461085,4.59352886 C9.17375737,4.56448454 9.11365983,4.53506302 9.05356228,4.50450991 L9.05356228,4.50450991 L9.05318431,4.50450991 C9.04902662,4.50224671 9.0452469,4.49998352 9.04071124,4.49809752 L9.04071124,4.49809752 L9.04033327,4.49809752 C9.03617557,4.49583433 9.03201788,4.49357114 9.02748222,4.49168514 L9.02748222,4.49168514 L9.01614306,4.48564996 L9.01463117,4.48489556 L9.00404796,4.47923758 L9.00178013,4.47810598 L8.99195286,4.47320239 L8.98817314,4.4716936 L8.9806137,4.46754441 C8.97872384,4.46679001 8.97721195,4.46565841 8.97532209,4.46490402 L8.97532209,4.46490402 L8.97040845,4.46226362 C8.96738468,4.46113203 8.96473887,4.46000043 8.96247104,4.45811444 L8.96247104,4.45811444 C6.95695184,3.42987009 5.24625076,1.9108899 3.98873806,0.0433778797 L3.98873806,0.0433778797 C1.87625279,5.32039124 0.646710018,10.734705 0.232452754,16.1226149 M20.3095672,43.9802664 C19.5948222,43.9802664 18.8759195,43.9644241 18.1543711,43.9312306 L18.1543711,43.9312306 C14.151648,43.7494207 10.189746,43.0527342 6.36618167,41.8570135 L6.36618167,41.8570135 L22.4795042,49.917378 C26.9134932,52.0628856 29.9731762,56.5964398 29.9731762,61.8447861 L29.9731762,61.8447861 L29.9731762,61.9360682 C29.9727982,61.9398402 29.9727982,61.9439894 29.9727982,61.9481386 L29.9727982,61.9481386 L29.9727982,61.9666213 L29.9724202,61.9737881 L29.9724202,61.9967972 L29.9720423,62.0032096 L29.9720423,62.0198064 L29.9720423,62.0269732 L29.9720423,62.0318768 L29.9712863,62.0586579 L29.9712863,62.0612983 C29.9168584,65.4794752 28.5644747,68.5830682 26.3843325,70.9028417 L26.3843325,70.9028417 C25.3808169,71.9718236 24.207592,72.8672939 22.9115261,73.553796 L22.9115261,73.553796 L26.9153831,71.5127725 L29.1469295,70.376272 C39.4084901,65.2644718 46.4553993,54.6844183 46.4553993,42.4620406 L46.4553993,42.4620406 L45.8438407,36.3152065 C38.4926641,41.1682482 29.7014143,43.9802664 20.3095672,43.9802664" id="path-8"></path>
        <path d="M8.69826864,3.01570564 C6.77703719,6.54477905 3.82394229,9.40621031 0.232074782,11.2190285 L0.232074782,11.2190285 C-0.418414956,19.6931802 0.94644178,28.1016993 4.06168665,35.8010843 L4.06168665,35.8010843 L6.36618167,36.9534271 C10.189746,38.1491478 14.151648,38.8458343 18.1543711,39.0276442 L18.1543711,39.0276442 C18.8759195,39.0608377 19.5944442,39.07668 20.3099451,39.07668 L20.3099451,39.07668 C29.7017923,39.07668 38.4930421,36.2646618 45.8434627,31.4119973 L45.8434627,31.4119973 C44.1225564,22.8273263 38.8729039,15.514193 31.6630888,11.049289 L31.6630888,11.049289 L31.660443,11.0477802 L31.6521276,11.0428766 C30.9800935,10.6272033 30.2921845,10.2371796 29.5902906,9.87355982 L29.5902906,9.87355982 L10.2728998,0.210099817 L8.69826864,3.01570564 Z" id="path-10"></path>
    </defs>
    <g id="Mockups" stroke="none" stroke-width="1" fill="none" fill-rule="evenodd">
        <g id="03-Simple-Create-an-Account---Enabled" transform="translate(-2738.000000, -490.000000)">
            <g id="Desktop" transform="translate(2220.000000, 280.000000)">
                <g id="Login-Form" transform="translate(470.000000, 180.000000)">
                    <g id="SenchaLogoLg" transform="translate(48.000000, 30.000000)">
                        <g id="Group-5" transform="translate(70.000000, 27.000000)" fill="#072D40">
                            <path d="M8.47811128,29.1545387 C8.92304911,30.0305487 9.51365784,30.7394608 10.2503149,31.2824326 C10.9865945,31.8254044 11.8511853,32.2279059 12.8448421,32.4907089 C13.837744,32.753126 14.8649881,32.8843346 15.9269517,32.8843346 C16.6462489,32.8843346 17.4168707,32.8237471 18.2388169,32.7002567 C19.0607631,32.5783099 19.8313848,32.3417486 20.5503047,31.9913446 C21.269602,31.6417125 21.8681359,31.159714 22.3481706,30.546507 C22.8274505,29.9344577 23.0674678,29.1545387 23.0674678,28.2090654 C23.0674678,27.1937428 22.7504638,26.3706021 22.1172105,25.7400293 C21.482825,25.1098424 20.6529537,24.5842364 19.6257096,24.1639831 C18.5980881,23.7437299 17.4334757,23.37596 16.1326269,23.0610595 C14.830646,22.746159 13.5124375,22.3961409 12.1768692,22.0102334 C10.8065815,21.6609872 9.47101325,21.2314721 8.17016449,20.723232 C6.86780619,20.2161495 5.70394847,19.5597209 4.6767044,18.7535602 C3.64946033,17.9481712 2.81845686,16.9413386 2.18520353,15.7330623 C1.55119543,14.5247859 1.23494616,13.0629684 1.23494616,11.3464519 C1.23494616,9.42115945 1.63723939,7.7482505 2.44220324,6.33004049 C3.24641232,4.91183048 4.29931863,3.72979585 5.60129954,2.78432251 C6.90252568,1.83846326 8.37546235,1.13842708 10.0193548,0.683056249 C11.6632472,0.228071324 13.3071396,-1.63424829e-13 14.951032,-1.63424829e-13 C16.8685292,-1.63424829e-13 18.7090396,0.219195452 20.473318,0.65681454 C22.2368418,1.09520544 23.8033701,1.8041175 25.1736578,2.78432251 C26.5431908,3.76491343 27.6308166,5.01679731 28.4357805,6.53997416 C29.2399895,8.06353691 29.6430375,9.91126195 29.6430375,12.0819916 L21.8345485,12.0819916 C21.7654869,10.9617021 21.5345268,10.0335946 21.1412909,9.29805496 C20.7469227,8.56251529 20.2246208,7.98481178 19.5743851,7.56455853 C18.9233947,7.14430528 18.1784352,6.84715652 17.3395066,6.67156861 C16.5002006,6.49675252 15.5842854,6.40876561 14.5913834,6.40876561 C13.9403929,6.40876561 13.2894025,6.47938668 12.6391668,6.61908519 C11.9881763,6.75916961 11.3975676,7.00460677 10.8669632,7.35423895 C10.3356041,7.70464295 9.89896871,8.14226204 9.5570572,8.66786803 C9.21439092,9.19270221 9.04343517,9.85877853 9.04343517,10.6637815 C9.04343517,11.3993212 9.17967143,11.9951624 9.45403089,12.4497614 C9.72801296,12.9055181 10.2672972,13.3257714 11.0726385,13.7105211 C11.8764702,14.0964286 12.9901356,14.4815643 14.4113704,14.8663141 C15.8322278,15.2522216 17.6904754,15.7419382 19.9853582,16.3370075 C20.669936,16.4774778 21.6201934,16.731019 22.8361304,17.0987889 C24.0516899,17.4665587 25.258947,18.053524 26.4579016,18.858527 C27.6564788,19.6646877 28.6924028,20.7413696 29.5660508,22.0889586 C30.4393215,23.4380911 30.8759569,25.1623258 30.8759569,27.263592 C30.8759569,28.9797226 30.5498955,30.5731346 29.9000372,32.0438281 C29.2490468,33.5149074 28.2818071,34.784543 26.9975633,35.852349 C25.7129421,36.9209269 24.1207515,37.7525575 22.2198594,38.3476268 C20.3189673,38.9426962 18.1180534,39.2406168 15.6186275,39.2406168 C13.5977267,39.2406168 11.637585,38.9863037 9.73669283,38.4788354 C7.83617808,37.971753 6.15756617,37.1744681 4.70236663,36.0889103 C3.24641232,35.0037385 2.0904797,33.6198742 1.23494616,31.9388612 C0.37865784,30.2578482 -0.032692652,28.2619347 0.00202683906,25.9503489 L7.81013846,25.9503489 C7.81013846,27.2111086 8.03279607,28.2796865 8.47811128,29.1545387" id="Fill-1"></path>
                            <path d="M49.9750734,17.5978444 C49.1018027,16.6176394 47.7737822,16.1267651 45.9936535,16.1267651 C44.829041,16.1267651 43.8618013,16.3289806 43.0911795,16.7310962 C42.3205578,17.1339836 41.7039094,17.632962 41.2416119,18.2284173 C40.7793143,18.8242584 40.4536304,19.4544453 40.2656923,20.1193639 C40.0769994,20.7850544 39.9656706,21.3801237 39.9317058,21.9057297 L51.7989788,21.9057297 C51.4563126,20.0143971 50.8479667,18.5788213 49.9750734,17.5978444 M41.729949,31.886455 C42.8254999,32.9720127 44.4010855,33.5149846 46.4559511,33.5149846 C47.928133,33.5149846 49.1957718,33.1387248 50.2577353,32.3854334 C51.3185667,31.6329138 51.9699346,30.8356289 52.2095746,29.9951224 L58.6311709,29.9951224 C57.6035494,33.2521816 56.0275864,35.5815192 53.9047914,36.9815915 C51.7812417,38.3828216 49.2123768,39.0828578 46.1989514,39.0828578 C44.1097437,39.0828578 42.225834,38.7417156 40.5483542,38.0586593 C38.8697423,37.3756031 37.4485075,36.403888 36.2846497,35.1431283 C35.1200372,33.8823685 34.220727,32.3769434 33.5874736,30.6253093 C32.9534655,28.874833 32.6372163,26.9483828 32.6372163,24.8471165 C32.6372163,22.8164714 32.9621454,20.9255247 33.6131359,19.1738906 C34.2633715,17.4230283 35.1879667,15.9087274 36.3872987,14.62983 C37.5854985,13.3520903 39.0150358,12.3448717 40.6766654,11.6093321 C42.3375401,10.8737924 44.1780506,10.5064085 46.1989514,10.5064085 C48.4594921,10.5064085 50.4286911,10.9529034 52.1069256,11.8458934 C53.7847828,12.7388833 55.1637504,13.9386697 56.2419415,15.4440948 C57.3212648,16.9502917 58.0994343,18.6668082 58.579469,20.5921006 C59.0583715,22.5185508 59.2293273,24.5318301 59.093091,26.6334823 L39.9317058,26.6334823 C40.0347322,29.0496491 40.633266,30.8008972 41.729949,31.886455" id="Fill-3"></path>
                            <path d="M69.1307223,11.241678 L69.1307223,15.0239573 L69.2846957,15.0239573 C70.2092909,13.4479111 71.4078681,12.30138 72.8808047,11.5832061 C74.3529866,10.8658041 75.8602654,10.5061383 77.4011315,10.5061383 C79.3533481,10.5061383 80.9538412,10.7778172 82.2044976,11.3204031 C83.4543993,11.8637609 84.4389988,12.6166664 85.1582961,13.5795056 C85.8775934,14.5427306 86.3825355,15.7158894 86.6734999,17.0989818 C86.9644644,18.4828461 87.1105127,20.0145129 87.1105127,21.69514 L87.1105127,38.3999173 L79.8156457,38.3999173 L79.8156457,23.0608666 C79.8156457,20.8202877 79.4729794,19.1473788 78.7884016,18.0444552 C78.1026917,16.9411457 76.8878869,16.3896839 75.1409681,16.3896839 C73.1544094,16.3896839 71.7161923,16.9936291 70.8259392,18.2019054 C69.9349314,19.4101818 69.4899936,21.3983771 69.4899936,24.1641761 L69.4899936,38.3999173 L62.195504,38.3999173 L62.195504,11.241678 L69.1307223,11.241678 Z" id="Fill-5"></path>
                            <path d="M103.851685,16.126958 C102.687073,16.126958 101.711153,16.3986369 100.923549,16.9412228 C100.13519,17.4845806 99.4932569,18.1850027 98.997372,19.0424891 C98.5003549,19.9011333 98.1497635,20.8466066 97.9444657,21.879295 C97.7387904,22.9123694 97.6357641,23.9369537 97.6357641,24.9522763 C97.6357641,25.9332532 97.7387904,26.9312099 97.9444657,27.9461466 C98.1497635,28.9626269 98.4833726,29.8818586 98.9460475,30.7042274 C99.4083451,31.527754 100.032919,32.2015485 100.8209,32.7267685 C101.608504,33.2519886 102.567819,33.5147916 103.697712,33.5147916 C105.444253,33.5147916 106.787746,33.0158132 107.730079,32.0174706 C108.671656,31.0195138 109.262642,29.6800289 109.50266,27.9990159 L116.540527,27.9990159 C116.060492,31.6064791 114.691337,34.3552981 112.430419,36.2462448 C110.170255,38.1375774 107.276084,39.0830507 103.749414,39.0830507 C101.762478,39.0830507 99.9389495,38.7415226 98.2780747,38.0588523 C96.6164451,37.375796 95.2038902,36.4218327 94.0400325,35.1958046 C92.87542,33.9705484 91.9674298,32.5087308 91.3171941,30.8091942 C90.6665811,29.1112013 90.3412745,27.2464963 90.3412745,25.2146934 C90.3412745,23.1138131 90.6405414,21.1615071 91.2402074,19.3577755 C91.8391187,17.5544298 92.7210692,15.9957495 93.8860591,14.6825063 C95.0499168,13.3692632 96.4711516,12.3446788 98.1497635,11.6091391 C99.8272433,10.8739854 101.745495,10.5062155 103.903387,10.5062155 C105.478218,10.5062155 106.993422,10.7161492 108.449753,11.1364024 C109.904576,11.5570416 111.205802,12.1961044 112.353432,13.0539767 C113.500685,13.9126209 114.434337,14.9804269 115.153257,16.2581666 C115.872932,17.537064 116.283527,19.0517509 116.386554,20.8022272 L109.24566,20.8022272 C108.765625,17.6856384 106.967759,16.126958 103.851685,16.126958" id="Fill-7"></path>
                            <path d="M126.788173,0.893028512 L126.788173,15.0238029 L126.942524,15.0238029 C127.867119,13.4481426 129.048714,12.3012256 130.486931,11.5830518 C131.925149,10.8656498 133.329401,10.5063699 134.699311,10.5063699 C136.651528,10.5063699 138.252021,10.7780488 139.5023,11.3206347 C140.752579,11.8639924 141.737179,12.616512 142.456476,13.5793512 C143.175773,14.5429622 143.680715,15.715735 143.97168,17.0988275 C144.262644,18.4826917 144.408315,20.0143585 144.408315,21.6953715 L144.408315,38.4001489 L137.113826,38.4001489 L137.113826,23.0610981 C137.113826,20.8201333 136.771159,19.1476103 136.086581,18.0443008 C135.400872,16.9409913 134.186067,16.3895295 132.439148,16.3895295 C130.452589,16.3895295 129.013995,16.9938606 128.124119,18.202137 C127.233111,19.4100274 126.788173,21.3982228 126.788173,24.1640217 L126.788173,38.4001489 L119.493684,38.4001489 L119.493684,0.893028512 L126.788173,0.893028512 Z" id="Fill-9"></path>
                            <path d="M165.264578,25.109688 C164.956253,25.3906287 164.570943,25.6090523 164.108645,25.7665025 C163.646347,25.9239528 163.149708,26.0551613 162.618726,26.1605141 C162.087367,26.2654809 161.5311,26.3534678 160.949171,26.4229312 C160.366488,26.4935522 159.784559,26.5807673 159.203007,26.6857342 C158.654288,26.790701 158.115004,26.9311713 157.5844,27.1059874 C157.053041,27.2815753 156.590743,27.5181366 156.197507,27.8152854 C155.803516,28.113206 155.486512,28.4898517 155.24725,28.9448366 C155.006855,29.4002074 154.887601,29.9779109 154.887601,30.678333 C154.887601,31.3436375 155.006855,31.9043611 155.24725,32.3589601 C155.486512,32.8147169 155.812196,33.1736108 156.223169,33.4360279 C156.634142,33.6988309 157.113045,33.882137 157.661764,33.9874897 C158.208973,34.0924565 158.774297,34.14494 159.356981,34.14494 C160.795198,34.14494 161.907354,33.9002746 162.695713,33.4097862 C163.483317,32.9196837 164.065246,32.3327184 164.442254,31.6496622 C164.818885,30.9669918 165.050222,30.2758315 165.135889,29.5746376 C165.221178,28.8749873 165.264578,28.3142638 165.264578,27.8940105 L165.264578,25.109688 Z M148.415058,19.5942982 C148.517329,17.843436 148.945285,16.3897225 149.698924,15.2339295 C150.451809,14.0785225 151.411123,13.1508009 152.575736,12.4499929 C153.739593,11.7495709 155.049877,11.2505925 156.505831,10.9526719 C157.960653,10.6555231 159.42491,10.5061769 160.897847,10.5061769 C162.233792,10.5061769 163.585966,10.6030397 164.956253,10.7952216 C166.325786,10.9881754 167.576065,11.3648211 168.706336,11.9243869 C169.836229,12.4851105 170.760824,13.2642577 171.480499,14.2622145 C172.199419,15.2601712 172.559067,16.5826762 172.559067,18.2281857 L172.559067,32.3589601 C172.559067,33.5853741 172.627374,34.758147 172.764742,35.8784364 C172.900979,36.9998835 173.140996,37.84039 173.483662,38.3999559 L166.086524,38.3999559 C165.948778,37.9800886 165.837827,37.5513453 165.752537,37.1129544 C165.666493,36.6757213 165.606112,36.2288404 165.572524,35.7738555 C164.407912,36.9998835 163.038002,37.85737 161.463171,38.3478584 C159.887208,38.837575 158.278035,39.0830121 156.634142,39.0830121 C155.366504,39.0830121 154.185286,38.9255619 153.089358,38.6102755 C151.993052,38.2949891 151.03487,37.8048866 150.212546,37.139582 C149.3906,36.4742775 148.748667,35.633771 148.286369,34.6180625 C147.824072,33.6027399 147.592734,32.3944636 147.592734,30.9932335 C147.592734,29.4526908 147.857659,28.1830552 148.389018,27.1847126 C148.919622,26.1867558 149.6042,25.3906287 150.444261,24.7947875 C151.282812,24.1997181 152.241749,23.7528373 153.320695,23.4553026 C154.399641,23.1577679 155.486512,22.9215926 156.582818,22.7460047 C157.678369,22.5711886 158.757315,22.4307182 159.818901,22.3257514 C160.880487,22.2207846 161.822442,22.0629484 162.644766,21.8530147 C163.466334,21.6430811 164.11657,21.3366705 164.596605,20.9337831 C165.075885,20.5316675 165.298165,19.9443163 165.264578,19.174045 C165.264578,18.368656 165.135889,17.7292073 164.879267,17.2564707 C164.622267,16.783734 164.279601,16.4159642 163.851645,16.1535471 C163.422935,15.8907441 162.92705,15.715928 162.362104,15.6279411 C161.797157,15.5411119 161.188434,15.4967325 160.538576,15.4967325 C159.099981,15.4967325 157.969711,15.812019 157.147764,16.4422059 C156.325818,17.0723928 155.845783,18.1232189 155.709547,19.5942982 L148.415058,19.5942982 Z" id="Fill-11"></path>
                        </g>
                        <g id="Sencha-logo">
                            <g id="Group-19" transform="translate(0.000000, 0.182941)">
                                <g id="Group-15">
                                    <mask id="mask-2" fill="white">
                                        <use xlink:href="#path-1"></use>
                                    </mask>
                                    <g id="Clip-14"></g>
                                    <path d="M60.5847092,55.5525417 L60.5843312,55.5529189 C58.8634249,46.9678707 53.6141504,39.6551146 46.4039573,35.1902106 C46.4032014,35.1902106 46.4016895,35.1887018 46.4013115,35.1887018 L46.3929961,35.1837982 C46.3907283,35.1822894 46.3880825,35.1804034 46.3858147,35.1792718 C45.7160484,34.7651074 45.0304072,34.3765925 44.3311591,34.0141043 L25.0137683,24.3510215 L25.0137683,24.3513987 L25.0137683,24.3510215 L25.0141463,24.3502671 L23.9754794,23.8308641 C23.9146259,23.8018198 23.8545283,23.7720211 23.7944308,23.7418452 L23.7940528,23.7418452 C23.7898951,23.739582 23.7861154,23.7373188 23.7815798,23.7350556 L23.7812018,23.7350556 C23.7770441,23.7331696 23.7725084,23.7309064 23.7683507,23.7286432 L23.7570116,23.7229852 L23.7554997,23.7218536 L23.7449165,23.7165728 L23.7422707,23.715064 L23.7328214,23.7105376 L23.7290417,23.7086516 L23.7214822,23.7045025 C23.7195924,23.7037481 23.7180805,23.7029937 23.7161906,23.7022393 L23.710899,23.6995989 C23.7082532,23.6980901 23.7056074,23.6969585 23.7033396,23.6950725 C21.6981983,22.6668281 19.9867413,21.1482251 18.7296066,19.2803359 C17.3099439,17.1717938 16.4821853,14.633622 16.4821853,11.9019472 C16.4821853,6.82673527 19.3430551,2.41841109 23.5430795,0.194068862 L17.3080541,3.37347884 C7.04611542,8.48414747 -3.77971957e-05,19.0630693 -3.77971957e-05,31.2850698 L0.46297785,36.6473302 L0.463355822,36.6473302 L0.46297785,36.6461986 L0.486790083,36.6541197 L0.463355822,36.6473302 C2.14457509,46.3288957 8.29833652,54.4794107 16.7274891,58.8990508 L16.7282451,58.8998052 L16.7392063,58.9058404 L16.7414741,58.9065948 C16.7448758,58.9081036 16.7486556,58.910744 16.7516793,58.9122528 C16.756593,58.9152704 16.7618846,58.918288 16.7671762,58.9205512 L16.7993038,58.9375251 L16.8034615,58.9394111 L16.8113989,58.9435603 L16.8174465,58.9469551 L16.8250059,58.9511043 L16.8310534,58.9541219 L16.8382349,58.9578939 L16.8457944,58.9620431 L16.851086,58.9650607 C16.8559996,58.9673239 16.8605353,58.969587 16.8650709,58.9718502 L18.8021772,59.9412515 C18.7995314,59.9355936 18.7976415,59.9299356 18.7953737,59.9242776 L18.8029331,59.9416287 L18.8021772,59.9412515 L18.8021772,59.9420059 L21.1070502,61.0939716 L37.2207507,69.1547132 C41.6547397,71.3002208 44.7140447,75.8337751 44.7140447,81.0821213 L44.7140447,81.1734035 C44.7136667,81.1771755 44.7136667,81.1809474 44.7136667,81.1850966 L44.7136667,81.2039566 L44.7132888,81.2107462 L44.7132888,81.2341325 L44.7129108,81.2405449 L44.7129108,81.2571416 L44.7129108,81.2643084 L44.7129108,81.269212 L44.7121548,81.2959931 L44.7121548,81.2986335 C44.6577269,84.7164332 43.3053432,87.8204034 41.125201,90.140177 C40.1220634,91.2087816 38.9484605,92.1042519 37.6527726,92.7911312 L41.6562516,90.7501077 L43.888176,89.6136073 C54.1493587,84.5014298 61.1962678,73.9217536 61.1962678,61.6989987 L60.5847092,55.5525417" id="Fill-13" fill="#7DBA42" mask="url(#mask-2)"></path>
                                </g>
                                <g id="Group-18">
                                    <mask id="mask-4" fill="white">
                                        <use xlink:href="#path-3"></use>
                                    </mask>
                                    <g id="Clip-17"></g>
                                    <path d="M-0.000113391587,31.2850321 C-0.000113391587,19.0634088 7.04603983,8.48410975 17.3083564,3.37306392 L23.5433818,0.194031142 C19.3433574,2.41875057 16.4821097,6.82669755 16.4821097,11.9019095 C16.4821097,14.6335843 17.3098683,17.1717561 18.729531,19.2806754 C16.6170457,24.5573116 15.3875029,29.9716254 14.9732457,35.3595352 C12.2265235,36.744987 9.19103068,37.4658142 6.11320504,37.463181 C5.80855964,37.463181 5.50240236,37.456007 5.19473318,37.4416734 C3.59099817,37.3696284 2.00200406,37.1029488 0.462902256,36.6476696 L-0.000113391587,31.2850321 Z" id="Fill-16" fill="#C4D73E" mask="url(#mask-4)"></path>
                                </g>
                            </g>
                            <g id="Group-22" transform="translate(0.377972, 35.262444)">
                                <mask id="mask-6" fill="white">
                                    <use xlink:href="#path-5"></use>
                                </mask>
                                <g id="Clip-21"></g>
                                <path d="M5.73534647,2.38238859 C5.43070108,2.38238859 5.12454379,2.37559901 4.81687462,2.36126545 L4.81687462,2.36126545 C3.21276163,2.28922045 1.62376753,2.02216359 0.0846657183,1.56688445 L0.0846657183,1.56688445 C1.76664093,11.2488272 7.92040236,19.3993422 16.349555,23.8193595 L16.349555,23.8193595 L16.3503109,23.8201139 L16.3612721,23.8265263 L16.3639179,23.8269035 L16.3737452,23.8329387 C16.3786588,23.8363335 16.3839504,23.8389739 16.389242,23.8408599 L16.389242,23.8408599 L16.4213696,23.8578338 L16.4255273,23.860097 L16.4334647,23.863869 L16.4391343,23.8672638 C16.4421581,23.8691498 16.4444259,23.8702814 16.4466938,23.871413 L16.4466938,23.871413 C16.4485836,23.8721674 16.4508515,23.8736762 16.4523633,23.8744306 L16.4523633,23.8744306 L16.4595448,23.8785798 L16.4678602,23.882729 L16.4731518,23.8853694 C16.4780654,23.8876325 16.4826011,23.8898957 16.4867588,23.8925361 L16.4867588,23.8925361 L18.424621,24.8619374 L18.424999,24.8619374 C15.3093761,17.1625524 13.9445194,8.75403332 14.5953871,0.278750027 L14.5953871,0.278750027 C11.8486649,1.66457898 8.81317212,2.38502898 5.73534647,2.38238859" id="Fill-20" fill="url(#linearGradient-7)" mask="url(#mask-6)"></path>
                            </g>
                            <g id="Group-25" transform="translate(14.740906, 19.420088)">
                                <mask id="mask-9" fill="white">
                                    <use xlink:href="#path-8"></use>
                                </mask>
                                <g id="Clip-24"></g>
                                <path d="M0.232452754,16.1226149 C3.82432026,14.3097967 6.77703719,11.4479882 8.69864662,7.91891484 L8.69864662,7.91891484 L10.2732778,5.11293182 L9.23461085,4.59352886 C9.17375737,4.56448454 9.11365983,4.53506302 9.05356228,4.50450991 L9.05356228,4.50450991 L9.05318431,4.50450991 C9.04902662,4.50224671 9.0452469,4.49998352 9.04071124,4.49809752 L9.04071124,4.49809752 L9.04033327,4.49809752 C9.03617557,4.49583433 9.03201788,4.49357114 9.02748222,4.49168514 L9.02748222,4.49168514 L9.01614306,4.48564996 L9.01463117,4.48489556 L9.00404796,4.47923758 L9.00178013,4.47810598 L8.99195286,4.47320239 L8.98817314,4.4716936 L8.9806137,4.46754441 C8.97872384,4.46679001 8.97721195,4.46565841 8.97532209,4.46490402 L8.97532209,4.46490402 L8.97040845,4.46226362 C8.96738468,4.46113203 8.96473887,4.46000043 8.96247104,4.45811444 L8.96247104,4.45811444 C6.95695184,3.42987009 5.24625076,1.9108899 3.98873806,0.0433778797 L3.98873806,0.0433778797 C1.87625279,5.32039124 0.646710018,10.734705 0.232452754,16.1226149 M20.3095672,43.9802664 C19.5948222,43.9802664 18.8759195,43.9644241 18.1543711,43.9312306 L18.1543711,43.9312306 C14.151648,43.7494207 10.189746,43.0527342 6.36618167,41.8570135 L6.36618167,41.8570135 L22.4795042,49.917378 C26.9134932,52.0628856 29.9731762,56.5964398 29.9731762,61.8447861 L29.9731762,61.8447861 L29.9731762,61.9360682 C29.9727982,61.9398402 29.9727982,61.9439894 29.9727982,61.9481386 L29.9727982,61.9481386 L29.9727982,61.9666213 L29.9724202,61.9737881 L29.9724202,61.9967972 L29.9720423,62.0032096 L29.9720423,62.0198064 L29.9720423,62.0269732 L29.9720423,62.0318768 L29.9712863,62.0586579 L29.9712863,62.0612983 C29.9168584,65.4794752 28.5644747,68.5830682 26.3843325,70.9028417 L26.3843325,70.9028417 C25.3808169,71.9718236 24.207592,72.8672939 22.9115261,73.553796 L22.9115261,73.553796 L26.9153831,71.5127725 L29.1469295,70.376272 C39.4084901,65.2644718 46.4553993,54.6844183 46.4553993,42.4620406 L46.4553993,42.4620406 L45.8438407,36.3152065 C38.4926641,41.1682482 29.7014143,43.9802664 20.3095672,43.9802664" id="Fill-23" mask="url(#mask-9)"></path>
                            </g>
                            <g id="Group-28" transform="translate(14.740906, 24.323675)">
                                <mask id="mask-11" fill="white">
                                    <use xlink:href="#path-10"></use>
                                </mask>
                                <g id="Clip-27"></g>
                                <path d="M8.69826864,3.01570564 C6.77703719,6.54477905 3.82394229,9.40621031 0.232074782,11.2190285 L0.232074782,11.2190285 C-0.418414956,19.6931802 0.94644178,28.1016993 4.06168665,35.8010843 L4.06168665,35.8010843 L6.36618167,36.9534271 C10.189746,38.1491478 14.151648,38.8458343 18.1543711,39.0276442 L18.1543711,39.0276442 C18.8759195,39.0608377 19.5944442,39.07668 20.3099451,39.07668 L20.3099451,39.07668 C29.7017923,39.07668 38.4930421,36.2646618 45.8434627,31.4119973 L45.8434627,31.4119973 C44.1225564,22.8273263 38.8729039,15.514193 31.6630888,11.049289 L31.6630888,11.049289 L31.660443,11.0477802 L31.6521276,11.0428766 C30.9800935,10.6272033 30.2921845,10.2371796 29.5902906,9.87355982 L29.5902906,9.87355982 L10.2728998,0.210099817 L8.69826864,3.01570564 Z" id="Fill-26" mask="url(#mask-11)"></path>
                            </g>
                        </g>
                    </g>
                </g>
            </g>
        </g>
    </g>
</svg>