<?xml version="1.0" encoding="UTF-8"?>
<svg width="104px" height="40px" viewBox="0 0 104 40" version="1.1" xmlns="http://www.w3.org/2000/svg" xmlns:xlink="http://www.w3.org/1999/xlink">
    <!-- Generator: Sketch 60.1 (88133) - https://sketch.com -->
    <title>SenchaLogoSm</title>
    <desc>Created with Sketch.</desc>
    <defs>
        <polygon id="path-1" points="0 0.0826627495 26.040965 0.0826627495 26.040965 39.4855075 0 39.4855075"></polygon>
        <polygon id="path-3" points="0 0.0826627495 19.0273817 0.0826627495 19.0273817 34.5951471 0 34.5951471"></polygon>
        <path d="M2.44057297,1.01378238 C2.31093663,1.01378238 2.18065693,1.0108932 2.04973388,1.00479381 L2.04973388,1.00479381 C1.36713261,0.974136362 0.690964905,0.860495145 0.0360279653,0.666759342 L0.0360279653,0.666759342 C0.751762096,4.78673498 3.37038398,8.25503923 6.95725743,10.1358977 L6.95725743,10.1358977 L6.95757911,10.1362187 L6.96224345,10.1389474 L6.96336932,10.1391079 L6.96755114,10.141676 C6.96964205,10.1431206 6.97189379,10.1442442 6.97414554,10.1450468 L6.97414554,10.1450468 L6.98781687,10.1522697 L6.9895861,10.1532328 L6.99296372,10.1548379 L6.99537631,10.1562825 C6.99666302,10.157085 6.99762806,10.1575666 6.99859309,10.1580481 L6.99859309,10.1580481 C6.99939729,10.1583691 7.00036232,10.1590111 7.00100568,10.1593322 L7.00100568,10.1593322 L7.00406162,10.1610978 L7.00760008,10.1628634 L7.00985183,10.163987 C7.01194274,10.16495 7.01387281,10.1659131 7.01564204,10.1670367 L7.01564204,10.1670367 L7.84026426,10.5795478 L7.8404251,10.5795478 C6.51462815,7.30321379 5.93383805,3.72512056 6.21080303,0.118617033 L6.21080303,0.118617033 C5.04198507,0.708331482 3.75028601,1.01490595 2.44057297,1.01378238" id="path-5"></path>
        <linearGradient x1="53.2216095%" y1="34.4243905%" x2="43.4074875%" y2="89.8525336%" id="linearGradient-7">
            <stop stop-color="#A9CF37" offset="0%"></stop>
            <stop stop-color="#2FA148" offset="100%"></stop>
        </linearGradient>
        <path d="M0.0989160653,6.86068718 C1.62737032,6.0892752 2.88384561,4.87148436 3.70155175,3.36975099 L3.70155175,3.36975099 L4.37160757,2.17571567 L3.92962164,1.95469313 C3.90372654,1.94233385 3.87815312,1.92981405 3.8525797,1.91681273 L3.8525797,1.91681273 L3.85241886,1.91681273 C3.85064963,1.91584967 3.84904123,1.9148866 3.84711116,1.91408405 L3.84711116,1.91408405 L3.84695033,1.91408405 C3.8451811,1.91312099 3.84341186,1.91215793 3.8414818,1.91135538 L3.8414818,1.91135538 L3.83665662,1.90878722 L3.83601326,1.9084662 L3.83150977,1.90605854 L3.83054473,1.90557701 L3.82636292,1.90349038 L3.82475453,1.90284834 L3.82153774,1.90108273 C3.82073355,1.90076171 3.82009019,1.90028018 3.819286,1.89995916 L3.819286,1.89995916 L3.81719509,1.89883558 C3.81590837,1.89835405 3.8147825,1.89787252 3.81381746,1.89706997 L3.81381746,1.89706997 C2.96040504,1.45951919 2.23244713,0.813144638 1.69733535,0.0184586722 L1.69733535,0.0184586722 C0.798405444,2.26399627 0.275195752,4.56795959 0.0989160653,6.86068718 M8.642369,18.715007 C8.33822221,18.715007 8.03230618,18.7082656 7.72526428,18.6941407 L7.72526428,18.6941407 C6.02197789,18.6167747 4.33606212,18.3203124 2.70901348,17.8114951 L2.70901348,17.8114951 L9.56574645,21.2414374 C11.4525503,22.1544194 12.7545431,24.0835914 12.7545431,26.3169302 L12.7545431,26.3169302 L12.7545431,26.3557737 C12.7543822,26.3573788 12.7543822,26.3591444 12.7543822,26.36091 L12.7543822,26.36091 L12.7543822,26.368775 L12.7542214,26.3718247 L12.7542214,26.3816159 L12.7540605,26.3843445 L12.7540605,26.391407 L12.7540605,26.3944567 L12.7540605,26.3965433 L12.7537389,26.4079395 L12.7537389,26.4090631 C12.730578,27.8636065 12.1550956,29.1842843 11.2273755,30.171422 L11.2273755,30.171422 C10.8003476,30.6263079 10.301103,31.0073591 9.74958558,31.2994877 L9.74958558,31.2994877 L11.4533545,30.430967 L12.4029487,29.9473498 C16.7695703,27.7721157 19.768255,23.2699652 19.768255,18.0689535 L19.768255,18.0689535 L19.5080173,15.4532794 C16.3798571,17.5184035 12.6388997,18.715007 8.642369,18.715007" id="path-8"></path>
        <path d="M3.70139091,1.28327899 C2.88384561,2.78501236 1.62720948,4.00264269 0.0987552262,4.77405467 L0.0987552262,4.77405467 C-0.178048918,8.38007667 0.402741183,11.9581699 1.7283773,15.234504 L1.7283773,15.234504 L2.70901348,15.7248626 C4.33606212,16.2336799 6.02197789,16.5301422 7.72526428,16.6075082 L7.72526428,16.6075082 C8.03230618,16.621633 8.33806137,16.6283745 8.64252984,16.6283745 L8.64252984,16.6283745 C12.6390606,16.6283745 16.3800179,15.431771 19.5078565,13.3668074 L19.5078565,13.3668074 C18.7755559,9.71375587 16.5416612,6.60178424 13.4736548,4.70182509 L13.4736548,4.70182509 L13.4725289,4.70118305 L13.4689905,4.69909641 C13.1830185,4.52221418 12.8902913,4.35624664 12.591613,4.20151481 L12.591613,4.20151481 L4.37144673,0.0894041776 L3.70139091,1.28327899 Z" id="path-10"></path>
    </defs>
    <g id="Mockups" stroke="none" stroke-width="1" fill="none" fill-rule="evenodd">
        <g id="04-Horizontal-Create-an-Account---Enabled" transform="translate(-5734.000000, -401.000000)">
            <g id="Phone" transform="translate(5606.000000, 280.000000)">
                <g id="Mockup" transform="translate(0.000000, 117.000000)">
                    <g id="Login-Form">
                        <g id="SenchaLogoSm" transform="translate(128.000000, 4.000000)">
                            <g id="Group-5" transform="translate(29.787234, 11.489362)" fill="#072D40">
                                <path d="M3.60770693,12.4061867 C3.79704217,12.7789569 4.04836504,13.0806216 4.36183611,13.3116734 C4.6751466,13.5427253 5.04305758,13.7140025 5.46589023,13.8258336 C5.88840171,13.9375004 6.32552685,13.9933339 6.77742623,13.9933339 C7.08351018,13.9933339 7.41143433,13.967552 7.76119868,13.9150028 C8.11096302,13.8631106 8.43888717,13.7624462 8.74481053,13.6133381 C9.05089448,13.4645585 9.30558973,13.2594528 9.50985981,12.9985136 C9.71380872,12.7380671 9.81594376,12.4061867 9.81594376,12.0038576 C9.81594376,11.5718054 9.68104842,11.2215328 9.41157892,10.953204 C9.14162765,10.6850393 8.78849093,10.4613772 8.35136579,10.282546 C7.91408006,10.1037148 7.41850028,9.94721703 6.86494762,9.81321682 C6.31091318,9.6792166 5.7499734,9.53027273 5.18164648,9.36605678 C4.59854532,9.21744135 4.0302184,9.03466899 3.47666574,8.81839659 C2.92247072,8.60261683 2.42721211,8.32328549 1.99008698,7.98023837 C1.55296184,7.63751968 1.19934334,7.20908026 0.929873843,6.69492012 C0.660083163,6.18075998 0.525509003,5.55870995 0.525509003,4.8282774 C0.525509003,4.00900402 0.696697613,3.29712787 1.03923542,2.69363425 C1.38145205,2.09014063 1.82949729,1.58714717 2.38353172,1.18481809 C2.93724497,0.782324792 3.56402653,0.484437056 4.26355522,0.290662234 C4.96308391,0.0970516272 5.6626126,-1.63424829e-13 6.3621413,-1.63424829e-13 C7.17809751,-1.63424829e-13 7.96129343,0.0932746603 8.71205023,0.279495549 C9.46248586,0.46604487 10.1290937,0.767709572 10.7121948,1.18481809 C11.2949748,1.60209082 11.7577943,2.13480737 12.1003321,2.78296773 C12.4425487,3.4312923 12.6140585,4.21755828 12.6140585,5.141273 L9.29129725,5.141273 C9.26190933,4.6645541 9.16362844,4.26961473 8.99629398,3.95661913 C8.82847776,3.64362353 8.60622163,3.39779225 8.32952559,3.21896108 C8.05250838,3.04012991 7.73550433,2.91368362 7.37851345,2.83896537 C7.02136197,2.76457554 6.6316108,2.7271343 6.20909932,2.7271343 C5.9320821,2.7271343 5.65506489,2.75718582 5.37836885,2.816632 C5.10135164,2.87624239 4.85002877,2.98068373 4.62423967,3.12946338 C4.39812938,3.27857147 4.21232711,3.46479236 4.06683285,3.68845448 C3.92101741,3.91178818 3.84827028,4.19522491 3.84827028,4.53777938 C3.84827028,4.85077499 3.90624316,5.10432441 4.02299187,5.29777081 C4.13957998,5.49170984 4.36906265,5.67054101 4.71176105,5.83426432 C5.05381709,5.99848027 5.52771726,6.16236779 6.13249804,6.32609109 C6.73711822,6.49030704 7.52786186,6.69869709 8.50440776,6.95191808 C8.79571746,7.01169269 9.2000823,7.11958257 9.71750228,7.27608037 C10.2347617,7.43257817 10.7484881,7.68235063 11.2586815,8.02490511 C11.7687144,8.36795223 12.2095331,8.82611473 12.5812982,9.39955684 C12.9529028,9.9736558 13.138705,10.7073727 13.138705,11.6015285 C13.138705,12.3317969 12.9999556,13.0098445 12.7234201,13.6356715 C12.4464029,14.2616627 12.0348115,14.8019332 11.4883248,15.2563187 C10.9416775,15.7110327 10.2641496,16.0649181 9.45525932,16.3181391 C8.64636905,16.5713601 7.70980998,16.6981348 6.64622446,16.6981348 C5.78626667,16.6981348 4.95216381,16.5899165 4.14327355,16.3739725 C3.33454386,16.1581927 2.62024092,15.8189226 2.00100708,15.3569831 C1.38145205,14.8952079 0.889565831,14.3063295 0.525509003,13.5910048 C0.161130996,12.8756801 -0.0139117668,12.0263552 0.000862484704,11.0427016 L3.32346318,11.0427016 C3.32346318,11.5791952 3.41821109,12.0339091 3.60770693,12.4061867" id="Fill-1"></path>
                                <path d="M21.2659887,7.48844444 C20.8943841,7.07133592 20.329269,6.86245323 19.5717674,6.86245323 C19.0761877,6.86245323 18.6645963,6.94850239 18.3366721,7.11961541 C18.008748,7.29105687 17.7463444,7.50338809 17.5496221,7.7567733 C17.3528997,8.01032273 17.2143108,8.27848738 17.1343371,8.56143146 C17.0540423,8.84470398 17.0066683,9.09792498 16.9922153,9.3215871 L22.0421187,9.3215871 C21.8963032,8.51676473 21.6374326,7.90588139 21.2659887,7.48844444 M17.7574251,13.5687043 C18.223617,14.0306437 18.894079,14.2616956 19.7684898,14.2616956 C20.3949502,14.2616956 20.934371,14.101585 21.3862704,13.7810355 C21.837688,13.4608144 22.1148658,13.1215442 22.2168402,12.7638819 L24.9494344,12.7638819 C24.5121487,14.1498645 23.8415261,15.141072 22.9382091,15.7368475 C22.0345709,16.3331156 20.9414369,16.6310033 19.6591282,16.6310033 C18.7701037,16.6310033 17.96844,16.4858364 17.2546188,16.1951742 C16.5403159,15.9045119 15.9355351,15.4910162 15.4402765,14.9545227 C14.9446967,14.4180292 14.5620115,13.7774227 14.292542,13.0320465 C14.0227513,12.287163 13.8881771,11.4673969 13.8881771,10.5732411 C13.8881771,9.70913675 14.0264449,8.90447859 14.3034621,8.15910238 C14.5801581,7.41405461 14.9736028,6.76967122 15.4839569,6.22545956 C15.9938291,5.68174054 16.6021429,5.25313691 17.3092193,4.94014131 C18.0159745,4.6271457 18.7991704,4.47081212 19.6591282,4.47081212 C20.6210605,4.47081212 21.4590175,4.66080997 22.1731598,5.04080568 C22.8871416,5.4208014 23.4739363,5.93134879 23.9327411,6.57195521 C24.3920276,7.21289007 24.7231635,7.94332262 24.9274336,8.762596 C25.1312219,9.58236203 25.2039691,10.4390767 25.1459962,11.3333967 L16.9922153,11.3333967 C17.0360562,12.3615528 17.2907515,13.1067648 17.7574251,13.5687043" id="Fill-3"></path>
                                <path d="M29.4173287,4.78369277 L29.4173287,6.39317331 L29.4828492,6.39317331 C29.876294,5.72251536 30.3863268,5.23462977 31.0131084,4.92902389 C31.6395688,4.62374643 32.280964,4.47069717 32.9366517,4.47069717 C33.7673822,4.47069717 34.4484431,4.5863052 34.9806373,4.81719282 C35.5125103,5.04840888 35.9314888,5.3687942 36.2375728,5.778513 C36.5436567,6.18839602 36.7585258,6.68761251 36.8823404,7.27616248 C37.0061551,7.86504088 37.0683033,8.51681399 37.0683033,9.23197446 L37.0683033,16.3403903 L33.9641046,16.3403903 L33.9641046,9.81313471 C33.9641046,8.8596969 33.8182891,8.14782075 33.5269794,7.67849156 C33.2351879,7.20899815 32.7182497,6.97433356 31.9748801,6.97433356 C31.1295359,6.97433356 30.5175286,7.23133152 30.1386975,7.74549167 C29.7595453,8.25965181 29.57021,9.10569239 29.57021,10.2826281 L29.57021,16.3403903 L26.4661719,16.3403903 L26.4661719,4.78369277 L29.4173287,4.78369277 Z" id="Fill-5"></path>
                                <path d="M44.1922065,6.86253534 C43.6966267,6.86253534 43.2813417,6.97814337 42.946191,7.209031 C42.6107192,7.44024706 42.3375561,7.73829901 42.1265413,8.10318685 C41.9150446,8.46856734 41.7658568,8.87089642 41.678496,9.31033831 C41.5909747,9.74994441 41.5471337,10.1859378 41.5471337,10.6179899 C41.5471337,11.0354269 41.5909747,11.4600893 41.678496,11.8919773 C41.7658568,12.3245221 41.9078181,12.7156845 42.1047011,13.0656287 C42.3014234,13.4160655 42.5671994,13.7027866 42.9025107,13.9262845 C43.2376613,14.1497824 43.6458803,14.2616135 44.1266859,14.2616135 C44.8698949,14.2616135 45.4415942,14.0492822 45.8425867,13.6244556 C46.243258,13.1997931 46.4947414,12.6297996 46.5968765,11.9144749 L49.5917136,11.9144749 C49.3874435,13.4495656 48.8048241,14.6192758 47.8427313,15.423934 C46.8809596,16.2287563 45.6493973,16.6310854 44.1486866,16.6310854 C43.3031819,16.6310854 42.5272125,16.4857543 41.8204573,16.1952563 C41.1133809,15.9045941 40.5122937,15.4986522 40.0170351,14.9769381 C39.5214553,14.4555525 39.1350765,13.8335025 38.8583805,13.1102954 C38.5815239,12.3877452 38.4430955,11.5942538 38.4430955,10.7296568 C38.4430955,9.83566514 38.5704432,9.00489664 38.8256202,8.23735128 C39.080476,7.46997014 39.4557741,6.80670192 39.9515145,6.24787503 C40.4467731,5.68904815 41.0515539,5.2530548 41.7658568,4.9400592 C42.479678,4.62722781 43.2959554,4.47073001 44.2142072,4.47073001 C44.884348,4.47073001 45.5291156,4.56006349 46.1488312,4.73889466 C46.7679045,4.91789004 47.3216177,5.18983166 47.809971,5.55488372 C48.2981637,5.92026421 48.6954625,6.37464975 49.0013859,6.91836876 C49.3076304,7.46258043 49.482352,8.10712804 49.526193,8.85201159 L46.4875149,8.85201159 C46.2832448,7.52580357 45.5181955,6.86253534 44.1922065,6.86253534" id="Fill-7"></path>
                                <path d="M53.9524142,0.380012133 L53.9524142,6.39310762 L54.0180954,6.39310762 C54.4115402,5.72261389 54.9143465,5.23456409 55.5263538,4.9289582 C56.1383611,4.62368075 56.7359153,4.4707957 57.3188559,4.4707957 C58.1495864,4.4707957 58.8306473,4.58640373 59.3626809,4.81729135 C59.8947145,5.04850741 60.313693,5.36872852 60.619777,5.77844732 C60.9258609,6.18849455 61.14073,6.68754682 61.2645446,7.27609679 C61.3883593,7.86497519 61.4503469,8.5167483 61.4503469,9.23207299 L61.4503469,16.3404889 L58.3463088,16.3404889 L58.3463088,9.81323324 C58.3463088,8.85963121 58.2004933,8.14791928 57.9091836,7.67842587 C57.6173921,7.20893247 57.1004539,6.97426787 56.3570843,6.97426787 C55.5117401,6.97426787 54.8995722,7.23143005 54.5209017,7.7455902 C54.1417495,8.25958612 53.9524142,9.10562671 53.9524142,10.2825624 L53.9524142,16.3404889 L50.8483761,16.3404889 L50.8483761,0.380012133 L53.9524142,0.380012133 Z" id="Fill-9"></path>
                                <path d="M70.3253522,10.6849736 C70.1941504,10.8045228 70.0301883,10.8974691 69.8334659,10.9644692 C69.6367436,11.0314693 69.4254075,11.0873027 69.1994578,11.1321337 C68.9733476,11.1768004 68.7366384,11.2142416 68.4890091,11.2438005 C68.2410586,11.273852 67.9934293,11.3109648 67.7459606,11.3556316 C67.5124632,11.4002983 67.2829805,11.4600729 67.0571914,11.5344627 C66.8310811,11.609181 66.6343587,11.7098454 66.4670243,11.8362917 C66.2993686,11.9630664 66.1644733,12.1233411 66.0626594,12.3169517 C65.9603638,12.5107266 65.9096175,12.7565578 65.9096175,13.0546098 C65.9096175,13.3377181 65.9603638,13.5763239 66.0626594,13.7697703 C66.1644733,13.9637093 66.3030622,14.1164301 66.4779444,14.228097 C66.6528265,14.339928 66.8566149,14.4179306 67.0901123,14.4627616 C67.3229673,14.5074283 67.5635307,14.5297617 67.8114812,14.5297617 C68.4234885,14.5297617 68.8967463,14.4256488 69.2322181,14.2169303 C69.5673688,14.008376 69.8149981,13.7586036 69.9754272,13.4679413 C70.1356957,13.1774433 70.2341372,12.8833326 70.2705911,12.5849522 C70.3068844,12.2872287 70.3253522,12.0486229 70.3253522,11.8697917 L70.3253522,10.6849736 Z M63.1553437,8.33799924 C63.1988635,7.59295147 63.3809722,6.97434998 63.7016698,6.48252321 C64.0220462,5.99086065 64.4302652,5.5960855 64.925845,5.29786933 C65.4211036,4.99981738 65.978671,4.78748616 66.598226,4.66071144 C67.2172993,4.53426516 67.8403873,4.47071359 68.4671689,4.47071359 C69.0356564,4.47071359 69.6110492,4.51193179 70.1941504,4.59371134 C70.7769304,4.67581931 71.308964,4.83609408 71.7899301,5.07420721 C72.2707357,5.31281299 72.6641804,5.64436499 72.970425,6.06902744 C73.2763483,6.49368989 73.4293903,7.05645796 73.4293903,7.75667477 L73.4293903,13.7697703 C73.4293903,14.2916486 73.458457,14.7907008 73.5169117,15.2674197 C73.5748845,15.7446313 73.6770196,16.1022936 73.822835,16.3404068 L70.6751165,16.3404068 C70.6165013,16.1617398 70.5692879,15.9792959 70.5329946,15.7927466 C70.4963802,15.6066899 70.4706858,15.4165278 70.4563934,15.2229172 C69.9608136,15.7446313 69.377873,16.1095191 68.7077322,16.3182376 C68.0371097,16.5266277 67.3523552,16.631069 66.6528265,16.631069 C66.1134058,16.631069 65.61076,16.5640689 65.1444076,16.4299045 C64.6778945,16.29574 64.2701573,16.0871858 63.9202324,15.8040775 C63.570468,15.5209692 63.297305,15.1633068 63.1005826,14.7310904 C62.9038602,14.2990383 62.8054187,13.7848781 62.8054187,13.18861 C62.8054187,12.5330599 62.9181527,11.9927895 63.144263,11.5679628 C63.3700521,11.1433003 63.6613618,10.8045228 64.0188344,10.5509734 C64.3756647,10.2977524 64.7837231,10.1075903 65.2428491,9.98097983 C65.701975,9.85436934 66.1644733,9.75386917 66.6309863,9.67915092 C67.0971782,9.60476109 67.5563041,9.54498648 68.0080429,9.50031974 C68.4597817,9.45565301 68.8606136,9.38848868 69.2105385,9.2991552 C69.5601423,9.20982173 69.8368383,9.07943426 70.0411084,8.90799281 C70.2450573,8.73687979 70.3396446,8.48694311 70.3253522,8.15916807 C70.3253522,7.81644938 70.2705911,7.54434355 70.1613901,7.34317901 C70.0520285,7.14201447 69.9062131,6.98551667 69.7241044,6.87384982 C69.5416745,6.76201876 69.3306596,6.68762893 69.0902569,6.65018769 C68.8498541,6.6132391 68.5908229,6.59435427 68.3142875,6.59435427 C67.7021196,6.59435427 67.2211535,6.7285187 66.8713891,6.99668335 C66.5216248,7.264848 66.3173547,7.71200803 66.2593818,8.33799924 L63.1553437,8.33799924 Z" id="Fill-11"></path>
                            </g>
                            <g id="Sencha-logo">
                                <g id="Group-19" transform="translate(0.000000, 0.077847)">
                                    <g id="Group-15">
                                        <mask id="mask-2" fill="white">
                                            <use xlink:href="#path-1"></use>
                                        </mask>
                                        <g id="Clip-14"></g>
                                        <path d="M25.7807273,23.6393795 L25.7805665,23.63954 C25.0482659,19.986328 22.8145321,16.8745169 19.7463648,14.9745577 C19.7460431,14.9745577 19.7453998,14.9739157 19.7452389,14.9739157 L19.7417005,14.971829 C19.7407354,14.971187 19.7396096,14.9703844 19.7386445,14.9699029 C19.4536376,14.7936627 19.1618754,14.6283372 18.864323,14.4740869 L10.6441567,10.3621368 L10.6441567,10.3622973 L10.6441567,10.3621368 L10.6443176,10.3618158 L10.2023316,10.1407932 C10.1764365,10.128434 10.1508631,10.1157536 10.1252897,10.1029128 L10.1251289,10.1029128 C10.1233596,10.1019498 10.1217512,10.1009867 10.1198212,10.1000236 L10.1196603,10.1000236 C10.1178911,10.0992211 10.115961,10.098258 10.1141918,10.097295 L10.1093666,10.0948873 L10.1087233,10.0944058 L10.1042198,10.0921586 L10.1030939,10.0915166 L10.0990729,10.0895905 L10.0974645,10.0887879 L10.0942478,10.0870223 C10.0934436,10.0867013 10.0928002,10.0863803 10.091996,10.0860593 L10.0897443,10.0849357 C10.0886184,10.0842936 10.0874925,10.0838121 10.0865275,10.0830096 C9.23327589,9.64545878 8.5049963,8.99924474 7.97004535,8.20439827 C7.36593358,7.30714629 7.01369588,6.2270732 7.01369588,5.06465838 C7.01369588,2.90499373 8.23108726,1.0291111 10.0183317,0.0825824944 L7.36512938,1.43552291 C2.99834699,3.61027552 -1.60839131e-05,8.11194439 -1.60839131e-05,13.3127957 L0.197011851,15.5946086 L0.19717269,15.5946086 L0.197011851,15.594127 L0.207144716,15.5974978 L0.19717269,15.5946086 C0.912585143,19.7144237 3.53120703,23.182728 7.11808048,25.0634259 L7.11840216,25.0637469 L7.12306649,25.0663151 L7.12403153,25.0666361 C7.12547908,25.0672781 7.12708747,25.0684017 7.12837418,25.0690437 C7.13046509,25.0703278 7.13271684,25.0716119 7.13496859,25.072575 L7.14863991,25.0797979 L7.15040915,25.0806005 L7.15378677,25.0823661 L7.15636019,25.0838107 L7.15957698,25.0855763 L7.1621504,25.0868604 L7.16520635,25.0884655 L7.16842313,25.0902311 L7.17067488,25.0915152 C7.17276578,25.0924782 7.17469585,25.0934413 7.17662592,25.0944044 L8.00092647,25.5069156 C7.99980059,25.5045079 7.9989964,25.5021002 7.99803136,25.4996926 L8.00124815,25.5070761 L8.00092647,25.5069156 L8.00092647,25.5072366 L8.98172349,25.9974347 L15.8386173,29.4275375 C17.7254211,30.3405195 19.0272531,32.2696915 19.0272531,34.5030303 L19.0272531,34.5418738 C19.0270922,34.5434789 19.0270922,34.545084 19.0270922,34.5468496 L19.0270922,34.5548751 L19.0269314,34.5577643 L19.0269314,34.567716 L19.0267705,34.5704446 L19.0267705,34.5775071 L19.0267705,34.5805568 L19.0267705,34.5826434 L19.0264489,34.5940396 L19.0264489,34.5951632 C19.003288,36.0495461 18.4278056,37.3703844 17.5000855,38.3575221 C17.0732185,38.8122475 16.573813,39.1932987 16.0224564,39.4855878 L17.7260645,38.6170671 L18.6758196,38.1334499 C23.0422803,35.9580552 26.040965,31.4560654 26.040965,26.2548931 L25.7807273,23.6393795" id="Fill-13" fill="#7DBA42" mask="url(#mask-2)"></path>
                                    </g>
                                    <g id="Group-18">
                                        <mask id="mask-4" fill="white">
                                            <use xlink:href="#path-3"></use>
                                        </mask>
                                        <g id="Clip-17"></g>
                                        <path d="M-4.82517392e-05,13.3127796 C-4.82517392e-05,8.11208885 2.99831482,3.61025947 7.36525806,1.43534635 L10.0184604,0.0825664433 C8.23121594,1.02925556 7.01366372,2.90497768 7.01366372,5.06464233 C7.01366372,6.22705715 7.36590141,7.30713024 7.97001319,8.20454273 C7.07108329,10.4499198 6.54787359,12.7538831 6.37159391,15.0466107 C5.20277595,15.6361647 3.91107689,15.9428996 2.60136385,15.9417791 C2.47172751,15.9417791 2.34144781,15.9387264 2.21052476,15.932627 C1.52808433,15.9019695 0.851916623,15.7884888 0.196979683,15.594753 L-4.82517392e-05,13.3127796 Z" id="Fill-16" fill="#C4D73E" mask="url(#mask-4)"></path>
                                    </g>
                                </g>
                                <g id="Group-22" transform="translate(0.160839, 15.005295)">
                                    <mask id="mask-6" fill="white">
                                        <use xlink:href="#path-5"></use>
                                    </mask>
                                    <g id="Clip-21"></g>
                                    <path d="M2.44057297,1.01378238 C2.31093663,1.01378238 2.18065693,1.0108932 2.04973388,1.00479381 L2.04973388,1.00479381 C1.36713261,0.974136362 0.690964905,0.860495145 0.0360279653,0.666759342 L0.0360279653,0.666759342 C0.751762096,4.78673498 3.37038398,8.25503923 6.95725743,10.1358977 L6.95725743,10.1358977 L6.95757911,10.1362187 L6.96224345,10.1389474 L6.96336932,10.1391079 L6.96755114,10.141676 C6.96964205,10.1431206 6.97189379,10.1442442 6.97414554,10.1450468 L6.97414554,10.1450468 L6.98781687,10.1522697 L6.9895861,10.1532328 L6.99296372,10.1548379 L6.99537631,10.1562825 C6.99666302,10.157085 6.99762806,10.1575666 6.99859309,10.1580481 L6.99859309,10.1580481 C6.99939729,10.1583691 7.00036232,10.1590111 7.00100568,10.1593322 L7.00100568,10.1593322 L7.00406162,10.1610978 L7.00760008,10.1628634 L7.00985183,10.163987 C7.01194274,10.16495 7.01387281,10.1659131 7.01564204,10.1670367 L7.01564204,10.1670367 L7.84026426,10.5795478 L7.8404251,10.5795478 C6.51462815,7.30321379 5.93383805,3.72512056 6.21080303,0.118617033 L6.21080303,0.118617033 C5.04198507,0.708331482 3.75028601,1.01490595 2.44057297,1.01378238" id="Fill-20" fill="url(#linearGradient-7)" mask="url(#mask-6)"></path>
                                </g>
                                <g id="Group-25" transform="translate(6.272726, 8.263867)">
                                    <mask id="mask-9" fill="white">
                                        <use xlink:href="#path-8"></use>
                                    </mask>
                                    <g id="Clip-24"></g>
                                    <path d="M0.0989160653,6.86068718 C1.62737032,6.0892752 2.88384561,4.87148436 3.70155175,3.36975099 L3.70155175,3.36975099 L4.37160757,2.17571567 L3.92962164,1.95469313 C3.90372654,1.94233385 3.87815312,1.92981405 3.8525797,1.91681273 L3.8525797,1.91681273 L3.85241886,1.91681273 C3.85064963,1.91584967 3.84904123,1.9148866 3.84711116,1.91408405 L3.84711116,1.91408405 L3.84695033,1.91408405 C3.8451811,1.91312099 3.84341186,1.91215793 3.8414818,1.91135538 L3.8414818,1.91135538 L3.83665662,1.90878722 L3.83601326,1.9084662 L3.83150977,1.90605854 L3.83054473,1.90557701 L3.82636292,1.90349038 L3.82475453,1.90284834 L3.82153774,1.90108273 C3.82073355,1.90076171 3.82009019,1.90028018 3.819286,1.89995916 L3.819286,1.89995916 L3.81719509,1.89883558 C3.81590837,1.89835405 3.8147825,1.89787252 3.81381746,1.89706997 L3.81381746,1.89706997 C2.96040504,1.45951919 2.23244713,0.813144638 1.69733535,0.0184586722 L1.69733535,0.0184586722 C0.798405444,2.26399627 0.275195752,4.56795959 0.0989160653,6.86068718 M8.642369,18.715007 C8.33822221,18.715007 8.03230618,18.7082656 7.72526428,18.6941407 L7.72526428,18.6941407 C6.02197789,18.6167747 4.33606212,18.3203124 2.70901348,17.8114951 L2.70901348,17.8114951 L9.56574645,21.2414374 C11.4525503,22.1544194 12.7545431,24.0835914 12.7545431,26.3169302 L12.7545431,26.3169302 L12.7545431,26.3557737 C12.7543822,26.3573788 12.7543822,26.3591444 12.7543822,26.36091 L12.7543822,26.36091 L12.7543822,26.368775 L12.7542214,26.3718247 L12.7542214,26.3816159 L12.7540605,26.3843445 L12.7540605,26.391407 L12.7540605,26.3944567 L12.7540605,26.3965433 L12.7537389,26.4079395 L12.7537389,26.4090631 C12.730578,27.8636065 12.1550956,29.1842843 11.2273755,30.171422 L11.2273755,30.171422 C10.8003476,30.6263079 10.301103,31.0073591 9.74958558,31.2994877 L9.74958558,31.2994877 L11.4533545,30.430967 L12.4029487,29.9473498 C16.7695703,27.7721157 19.768255,23.2699652 19.768255,18.0689535 L19.768255,18.0689535 L19.5080173,15.4532794 C16.3798571,17.5184035 12.6388997,18.715007 8.642369,18.715007" id="Fill-23" mask="url(#mask-9)"></path>
                                </g>
                                <g id="Group-28" transform="translate(6.272726, 10.350500)">
                                    <mask id="mask-11" fill="white">
                                        <use xlink:href="#path-10"></use>
                                    </mask>
                                    <g id="Clip-27"></g>
                                    <path d="M3.70139091,1.28327899 C2.88384561,2.78501236 1.62720948,4.00264269 0.0987552262,4.77405467 L0.0987552262,4.77405467 C-0.178048918,8.38007667 0.402741183,11.9581699 1.7283773,15.234504 L1.7283773,15.234504 L2.70901348,15.7248626 C4.33606212,16.2336799 6.02197789,16.5301422 7.72526428,16.6075082 L7.72526428,16.6075082 C8.03230618,16.621633 8.33806137,16.6283745 8.64252984,16.6283745 L8.64252984,16.6283745 C12.6390606,16.6283745 16.3800179,15.431771 19.5078565,13.3668074 L19.5078565,13.3668074 C18.7755559,9.71375587 16.5416612,6.60178424 13.4736548,4.70182509 L13.4736548,4.70182509 L13.4725289,4.70118305 L13.4689905,4.69909641 C13.1830185,4.52221418 12.8902913,4.35624664 12.591613,4.20151481 L12.591613,4.20151481 L4.37144673,0.0894041776 L3.70139091,1.28327899 Z" id="Fill-26" mask="url(#mask-11)"></path>
                                </g>
                            </g>
                        </g>
                    </g>
                </g>
            </g>
        </g>
    </g>
</svg>